SplineFontDB: 3.0
FontName: Juna-Regular
FullName: Juna
FamilyName: Juna
Weight: Regular
Copyright: Copyright (c) 2020 German I. Rebord, with Reserved Font Name 'Juna'.

StartChar: A
Encoding: 65 65 0
Width: 680
VWidth: 0
Flags: HMW
AnchorPoint: "below" 335 -37 basechar 0
AnchorPoint: "above" 343 675 basechar 0
LayerCount: 2
Fore
SplineSet
6 16 m 128
 6 28 8 34 13 34 c 256
 44 34 62 39 72 48 c 128
 82 57 93 73 104 98 c 257
 288 580 l 258
 290 585 291 590 291 594 c 128
 291 598 288 604 284 608 c 128
 280 612 278 615 278 617 c 128
 278 619 285 623 298 630 c 128
 311 637 326 647 343 659 c 128
 360 671 371 677 375 677 c 256
 382 677 388 670 392 656 c 256
 401 625 409 598 416 575 c 258
 578 91 l 258
 591 53 615 34 665 34 c 256
 669 34 671 28 671 16 c 128
 671 4 669 -3 665 -3 c 256
 641 -1 610 0 559 0 c 128
 508 0 470 -1 447 -3 c 256
 442 -3 440 4 440 16 c 128
 440 28 442 34 447 34 c 256
 479 34 495 45 495 67 c 256
 495 74 494 82 491 91 c 258
 442 244 l 258
 439 255 432 260 421 259 c 257
 222 259 l 258
 213 259 206 253 202 242 c 258
 147 89 l 258
 144 82 143 75 143 69 c 256
 143 45 164 34 208 34 c 2
 212 34 l 258
 217 34 219 28 219 16 c 128
 219 4 217 -3 212 -3 c 256
 184 -1 153 0 112 0 c 128
 71 0 40 -1 13 -3 c 256
 8 -3 6 4 6 16 c 128
223 301 m 256
 223 296 227 293 235 293 c 258
 410 293 l 258
 418 293 422 296 422 301 c 256
 422 302 422 304 421 306 c 258
 338 566 l 258
 336 573 334 576 330 576 c 128
 326 576 323 573 320 566 c 258
 224 306 l 258
 223 305 223 303 223 301 c 256
EndSplineSet
Validated: 1
EndChar

StartChar: B
Encoding: 66 66 1
Width: 578
VWidth: 0
Flags: HMW
AnchorPoint: "above" 270 675 basechar 0
AnchorPoint: "below" 282 -37 basechar 0
LayerCount: 2
Fore
SplineSet
30 16 m 128
 30 28 32 34 36 34 c 256
 95 34 114 53 114 91 c 258
 114 575 l 258
 114 611 98 629 37 629 c 256
 32 629 30 636 30 648 c 128
 30 660 32 666 37 666 c 256
 74 664 99 663 140 663 c 128
 214 663 226 666 289 666 c 256
 345 666 392 652 430 626 c 128
 468 600 488 561 488 508 c 256
 488 443 456 393 392 364 c 256
 387 362 385 360 385 357 c 256
 385 355 387 353 392 352 c 256
 427 341 460 320 489 290 c 128
 518 260 533 219 533 169 c 256
 533 123 516 82 482 48 c 128
 448 14 384 -3 289 -3 c 256
 232 -3 192 0 125 0 c 128
 86 0 63 -1 36 -3 c 256
 32 -3 30 4 30 16 c 128
192 135 m 258
 192 67 223 28 284 28 c 0
 392 28 445 80 445 182 c 256
 445 251 409 298 336 323 c 256
 308 332 266 337 210 337 c 256
 199 337 193 332 192 323 c 257
 192 135 l 258
192 385 m 258
 192 374 204 368 227 368 c 0
 344 368 404 414 404 507 c 256
 404 593 342 636 218 636 c 256
 201 636 193 625 192 604 c 257
 192 385 l 258
EndSplineSet
Validated: 1
EndChar

StartChar: C
Encoding: 67 67 2
Width: 667
VWidth: 0
Flags: HMW
AnchorPoint: "below" 365 -37 basechar 0
AnchorPoint: "above" 360 675 basechar 0
LayerCount: 2
Fore
SplineSet
40 316 m 256
 40 466 113 572 208 630 c 128
 258 660 319 675 392 675 c 256
 421 675 450 673 478 668 c 128
 506 663 546 656 597 647 c 257
 606 604 611 560 611 502 c 257
 610 497 604 494 594 494 c 128
 584 494 578 496 577 501 c 256
 568 598 501 640 378 641 c 256
 311 641 254 611 206 551 c 128
 158 491 134 423 134 345 c 256
 134 253 157 178 204 117 c 128
 251 56 309 25 377 25 c 256
 492 25 563 62 595 150 c 256
 596 153 601 155 609 155 c 128
 622 155 627 154 627 144 c 256
 615 82 603 45 586 20 c 257
 575 19 563 16 549 11 c 256
 501 -4 440 -11 365 -11 c 256
 235 -11 137 61 85 147 c 128
 55 196 40 251 40 316 c 256
EndSplineSet
Validated: 1
EndChar

StartChar: D
Encoding: 68 68 3
Width: 726
VWidth: 0
Flags: HMW
AnchorPoint: "below" 325 -37 basechar 0
AnchorPoint: "above" 325 675 basechar 0
LayerCount: 2
Fore
SplineSet
30 15 m 128
 30 27 32 33 36 34 c 256
 95 34 114 53 114 91 c 258
 114 575 l 258
 114 611 98 629 37 629 c 256
 32 629 30 636 30 648 c 128
 30 660 32 666 37 666 c 256
 82 664 106 663 139 663 c 128
 192 663 276 666 325 666 c 256
 426 666 511 638 579 584 c 128
 647 530 681 452 681 355 c 256
 681 250 652 165 592 98 c 128
 532 31 451 -3 349 -3 c 256
 310 -3 176 0 134 0 c 128
 102 0 76 -1 36 -3 c 256
 32 -3 30 3 30 15 c 128
263 636 m 2
 217 636 192 626 192 580 c 258
 192 146 l 258
 192 52 225 26 315 26 c 256
 492 26 588 167 588 350 c 256
 588 432 560 503 502 556 c 128
 444 609 372 636 285 636 c 258
 263 636 l 2
EndSplineSet
Validated: 1
EndChar

StartChar: E
Encoding: 69 69 4
Width: 587
VWidth: 0
Flags: HMW
AnchorPoint: "below" 314 -37 basechar 0
AnchorPoint: "above" 294 675 basechar 0
LayerCount: 2
Fore
SplineSet
30 15 m 128
 30 27 32 33 37 34 c 256
 38 34 39 34 40 34 c 0
 98 34 113 52 113 86 c 258
 113 575 l 258
 113 611 98 629 37 629 c 256
 32 629 30 636 30 648 c 128
 30 660 32 666 37 666 c 256
 82 664 112 663 154 663 c 128
 218 663 420 666 481 666 c 258
 488 666 l 2
 505 666 516 665 516 653 c 258
 516 503 l 258
 516 498 510 495 498 495 c 128
 486 495 479 498 479 503 c 256
 479 590 437 627 353 629 c 258
 211 632 l 258
 198 632 191 624 191 609 c 258
 191 349 l 258
 191 338 196 333 205 333 c 258
 306 333 l 258
 353 333 363 347 363 390 c 258
 363 419 l 258
 363 423 372 426 381 426 c 0
 389 426 397 424 397 419 c 256
 394 396 393 368 393 322 c 128
 393 276 394 246 397 220 c 256
 397 216 391 214 380 214 c 128
 369 214 363 216 363 220 c 258
 363 253 l 258
 363 289 349 299 306 299 c 258
 204 299 l 258
 196 299 192 294 191 284 c 257
 191 128 l 258
 191 76 216 30 268 30 c 257
 382 34 l 258
 466 37 505 74 506 159 c 256
 506 164 512 167 524 167 c 128
 536 167 542 164 542 159 c 258
 542 11 l 258
 542 -2 531 -3 519 -3 c 0
 448 -2 230 0 156 0 c 128
 114 0 84 -1 37 -3 c 256
 32 -3 30 3 30 15 c 128
EndSplineSet
Validated: 1
EndChar

StartChar: F
Encoding: 70 70 5
Width: 552
VWidth: 0
Flags: HMW
AnchorPoint: "above" 294 675 basechar 0
AnchorPoint: "below" 154 -37 basechar 0
LayerCount: 2
Fore
SplineSet
30 16 m 128
 30 28 32 34 36 34 c 256
 95 34 113 53 113 91 c 258
 113 574 l 258
 113 610 98 628 37 628 c 256
 32 628 30 634 30 646 c 128
 30 658 32 665 37 665 c 256
 75 664 107 663 163 663 c 128
 276 663 373 665 486 665 c 256
 509 665 521 662 522 656 c 257
 522 503 l 258
 522 497 516 494 504 494 c 128
 492 494 485 497 485 503 c 256
 485 586 443 621 358 623 c 258
 211 628 l 258
 198 628 191 621 191 608 c 258
 191 365 l 258
 191 355 196 350 205 350 c 258
 285 350 l 258
 333 350 342 366 342 413 c 258
 342 454 l 258
 342 458 352 461 361 461 c 0
 369 461 377 459 377 454 c 256
 374 431 373 400 373 331 c 128
 373 262 374 231 377 208 c 256
 377 204 372 202 360 202 c 128
 348 202 342 204 342 208 c 258
 342 249 l 258
 342 294 330 311 285 311 c 258
 204 311 l 258
 196 311 192 307 191 299 c 257
 191 91 l 258
 191 53 212 34 273 34 c 256
 277 34 280 24 280 14 c 0
 280 5 278 -3 273 -3 c 256
 244 -1 211 0 154 0 c 128
 97 0 65 -1 36 -3 c 256
 32 -3 30 4 30 16 c 128
EndSplineSet
Validated: 1
EndChar

StartChar: G
Encoding: 71 71 6
Width: 678
VWidth: 0
Flags: HMW
AnchorPoint: "above" 360 675 basechar 0
AnchorPoint: "below" 370 -37 basechar 0
LayerCount: 2
Fore
SplineSet
40 326 m 256
 40 405 69 482 128 559 c 128
 187 636 269 675 372 675 c 256
 425 675 476 670 522 661 c 128
 568 652 593 647 598 647 c 257
 604 631 609 588 612 504 c 256
 612 498 607 495 596 495 c 128
 585 495 579 497 578 501 c 256
 578 537 564 563 530 594 c 128
 496 625 443 641 375 641 c 256
 300 641 241 611 198 552 c 128
 155 493 134 427 134 354 c 256
 134 255 158 177 206 116 c 128
 254 55 310 25 374 25 c 128
 438 25 483 33 508 48 c 256
 515 53 518 64 518 81 c 2
 518 179 l 258
 518 216 496 235 422 235 c 256
 417 235 415 241 415 254 c 128
 415 267 417 273 422 273 c 256
 440 271 468 270 536 270 c 128
 604 270 640 271 658 273 c 256
 663 273 666 263 666 253 c 0
 666 244 663 235 658 235 c 256
 613 235 597 217 597 181 c 2
 597 72 l 258
 597 51 599 40 611 40 c 2
 615 40 l 258
 624 40 623 16 615 16 c 128
 573 16 474 -3 432 -8 c 128
 416 -10 396 -11 371 -11 c 256
 324 -11 270 3 211 31 c 128
 152 59 108 102 81 159 c 128
 54 216 40 271 40 326 c 256
EndSplineSet
Validated: 1
EndChar

StartChar: H
Encoding: 72 72 7
Width: 767
VWidth: 0
Flags: HMW
AnchorPoint: "below" 384 -37 basechar 0
AnchorPoint: "above" 384 675 basechar 0
LayerCount: 2
Fore
SplineSet
30 646 m 128
 30 659 32 666 37 666 c 256
 48 665 91 663 158 663 c 0
 199 663 265 665 272 666 c 256
 276 666 279 655 279 645 c 0
 279 636 277 628 272 628 c 256
 213 628 193 610 193 572 c 258
 193 381 l 258
 193 368 199 362 212 362 c 258
 555 362 l 258
 568 362 574 368 574 381 c 258
 574 572 l 258
 574 610 558 628 497 628 c 256
 492 628 490 633 490 646 c 128
 490 659 492 666 497 666 c 256
 508 665 550 663 617 663 c 0
 658 663 724 665 731 666 c 256
 735 666 738 655 738 645 c 0
 738 636 736 628 731 628 c 256
 672 628 652 609 652 572 c 258
 652 91 l 258
 652 53 672 34 731 34 c 256
 735 34 738 24 738 14 c 0
 738 5 736 -3 731 -3 c 256
 679 -1 646 0 614 0 c 128
 582 0 548 -1 496 -3 c 256
 492 -3 490 3 490 15 c 128
 490 27 492 33 496 34 c 256
 554 34 574 53 574 91 c 258
 574 304 l 258
 574 317 568 323 555 323 c 258
 212 323 l 258
 199 323 193 317 193 304 c 258
 193 91 l 258
 193 53 213 34 272 34 c 256
 276 34 279 24 279 14 c 0
 279 5 277 -3 272 -3 c 256
 223 -1 192 0 158 0 c 128
 124 0 90 -1 37 -3 c 256
 33 -3 31 3 31 15 c 128
 31 27 33 33 37 34 c 256
 95 34 115 53 115 91 c 258
 115 572 l 258
 115 609 98 628 37 628 c 256
 32 628 30 633 30 646 c 128
EndSplineSet
Validated: 1
EndChar

StartChar: I
Encoding: 73 73 8
Width: 324
VWidth: 0
Flags: HMW
AnchorPoint: "above" 163 675 basechar 0
AnchorPoint: "below" 163 -37 basechar 0
LayerCount: 2
Fore
SplineSet
40 16 m 128
 40 28 42 34 46 34 c 256
 104 34 123 53 123 91 c 258
 123 572 l 258
 123 609 108 628 47 628 c 256
 42 628 40 634 40 647 c 128
 40 660 42 666 47 666 c 256
 58 665 99 663 166 663 c 0
 212 663 271 665 278 666 c 256
 282 666 284 656 284 646 c 0
 284 637 283 628 278 628 c 256
 219 628 201 609 201 572 c 258
 201 91 l 258
 201 53 219 34 278 34 c 256
 282 34 284 24 284 14 c 0
 284 5 283 -3 278 -3 c 256
 250 -1 218 0 162 0 c 128
 106 0 74 -1 46 -3 c 256
 42 -3 40 4 40 16 c 128
EndSplineSet
Validated: 1
EndChar

StartChar: J
Encoding: 74 74 9
Width: 330
VWidth: 0
Flags: HMW
AnchorPoint: "below" 165 -195 basechar 0
AnchorPoint: "above" 165 675 basechar 0
LayerCount: 2
Fore
SplineSet
-41 -145 m 256
 -41 -124 -21 -104 5 -104 c 256
 39 -104 59 -120 65 -145 c 257
 88 -137 102 -118 112 -89 c 128
 122 -60 127 16 127 137 c 258
 127 572 l 258
 127 609 111 628 49 628 c 256
 44 628 42 633 42 646 c 128
 42 659 44 666 49 666 c 256
 61 665 105 663 171 663 c 0
 212 663 272 665 283 666 c 256
 288 666 290 659 290 646 c 128
 290 633 288 628 283 628 c 256
 220 628 205 610 205 572 c 258
 205 287 l 258
 205 54 194 -47 171 -80 c 128
 135 -131 87 -195 10 -195 c 256
 -26 -195 -41 -177 -41 -145 c 256
EndSplineSet
Validated: 1
EndChar

StartChar: K
Encoding: 75 75 10
Width: 634
VWidth: 0
Flags: HMW
AnchorPoint: "above" 304 675 basechar 0
AnchorPoint: "below" 320 -37 basechar 0
LayerCount: 2
Fore
SplineSet
30 646 m 128
 30 659 32 666 37 666 c 256
 49 665 91 663 160 663 c 0
 200 663 265 665 271 666 c 256
 275 666 278 655 278 645 c 0
 278 636 276 628 271 628 c 256
 210 628 193 609 193 572 c 258
 193 361 l 258
 193 354 195 350 200 350 c 256
 209 350 220 355 233 368 c 128
 246 381 254 391 258 396 c 258
 401 574 l 258
 414 591 421 603 421 612 c 256
 421 623 409 628 392 628 c 0
 391 628 390 628 389 628 c 256
 385 628 382 638 382 648 c 0
 382 657 384 666 389 666 c 256
 400 665 447 664 489 664 c 0
 524 664 557 665 566 666 c 256
 571 666 573 659 573 646 c 128
 573 633 571 628 566 628 c 256
 538 628 516 622 499 611 c 128
 482 600 471 592 466 586 c 258
 298 375 l 258
 294 371 295 363 298 360 c 258
 514 84 l 258
 540 51 567 34 618 34 c 0
 619 34 620 34 621 34 c 256
 626 34 628 28 628 16 c 128
 628 4 626 -3 621 -3 c 256
 595 -1 566 0 504 0 c 128
 442 0 399 -1 374 -3 c 256
 369 -3 367 3 367 15 c 128
 367 27 369 33 374 34 c 256
 405 34 421 43 421 62 c 256
 421 70 417 80 408 91 c 258
 277 263 l 258
 260 285 244 300 231 306 c 128
 218 312 208 315 202 315 c 256
 197 315 194 311 193 304 c 257
 193 91 l 258
 193 53 212 34 271 34 c 256
 275 34 278 24 278 14 c 0
 278 5 276 -3 271 -3 c 256
 246 -1 213 0 154 0 c 128
 95 0 62 -1 37 -3 c 256
 33 -3 31 3 31 15 c 128
 31 27 33 33 37 34 c 256
 96 34 115 53 115 91 c 258
 115 572 l 258
 115 609 98 628 37 628 c 256
 32 628 30 633 30 646 c 128
EndSplineSet
Validated: 1
EndChar

StartChar: L
Encoding: 76 76 11
Width: 639
VWidth: 0
Flags: HMW
AnchorPoint: "below" 320 -37 basechar 0
AnchorPoint: "above" 153 675 basechar 0
LayerCount: 2
Fore
SplineSet
30 646 m 128
 30 659 32 666 37 666 c 256
 52 665 80 663 150 663 c 128
 189.983606257 663 262.655343774 664.950763396 270 666 c 256
 274 666 277 655 277 645 c 0
 277 636 275 628 270 628 c 256
 213 628 192 609 192 572 c 258
 192 135 l 258
 192 77 219 30 279 30 c 257
 432 37 l 258
 473 38 507 50 530 78 c 128
 553 106 561 130 561 171 c 256
 561 175 567 177 580 177 c 128
 593 177 599 175 599 171 c 258
 599 13 l 258
 599 -2 586 -3 571 -3 c 0
 499 -3 225 0 153 0 c 128
 116 0 85 -1 38 -3 c 256
 34 -3 32 4 32 16 c 128
 32 28 34 34 38 34 c 256
 93.2747551171 34 114 49.5599593446 114 86 c 258
 114 572 l 258
 114 609 98 628 37 628 c 256
 32 628 30 633 30 646 c 128
EndSplineSet
Validated: 1
EndChar

StartChar: M
Encoding: 77 77 12
Width: 904
VWidth: 0
Flags: HMW
AnchorPoint: "above" 459 645 basechar 0
AnchorPoint: "below" 434 -37 basechar 0
LayerCount: 2
Fore
SplineSet
42 -3 m 256
 38 -3 35 7 35 17 c 0
 35 26 37 34 42 34 c 256
 91 34 116 53 118 91 c 258
 147 552 l 257
 147 583 142 601 117 616 c 128
 103 624 87 628 58 628 c 256
 54 628 52 634 52 647 c 128
 52 660 54 666 58 666 c 256
 73 665 93 663 127 663 c 128
 186 662 203 662 219 627 c 258
 449 135 l 258
 453 126 457 122 460 122 c 128
 463 122 467 127 471 136 c 258
 708 630 l 258
 724 662 741 663 791 663 c 0
 822 663 852 664 867 666 c 256
 872 666 874 660 874 647 c 128
 874 634 872 628 867 628 c 256
 803 628 779 600 779 540 c 258
 783 91 l 258
 783 53 805 34 857 34 c 256
 862 34 863 26 863 17 c 0
 863 7 861 -3 857 -3 c 256
 832 -1 799 0 749 0 c 128
 699 0 664 -1 636 -3 c 256
 631 -3 629 4 629 16 c 128
 629 28 631 34 636 34 c 256
 685 34 705 53 705 91 c 258
 703 507 l 258
 703 516 694 515 692 508 c 257
 445 -3 l 258
 442 -8 439 -11 434 -11 c 128
 429 -11 426 -8 423 -3 c 258
 196 508 l 258
 192 517 185 522 183 508 c 257
 158 91 l 257
 158 82 l 258
 158 47 196 34 236 34 c 256
 241 34 242 26 242 17 c 0
 242 7 240 -3 236 -3 c 256
 209 -1 177 0 139 0 c 128
 101 0 69 -1 42 -3 c 256
EndSplineSet
Validated: 1
EndChar

StartChar: N
Encoding: 78 78 13
Width: 740
VWidth: 0
Flags: HMW
AnchorPoint: "below" 380 -37 basechar 0
AnchorPoint: "above" 360 675 basechar 0
LayerCount: 2
Fore
SplineSet
36 16 m 128
 36 28 38 34 43 34 c 256
 97 34 124 53 124 91 c 258
 124 542 l 258
 124 605 99 628 37 628 c 256
 33 628 30 638 30 648 c 0
 30 657 32 666 37 666 c 256
 55 664 157 662 172 659 c 128
 182 657 192 649 201 638 c 258
 571 162 l 258
 574 158 578 156 583 156 c 256
 590 156 594 161 594 172 c 258
 594 572 l 258
 594 609 570 628 517 628 c 2
 515 628 l 258
 510 628 508 633 508 646 c 128
 508 659 510 666 515 666 c 256
 526 665 572 663 615 663 c 0
 651 663 686 665 694 666 c 256
 698 666 700 659 700 646 c 128
 700 633 698 628 694 628 c 256
 650 628 628 609 627 572 c 257
 627 2 l 258
 627 -6 624 -11 619 -11 c 256
 613 -11 606 -5 599 4 c 258
 175 538 l 258
 172 542 168 544 164 544 c 128
 160 544 159 541 159 536 c 258
 159 91 l 258
 159 53 185 34 237 34 c 256
 241 34 243 28 243 16 c 128
 243 4 241 -3 237 -3 c 256
 210 -1 178 0 140 0 c 128
 102 0 70 -1 43 -3 c 256
 38 -3 36 4 36 16 c 128
EndSplineSet
Validated: 1
EndChar

StartChar: O
Encoding: 79 79 14
Width: 721
VWidth: 0
Flags: HMW
AnchorPoint: "above" 356 675 basechar 0
AnchorPoint: "below" 367 -37 basechar 0
LayerCount: 2
Fore
SplineSet
45 326 m 256
 45 411 74 490 131 564 c 128
 188 638 265 675 362 675 c 256
 449 675 523 642 584 574 c 128
 645 506 676 423 676 324 c 256
 676 241 648 166 591 95 c 128
 534 24 457 -11 360 -11 c 256
 265 -11 190 22 132 89 c 128
 74 156 45 233 45 326 c 256
139 354 m 256
 139 253 163 175 212 115 c 128
 261 55 312 25 367 25 c 256
 436 25 490 54 527 110 c 128
 564 166 583 233 583 316 c 256
 583 407 559 483 512 546 c 128
 465 609 413 641 356 641 c 256
 287 641 234 611 196 552 c 128
 158 493 139 427 139 354 c 256
EndSplineSet
Validated: 1
EndChar

StartChar: P
Encoding: 80 80 15
Width: 557
VWidth: 0
Flags: HMW
AnchorPoint: "above" 280 675 basechar 0
AnchorPoint: "below" 155 -37 basechar 0
LayerCount: 2
Fore
SplineSet
30 648 m 128
 30 660 32 665 36 665 c 256
 74 664 96 663 132 663 c 128
 191 663 245 665 296 665 c 256
 362 665 417 648 461 616 c 128
 505 584 527 536 527 478 c 128
 527 354 423 290 294 290 c 256
 255 290 230 291 222 292 c 128
 214 293 208 294 206 294 c 128
 196 294 192 290 192 278 c 258
 192 91 l 258
 192 53 208 34 269 34 c 256
 273 34 276 24 276 14 c 0
 276 5 274 -3 269 -3 c 256
 244 -1 215 0 155 0 c 128
 95 0 66 -1 41 -3 c 256
 37 -3 35 3 35 15 c 128
 35 27 37 33 41 34 c 256
 99 34 114 53 114 91 c 258
 114 574 l 258
 114 611 97 630 36 630 c 256
 32 630 30 636 30 648 c 128
192 345 m 258
 192 321.929920519 226.902493949 320.992669437 255.569093503 320.992669437 c 0
 258.104320647 320.992669437 260.590774714 321 263 321 c 256
 383 321 443 374 443 480 c 256
 443 522 426 560 392 590 c 128
 358 620 314 635 259 635 c 258
 215 635 l 258
 200 635 192 630 192 620 c 258
 192 345 l 258
EndSplineSet
Validated: 1
EndChar

StartChar: Q
Encoding: 81 81 16
Width: 722
VWidth: 0
Flags: HMW
AnchorPoint: "below" 367 -138 basechar 0
AnchorPoint: "above" 359 675 basechar 0
LayerCount: 2
Fore
SplineSet
45 326 m 256
 46 413 74 492 132 565 c 128
 190 638 267 675 362 675 c 256
 453 675 528 640 587 571 c 128
 646 502 676 420 676 324 c 256
 676 261 659 201 624 142 c 128
 589 83 547 43 500 21 c 256
 495 18 492 14 492 10 c 128
 492 6 494 2 499 -1 c 256
 524 -20 564 -43 617 -69 c 128
 670 -95 712 -111 785 -130 c 256
 790 -131 792 -135 792 -140 c 128
 792 -151 791 -166 779 -166 c 257
 583 -120 428 -73 246 6 c 256
 189 31 142 70 103 126 c 128
 64 182 45 247 45 326 c 256
139 346 m 256
 139 253 164 177 212 116 c 128
 260 55 312 25 367 25 c 256
 440 25 495 54 530 113 c 128
 565 172 583 241 583 324 c 256
 583 409 560 482 514 546 c 128
 468 610 417 641 359 641 c 256
 212 641 139 505 139 346 c 256
EndSplineSet
Validated: 1
EndChar

StartChar: R
Encoding: 82 82 17
Width: 675
VWidth: 0
Flags: HMW
AnchorPoint: "below" 332 -37 basechar 0
AnchorPoint: "above" 285 675 basechar 0
LayerCount: 2
Fore
SplineSet
30 646 m 128
 30 658 32 665 37 665 c 256
 75 664 95 663 126 663 c 128
 177 663 250 665 297 665 c 256
 434 665 538 610 538 480 c 256
 538 390 494 334 407 311 c 256
 403 310 401 306 401 300 c 128
 401 294 414 269 440 228 c 128
 466 187 505 140 554 87 c 128
 603 34 636 8 666 8 c 256
 671 8 673 4 673 -2 c 128
 673 -8 671 -11 666 -11 c 258
 641 -11 l 258
 586 -11 543 -1 513 21 c 128
 483 43 456 70 432 100 c 128
 408 130 382 166 354 208 c 128
 326 250 307 276 298 282 c 128
 289 288 275 291 257 291 c 128
 231 291 222 293 205 293 c 128
 199 293 193 290 193 283 c 258
 193 91 l 258
 193 53 211 34 274 34 c 256
 278 34 281 24 281 14 c 0
 281 5 279 -3 274 -3 c 256
 249 -1 220 0 158 0 c 128
 96 0 62 -1 37 -3 c 256
 33 -3 31 3 31 15 c 128
 31 27 33 33 37 34 c 256
 96 34 115 53 115 91 c 258
 115 574 l 258
 115 610 98 628 37 628 c 256
 32 628 30 634 30 646 c 128
193 344 m 258
 193 322 226 321 255 321 c 0
 258 321 261 321 264 321 c 256
 390 321 453 374 453 480 c 256
 453 523 436 560 402 590 c 128
 368 620 321 635 260 635 c 258
 216 635 l 258
 201 635 193 630 193 620 c 258
 193 344 l 258
EndSplineSet
Validated: 1
EndChar

StartChar: S
Encoding: 83 83 18
Width: 492
VWidth: 0
Flags: HMW
AnchorPoint: "above" 238 675 basechar 0
AnchorPoint: "below" 253 -37 basechar 0
LayerCount: 2
Fore
SplineSet
59 180 m 0
 69 180 74 179 74 176 c 256
 76 134 95 104 129 72 c 0
 163 40 209 24 268 24 c 256
 335 24 384 82 385 148 c 256
 385 149 385 150 385 151 c 0
 385 226 339 273 250 293 c 256
 116 324 48 394 48 507 c 2
 48 512 l 257
 50 610 143 675 249 675 c 256
 285 675 317 672 347 665 c 0
 377 658 394 655 398 655 c 0
 402 655 405 655 406 656 c 257
 414 623 419 581 421 530 c 256
 421 520 407 518 398 518 c 0
 393 518 389 520 388 525 c 256
 375 597 327 643 235 643 c 256
 169 643 118 595 117 534 c 256
 117 533 117 532 117 531 c 0
 117 457 167 411 267 392 c 256
 391 367 453 302 453 195 c 2
 453 190 l 257
 451 72 371 -11 251 -11 c 256
 210 -11 179 -8 155 -1 c 0
 131 6 101 18 62 37 c 257
 48 86 40 121 40 157 c 0
 40 172 41 180 59 180 c 0
EndSplineSet
Validated: 1
EndChar

StartChar: T
Encoding: 84 84 19
Width: 651
VWidth: 0
Flags: HMW
AnchorPoint: "below" 323 -37 basechar 0
AnchorPoint: "above" 323 675 basechar 0
LayerCount: 2
Fore
SplineSet
20 507 m 258
 20 649 l 258
 20 660 33 665 58 665 c 256
 122 665 259 663 324 663 c 128
 394 663 524 665 593 665 c 256
 618 665 631 660 631 649 c 258
 631 507 l 258
 631 502 624 500 612 500 c 128
 600 500 594 502 594 507 c 256
 594 597 551 628 466 628 c 258
 387 628 l 258
 370 628 362 621 362 606 c 258
 362 91 l 258
 362 53 378 34 440 34 c 256
 445 34 447 26 447 17 c 0
 447 7 444 -3 440 -3 c 256
 410 -1 381 0 322 0 c 128
 263 0 233 -1 203 -3 c 256
 198 -3 196 4 196 16 c 128
 196 28 198 34 203 34 c 256
 267 34 284 53 284 91 c 258
 284 606 l 258
 284 621 276 628 261 628 c 258
 187 628 l 258
 101 628 57 597 57 507 c 256
 57 502 50 500 38 500 c 128
 26 500 20 502 20 507 c 258
EndSplineSet
Validated: 1
EndChar

StartChar: U
Encoding: 85 85 20
Width: 728
VWidth: 0
Flags: HMW
AnchorPoint: "above" 377 675 basechar 0
AnchorPoint: "below" 368 -37 basechar 0
LayerCount: 2
Fore
SplineSet
37 628 m 256
 33 628 30 638 30 648 c 0
 30 657 32 666 37 666 c 256
 48 665 90 663 162 663 c 0
 204 663 272 665 278 666 c 256
 282 666 284 655 284 645 c 0
 284 636 283 628 278 628 c 256
 211 628 191 610 191 572 c 258
 191 266 l 258
 191 168 209 103 243 72 c 128
 277 41 319 25 369 25 c 256
 505 25 563 96 563 240 c 258
 563 572 l 258
 563 610 539 628 478 628 c 256
 474 628 472 633 472 646 c 128
 472 659 474 666 478 666 c 256
 490 665 535 663 594 663 c 0
 632 663 689 665 697 666 c 256
 701 666 703 655 703 645 c 0
 703 636 702 628 697 628 c 256
 638 628 616 610 616 572 c 258
 616 358 l 258
 616 243 607 166 590 126 c 128
 554 41 481 -11 357 -11 c 256
 238 -11 166 26 135 111 c 128
 120 152 113 203 113 265 c 258
 113 572 l 258
 113 610 97 628 37 628 c 256
EndSplineSet
Validated: 1
EndChar

StartChar: V
Encoding: 86 86 21
Width: 644
VWidth: 0
Flags: HMW
AnchorPoint: "below" 310 -37 basechar 0
AnchorPoint: "above" 343 675 basechar 0
LayerCount: 2
Fore
SplineSet
10 646 m 128
 10 659 12 666 16 666 c 256
 28 665 82 663 138 663 c 0
 177 663 230 665 240 666 c 256
 244 666 246 659 246 646 c 128
 246 633 244 628 240 628 c 256
 193 628 172 616 172 592 c 256
 172 587 173 580 175 572 c 258
 324 143 l 258
 326 136 329 133 332 133 c 128
 335 133 338 137 341 144 c 258
 497 568 l 258
 500 579 502 586 502 590 c 256
 502 615 483 628 450 628 c 256
 445 628 443 633 443 646 c 128
 443 659 445 666 450 666 c 256
 463 665 508 663 554 663 c 0
 585 663 622 665 633 666 c 256
 638 666 640 657 640 648 c 0
 640 638 637 628 633 628 c 256
 583 628 561 614 550 586 c 258
 320 -6 l 258
 317 -14 312 -18 307 -19 c 256
 302 -19 295 -12 290 3 c 258
 90 572 l 258
 77 609 51 628 16 628 c 256
 12 628 10 633 10 646 c 128
EndSplineSet
Validated: 1
EndChar

StartChar: W
Encoding: 87 87 22
Width: 984
VWidth: 0
Flags: HMW
AnchorPoint: "above" 510 675 basechar 0
AnchorPoint: "below" 492 -37 basechar 0
LayerCount: 2
Fore
SplineSet
10 647 m 128
 10 660 12 666 16 666 c 256
 29 665 78 663 130 663 c 0
 169 663 214 665 225 666 c 256
 229 666 231 660 231 647 c 128
 231 634 229 628 225 628 c 256
 188 628 172 619 172 601 c 256
 172 593 174 583 179 572 c 258
 372 143 l 258
 378 130 385 130 390 144 c 257
 461 298 l 258
 464 304 465 311 465 318 c 128
 465 325 463 332 460 339 c 258
 356 572 l 258
 339 609 315 628 287 628 c 256
 283 628 280 638 280 648 c 0
 280 657 282 666 287 666 c 256
 299 665 348 663 398 663 c 0
 436 663 480 665 491 666 c 256
 495 666 497 660 497 647 c 128
 497 634 495 628 491 628 c 256
 454 628 438 619 438 602 c 256
 438 594 440 584 445 572 c 258
 502 446 l 258
 505 439 508 435 511 435 c 128
 514 435 517 439 521 447 c 258
 576 568 l 258
 581 580 584 590 584 599 c 256
 584 618 567 628 536 628 c 0
 535 628 534 628 533 628 c 256
 528 628 526 634 526 647 c 128
 526 660 528 666 533 666 c 256
 547 665 589 663 634 663 c 0
 666 663 701 665 711 666 c 256
 715 666 718 656 718 646 c 0
 718 637 716 628 711 628 c 256
 662 628 641 614 628 586 c 258
 543 397 l 258
 540 389 538 382 538 376 c 128
 538 370 539 364 541 359 c 258
 638 143 l 257
 645 131 651 129 656 144 c 257
 849 568 l 258
 854 580 857 590 857 598 c 256
 857 618 839 628 807 628 c 256
 803 628 801 634 801 647 c 128
 801 660 803 666 807 666 c 256
 822 665 861 663 903 663 c 0
 933 663 964 665 975 666 c 256
 980 666 982 660 982 647 c 128
 982 634 980 628 975 628 c 256
 933 628 915 614 902 586 c 258
 637 3 l 258
 632 -9 628 -15 624 -15 c 0
 620 -15 616 -9 611 3 c 258
 500 253 l 258
 497 258 495 261 492 261 c 128
 489 261 487 258 484 253 c 258
 371 3 l 258
 366 -8 362 -14 359 -14 c 128
 356 -14 351 -8 345 3 c 258
 90 572 l 258
 73 609 47 628 16 628 c 256
 12 628 10 634 10 647 c 128
EndSplineSet
Validated: 1
EndChar

StartChar: X
Encoding: 88 88 23
Width: 689
VWidth: 0
Flags: HMW
AnchorPoint: "below" 340 -37 basechar 0
AnchorPoint: "above" 375 675 basechar 0
LayerCount: 2
Fore
SplineSet
19 -3 m 256
 15 -3 12 7 12 17 c 0
 12 26 14 34 19 34 c 256
 72 34 101 48 122 76 c 258
 305 318 l 258
 308 321 309 325 309 328 c 128
 309 331 307 336 303 342 c 258
 145 576 l 258
 119 615 100 628 42 628 c 256
 38 628 36 634 36 647 c 128
 36 660 38 666 42 666 c 256
 54 665 107 663 178 663 c 0
 229 663 296 665 304 666 c 256
 309 666 311 660 311 647 c 128
 311 634 309 628 304 628 c 256
 259 628 239 619 239 601 c 256
 239 593 243 583 250 572 c 258
 353 412 l 258
 356 407 359 404 363 404 c 128
 367 404 371 407 375 412 c 258
 492 568 l 258
 505 584 511 597 511 606 c 256
 511 621 497 628 468 628 c 256
 463 628 461 637 461 646 c 0
 461 656 464 666 468 666 c 256
 480 665 523 663 571 663 c 0
 607 663 649 665 660 666 c 256
 664 666 666 656 666 646 c 0
 666 637 665 628 660 628 c 256
 622 628 597 621 579 608 c 128
 561 595 539 570 511 533 c 258
 394 380 l 258
 388 371 386 362 393 353 c 257
 562 91 l 258
 587 53 619 34 672 34 c 256
 676 34 678 28 678 16 c 128
 678 4 676 -3 672 -3 c 256
 647 -1 612 0 553 0 c 128
 494 0 453 -1 428 -3 c 256
 423 -3 421 5 421 14 c 0
 421 24 424 34 428 34 c 256
 465 34 484 43 484 60 c 256
 484 69 479 80 470 93 c 258
 341 285 l 258
 338 290 334 293 331 293 c 128
 328 293 324 290 320 285 c 258
 221 147 l 258
 190 104 174 75 174 58 c 0
 174 42 194 34 233 34 c 256
 238 34 240 28 240 16 c 128
 240 4 238 -3 233 -3 c 256
 209 -1 173 0 125 0 c 128
 77 0 47 -1 19 -3 c 256
EndSplineSet
Validated: 1
EndChar

StartChar: Y
Encoding: 89 89 24
Width: 658
VWidth: 0
Flags: HMW
AnchorPoint: "below" 316 -37 basechar 0
AnchorPoint: "above" 340 675 basechar 0
LayerCount: 2
Fore
SplineSet
15 628 m 256
 11 628 8 638 8 648 c 0
 8 657 10 666 15 666 c 256
 27 665 79 663 137 663 c 0
 177 663 233 665 243 666 c 256
 247 666 249 659 249 646 c 128
 249 633 247 628 243 628 c 256
 204 628 186 618 186 600 c 256
 186 593 189 584 196 572 c 258
 333 342 l 258
 336 337 338 335 341 335 c 128
 344 335 346 337 349 342 c 258
 495 568 l 258
 504 582 508 593 508 602 c 256
 508 619 492 628 459 628 c 0
 458 628 457 628 456 628 c 256
 451 628 449 633 449 646 c 128
 449 659 451 666 456 666 c 256
 467 665 515 664 562 664 c 0
 601 664 635 665 644 666 c 256
 648 666 650 655 650 645 c 0
 650 636 649 628 644 628 c 256
 599 628 566 609 543 574 c 258
 393 344 l 258
 372 311 360 290 358 281 c 128
 356 272 355 258 355 239 c 258
 355 91 l 258
 355 53 380 34 434 34 c 256
 438 34 440 28 440 16 c 128
 440 4 438 -3 434 -3 c 256
 409 -1 371 0 316 0 c 128
 261 0 224 -1 199 -3 c 256
 195 -3 193 4 193 16 c 128
 193 28 195 34 199 34 c 256
 252 34 277 53 277 91 c 258
 277 238 l 258
 277 271 273 295 264 310 c 258
 104 572 l 258
 81 609 53 628 15 628 c 256
EndSplineSet
Validated: 1
EndChar

StartChar: Z
Encoding: 90 90 25
Width: 618
VWidth: 0
Flags: HMW
AnchorPoint: "below" 314 -37 basechar 0
AnchorPoint: "above" 318 675 basechar 0
LayerCount: 2
Fore
SplineSet
30 12 m 256
 30 16 31 21 34 25 c 258
 451 609 l 258
 454 613 455 616 455 619 c 256
 455 626 450 629 440 629 c 258
 177 629 l 258
 160 629 142 620 127 600 c 0
 112 580 105 569 97 549 c 0
 89 529 86 515 79 493 c 256
 78 491 75 490 68 490 c 0
 61 490 57 492 56 496 c 257
 62 567 67 610 67 659 c 256
 67 665 73 668 85 668 c 257
 116 665 139 664 155 663 c 257
 389 663 l 258
 438 663 497 664 567 667 c 256
 575 667 579 665 579 660 c 0
 579 655 577 650 572 645 c 257
 153 58 l 258
 150 54 150 50 150 46 c 256
 150 38 154 34 163 34 c 256
 300 34 403 38 468 42 c 256
 493 43 515 61 534 99 c 0
 553 137 560 151 563 160 c 256
 564 162 566 163 569 163 c 0
 575 163 588 158 588 152 c 256
 573 75 568 34 568 -4 c 256
 568 -8 566 -10 561 -11 c 257
 550 -8 542 -7 535 -6 c 256
 486 0 405 0 292 0 c 0
 210 0 129 0 47 0 c 256
 36 0 30 4 30 12 c 256
EndSplineSet
Validated: 1
EndChar

StartChar: a
Encoding: 97 97 26
Width: 400
VWidth: 0
Flags: HMW
AnchorPoint: "below" 202 -37 basechar 0
AnchorPoint: "above" 192 445 basechar 0
LayerCount: 2
Fore
SplineSet
179 38 m 256
 205 38 244 72 244 97 c 258
 244 202 l 258
 244 209 241 213 236 213 c 256
 234 213 224 209 206 200 c 256
 147 172 118 136 118 92 c 256
 118 58 142 38 179 38 c 256
216 425 m 256
 259 425 319 398 319 357 c 258
 319 97 l 258
 319 60 328 36 351 36 c 256
 357 36 360 37 378 50 c 256
 379 51 382 51 383 51 c 256
 386 51 402 39 398 34 c 256
 373 3 365 -11 321 -11 c 256
 287 -11 264 11 252 55 c 257
 226 30 206 14 191 4 c 0
 176 -6 154 -11 125 -11 c 256
 73 -11 43 30 43 79 c 256
 43 127 82 162 114 178 c 258
 233 241 l 258
 240 244 244 250 244 257 c 258
 244 345 l 258
 244 374 222 388 176 388 c 256
 143 388 123 379 110 364 c 256
 109 362 101 347 99 318 c 256
 97 286 84 272 65 272 c 256
 47 272 40 282 40 300 c 0
 40 318 44 334 58 352 c 0
 72 370 83 383 93 388 c 256
 135 413 176 425 216 425 c 256
EndSplineSet
Validated: 1
EndChar

StartChar: b
Encoding: 98 98 27
Width: 487
VWidth: 0
Flags: HMW
AnchorPoint: "above" 257 718 basechar 0
AnchorPoint: "below" 250 -37 basechar 0
LayerCount: 2
Fore
SplineSet
94 -12 m 128
 86 -12 68 -2 68 0 c 256
 69 20 70 62 70 127 c 258
 70 575 l 258
 70 618 58 640 28 640 c 256
 23 640 20 645 20 654 c 128
 20 663 23 667 28 667 c 256
 42 667 119 710 126 716 c 128
 133 722 138 725 142 725 c 128
 146 725 147 721 148 713 c 257
 145 652 l 257
 145 408 l 258
 145 399 147 395 151 395 c 256
 154 395 157 396 161 398 c 256
 192 416 220 425 247 425 c 256
 304 425 352 403 390 360 c 128
 428 317 447 267 447 210 c 256
 447 78 376 -11 249 -11 c 256
 230 -11 204 -4 173 11 c 256
 165 14 155 16 144 16 c 128
 133 16 118 7 98 -11 c 256
 97 -12 96 -12 94 -12 c 128
265 18 m 256
 338 18 362 122 362 202 c 256
 362 292 314 386 228 386 c 256
 200 386 176 378 156 362 c 256
 149 356 145 341 145 316 c 258
 145 147 l 258
 145 120 157 92 182 62 c 128
 207 32 234 18 265 18 c 256
EndSplineSet
Validated: 1
EndChar

StartChar: c
Encoding: 99 99 28
Width: 414
VWidth: 0
Flags: HMW
AnchorPoint: "below" 233 -37 basechar 0
AnchorPoint: "above" 228 445 basechar 0
LayerCount: 2
Fore
SplineSet
370 369 m 256
 370 358 351 333 340 333 c 128
 334 333 330 335 327 340 c 256
 302 375 274 392 243 392 c 256
 212 392 184 375 158 342 c 128
 132 309 120 266 120 215 c 256
 120 164 135 122 164 91 c 128
 193 60 224 44 257 44 c 256
 282 44 317 54 361 74 c 256
 368 77 379 58 379 53 c 256
 379 51 378 49 377 47 c 256
 368 40 350 28 324 12 c 128
 298 -4 262 -11 216 -11 c 256
 169 -11 127 8 92 46 c 128
 57 84 40 133 40 193 c 256
 40 253 60 307 100 354 c 128
 140 401 190 425 253 425 c 256
 317 425 355 413 367 389 c 256
 369 385 370 378 370 369 c 256
EndSplineSet
Validated: 1
EndChar

StartChar: d
Encoding: 100 100 29
Width: 494
VWidth: 0
Flags: HMW
AnchorPoint: "above" 260 718 basechar 0
AnchorPoint: "below" 255 -37 basechar 0
LayerCount: 2
Fore
SplineSet
476 42 m 128
 481 42 482 25 482 19 c 128
 482 16 482 14 480 14 c 128
 478 14 477 14 462 11 c 128
 449 9 361 -10 352 -16 c 257
 347 -16 344 -8 344 8 c 258
 344 28 l 258
 344 35 342 39 338 39 c 128
 334 39 330 37 325 32 c 256
 294 3 262 -11 229 -11 c 256
 165 -11 117 9 86 49 c 128
 55 89 40 140 40 201 c 256
 40 262 61 315 104 359 c 128
 147 403 203 425 272 425 c 256
 295 425 313 423 328 418 c 256
 332 417 335 416 337 416 c 256
 342 416 344 420 344 428 c 258
 344 572 l 258
 344 617 332 640 302 640 c 256
 297 640 294 645 294 654 c 128
 294 663 297 667 302 667 c 256
 321 667 384 706 396 714 c 128
 406 721 414 725 417 725 c 128
 420 725 422 724 422 720 c 128
 422 705 419 659 419 641 c 258
 419 113 l 258
 419 64 432 40 459 40 c 256
 463 40 473 42 476 42 c 128
254 36 m 256
 294 36 344 62 344 97 c 258
 344 326 l 258
 344 351 340 366 333 372 c 256
 314 388 290 396 261 396 c 256
 218 396 183 378 158 342 c 128
 133 306 120 263 120 215 c 256
 120 167 133 126 160 90 c 128
 187 54 219 36 254 36 c 256
EndSplineSet
Validated: 1
EndChar

StartChar: e
Encoding: 101 101 30
Width: 419
VWidth: 0
Flags: HMW
AnchorPoint: "below" 225 -37 basechar 0
AnchorPoint: "above" 222 445 basechar 0
LayerCount: 2
Fore
SplineSet
262 46 m 256
 298 46 334 59 370 77 c 256
 378 77 384 70 384 61 c 256
 384 60 383 58 382 57 c 256
 329 12 277 -11 225 -11 c 256
 173 -11 130 11 94 56 c 0
 58 101 40 152 40 210 c 256
 40 268 59 318 97 361 c 0
 135 404 178 425 226 425 c 256
 274 425 310 409 339 377 c 0
 368 345 384 309 384 289 c 0
 384 269 374 259 357 258 c 257
 130 258 l 258
 120 258 114 247 114 226 c 256
 114 134 168 46 262 46 c 256
126 300 m 256
 126 295 130 293 139 293 c 258
 307 293 l 258
 312 293 314 296 314 301 c 256
 314 315 304 341 285 363 c 0
 266 385 247 396 226 396 c 256
 170 396 140 353 127 307 c 256
 126 304 126 302 126 300 c 256
EndSplineSet
Validated: 1
EndChar

StartChar: f
Encoding: 102 102 31
Width: 315
VWidth: 0
Flags: HMW
AnchorPoint: "above" 201 712 basechar 0
AnchorPoint: "below" 135 -37 basechar 0
LayerCount: 2
Fore
SplineSet
395 661 m 256
 395 641 373 620 353 620 c 256
 335 620 319 628 304 646 c 128
 289 664 272 673 255 673 c 256
 220 673 206 660 188 632 c 128
 170 604 167 571 167 532 c 258
 167 431 l 258
 167 419 173 413 185 413 c 258
 275 413 l 258
 280 413 282 408 282 394 c 128
 282 380 280 374 275 374 c 258
 185 374 l 258
 173 374 167 368 167 356 c 258
 167 62 l 258
 167 37 184 24 232 24 c 256
 237 24 239 19 239 10 c 128
 239 1 237 -4 232 -4 c 256
 204 -1 177 0 136 0 c 128
 95 0 69 -1 42 -4 c 256
 37 -4 35 1 35 10 c 128
 35 19 37 24 42 24 c 256
 80 24 92 37 92 62 c 258
 92 356 l 258
 92 368 86 374 74 374 c 258
 45 374 l 258
 40 374 38 379 38 388 c 128
 38 397 40 401 45 401 c 256
 81 401 92 414 92 442 c 256
 92 523.616804271 107.748046875 591.720703125 154 643 c 128
 200 694 243 719 304 719 c 256
 351 719 395 706 395 661 c 256
EndSplineSet
Validated: 1
EndChar

StartChar: g
Encoding: 103 103 32
Width: 492
VWidth: 0
Flags: HMW
AnchorPoint: "below" 252 -275 basechar 0
AnchorPoint: "above" 223 445 basechar 0
LayerCount: 2
Fore
SplineSet
217 -275 m 256
 121 -275 35 -236 35 -150 c 256
 35 -117 65 -79 126 -36 c 256
 131 -31 134 -28 134 -25 c 256
 133 -22 130 -19 124 -18 c 256
 80 -5 58 19 58 54 c 256
 58 72 88 103 124 125 c 128
 128 128 131 131 131 135 c 128
 131 139 129 143 124 146 c 256
 77 176 53 215 53 263 c 256
 53 310 69 350 102 380 c 128
 135 410 172 425 213 425 c 256
 254 425 290 419 318 406 c 128
 346 393 368 387 385 387 c 258
 460 387 l 258
 465 387 467 381 467 367 c 128
 467 353 465 348 460 348 c 258
 384 348 l 257
 385 336 390 315 390 292 c 256
 390 192 319 127 216 127 c 256
 205 127 193 128 179 129 c 256
 172 129 165 127 158 122 c 256
 135 107 124 91 124 73 c 256
 124 47 148 34 197 34 c 258
 321 34 l 258
 418 34 466 -6 466 -80 c 256
 466 -135 440 -181 388 -219 c 128
 336 -257 280 -275 217 -275 c 256
252 -232 m 256
 328 -232 406 -192 406 -121 c 256
 406 -60 366 -27 287 -27 c 258
 197 -27 l 258
 186 -27 176 -30 167 -36 c 256
 131 -62 113 -94 113 -126 c 256
 113 -199 173 -232 252 -232 c 256
218 396 m 256
 164 396 128 337 128 278 c 256
 128 243 138 213 160 190 c 128
 182 167 206 156 231 156 c 256
 286 156 314 192 314 265 c 256
 314 321 300 360 272 381 c 256
 259 391 241 396 218 396 c 256
EndSplineSet
Validated: 1
EndChar

StartChar: h
Encoding: 104 104 33
Width: 508
VWidth: 0
Flags: HMW
AnchorPoint: "below" 253 -37 basechar 0
AnchorPoint: "above" 257 718 basechar 0
LayerCount: 2
Fore
SplineSet
157 720 m 128
 157 701 154 661 154 636 c 258
 154 386 l 258
 154 378 157 374 162 374 c 256
 165 374 167 375 170 378 c 256
 199 409 239 425 288 425 c 256
 335 425 371 408 395 374 c 128
 419 340 431 304 431 268 c 258
 431 62 l 258
 431 37 445 24 486 24 c 256
 491 24 493 19 493 10 c 128
 493 1 491 -4 486 -4 c 256
 459 -1 434 0 396 0 c 128
 358 0 333 -1 308 -4 c 256
 303 -4 301 1 301 10 c 128
 301 19 303 24 308 24 c 256
 345 24 356 37 356 62 c 258
 356 267 l 258
 356 326 314 381 257 381 c 256
 230 381 206 373 185 356 c 128
 164 339 154 323 154 307 c 258
 154 62 l 258
 154 37 165 24 201 24 c 256
 206 24 208 19 208 10 c 128
 208 1 206 -4 201 -4 c 256
 167 -1 141 0 108 0 c 128
 75 0 53 -1 27 -4 c 256
 22 -4 20 1 20 10 c 128
 20 19 22 24 27 24 c 256
 66 24 79 37 79 62 c 258
 79 572 l 258
 79 617 67 640 37 640 c 256
 32 640 29 645 29 654 c 128
 29 663 32 667 37 667 c 256
 60 667 116 701 129 712 c 256
 140 721 147 725 151 725 c 128
 155 725 157 723 157 720 c 128
EndSplineSet
Validated: 1
EndChar

StartChar: i
Encoding: 105 105 34
Width: 240
VWidth: 0
Flags: HMW
AnchorPoint: "above" 117 616 basechar 0
AnchorPoint: "below" 129 -37 basechar 0
LayerCount: 2
Fore
SplineSet
213 -4 m 256
 188 -1 165 0 129 0 c 128
 93 0 69 -1 42 -4 c 256
 37 -4 35 1 35 10 c 128
 35 19 37 24 42 24 c 256
 79 24 90 37 90 62 c 258
 90 279 l 258
 90 324 78 346 48 346 c 256
 43 346 40 351 40 360 c 128
 40 369 43 374 48 374 c 256
 70 374 126 409 140 419 c 128
 151 427 159 431 162 431 c 256
 166 431 168 428 168 423 c 256
 166 388 165 361 165 342 c 258
 165 62 l 258
 165 37 176 24 213 24 c 256
 218 24 220 19 220 10 c 128
 220 1 218 -4 213 -4 c 256
65 555 m 128
 65 584 88 607 117 607 c 128
 146 607 170 584 170 555 c 128
 170 526 146 502 117 502 c 128
 88 502 65 526 65 555 c 128
EndSplineSet
Validated: 1
EndChar

StartChar: j
Encoding: 106 106 35
Width: 238
VWidth: 0
Flags: HMW
AnchorPoint: "below" 117 -275 basechar 0
AnchorPoint: "above" 117 616 basechar 0
LayerCount: 2
Fore
SplineSet
168 555 m 128
 168 526 144 502 115 502 c 128
 86 502 63 526 63 555 c 128
 63 584 86 607 115 607 c 128
 144 607 168 584 168 555 c 128
-64 -228 m 256
 -64 -208 -46 -194 -26 -194 c 256
 -10 -194 1 -200 14 -213 c 128
 27 -226 38 -232 46 -232 c 256
 78 -232 90 -197 90 -128 c 258
 90 279 l 258
 90 324 78 346 48 346 c 256
 43 346 40 351 40 360 c 128
 40 369 43 374 48 374 c 256
 70 374 126 409 140 419 c 128
 151 427 159 431 162 431 c 256
 166 431 168 428 168 423 c 256
 166 388 165 361 165 342 c 258
 165 29 l 258
 165 -78 147 -161 111 -211 c 256
 81 -254 56 -275 5 -275 c 256
 -27 -275 -64 -260 -64 -228 c 256
EndSplineSet
Validated: 1
EndChar

StartChar: k
Encoding: 107 107 36
Width: 485
VWidth: 0
Flags: HMW
AnchorPoint: "above" 266 718 basechar 0
AnchorPoint: "below" 244 -37 basechar 0
LayerCount: 2
Fore
SplineSet
156 721 m 128
 156 701 153 662 153 636 c 258
 153 255 l 258
 153 241 161 234 176 234 c 128
 191 234 201 238 208 245 c 258
 304 353 l 258
 313 362 317 373 317 379 c 256
 317 390 304 395 273 395 c 256
 268 395 266 399 266 408 c 128
 266 417 268 421 273 421 c 256
 303 419 331 418 363 418 c 128
 395 418 416 419 441 421 c 256
 446 421 448 417 448 408 c 128
 448 399 446 395 441 395 c 256
 406 395 391 384 368 362 c 258
 264 259 l 258
 258 253 255 247 255 242 c 128
 255 237 258 231 263 225 c 258
 420 46 l 258
 433 31 447 24 476 24 c 256
 481 24 483 19 483 10 c 128
 483 1 481 -4 476 -4 c 256
 445 -1 419 0 384 0 c 128
 349 0 319 -1 288 -4 c 256
 283 -4 281 1 281 10 c 128
 281 19 283 24 288 24 c 256
 315 24 326 29 326 38 c 256
 326 42 321 50 311 62 c 258
 203 186 l 258
 195 195 183 201 169 201 c 128
 157 201 153 194 153 180 c 258
 153 62 l 258
 153 37 165 24 204 24 c 256
 209 24 211 19 211 10 c 128
 211 1 209 -4 204 -4 c 256
 170 -1 145 0 114 0 c 128
 83 0 57 -1 26 -4 c 256
 22 -4 20 1 20 10 c 128
 20 19 22 24 26 24 c 256
 63 24 78 37 78 62 c 258
 78 573 l 258
 78 618 66 640 36 640 c 256
 31 640 28 645 28 654 c 128
 28 663 31 667 36 667 c 256
 58 667 114 703 128 713 c 128
 139 721 147 725 150 725 c 256
 154 725 156 724 156 721 c 128
EndSplineSet
Validated: 1
EndChar

StartChar: l
Encoding: 108 108 37
Width: 240
VWidth: 0
Flags: HMW
AnchorPoint: "above" 125 718 basechar 0
AnchorPoint: "below" 126 -37 basechar 0
LayerCount: 2
Fore
SplineSet
162 62 m 258
 162 37 174 24 213 24 c 256
 218 24 220 19 220 10 c 128
 220 1 218 -4 213 -4 c 256
 188 -1 164 0 126 0 c 128
 88 0 63 -1 37 -4 c 256
 32 -4 30 1 30 10 c 128
 30 19 32 24 37 24 c 256
 75 24 87 37 87 62 c 258
 87 572 l 258
 87 617 75 640 45 640 c 256
 40 640 37 645 37 654 c 128
 37 663 40 667 45 667 c 256
 60 667 84 679 123 703 c 256
 134 710 143 715 148 719 c 128
 153 723 157 725 160 725 c 128
 163 725 165 723 165 718 c 256
 163 699 162 683 162 670 c 258
 162 62 l 258
EndSplineSet
Validated: 1
EndChar

StartChar: m
Encoding: 109 109 38
Width: 751
VWidth: 0
Flags: HMW
AnchorPoint: "above" 378 445 basechar 0
AnchorPoint: "below" 378 -37 basechar 0
LayerCount: 2
Fore
SplineSet
508 381 m 256
 441 381 415 307 415 233 c 258
 415 62 l 258
 415 37 427 24 464 24 c 256
 469 24 471 19 471 10 c 128
 471 1 469 -4 464 -4 c 256
 438 -1 415 0 379 0 c 128
 343 0 316 -1 291 -4 c 256
 286 -4 284 1 284 10 c 128
 284 19 286 24 291 24 c 256
 326 24 340 36 340 60 c 2
 340 260 l 258
 340 308 335 352 309 370 c 128
 298 377 281 381 257 381 c 256
 226 381 206 366 187 352 c 128
 169 339 151 317 151 288 c 258
 151 62 l 258
 151 37 165 24 200 24 c 256
 205 24 207 18 207 11 c 0
 207 4 204 -4 200 -4 c 256
 175 -1 148 0 111 0 c 128
 74 0 53 -1 27 -4 c 256
 22 -4 20 1 20 10 c 128
 20 19 22 24 27 24 c 256
 66 24 76 37 76 62 c 258
 76 282 l 258
 76 323 62 343 35 343 c 256
 30 343 27 347 27 356 c 128
 27 365 30 370 35 370 c 256
 56 370 107 408 121 418 c 128
 133 427 141 431 145 431 c 256
 151 431 153 424 153 415 c 0
 153 403 150 386 150 378 c 128
 150 370 152 367 156 367 c 256
 159 367 162 368 165 371 c 256
 199 407 240 425 288 425 c 256
 331 425 366 405 393 365 c 256
 396 360 400 357 403 357 c 128
 406 357 409 359 412 364 c 256
 449 405 493 425 546 425 c 256
 586 425 616 414 635 392 c 128
 668 354 680 334 680 276 c 258
 680 62 l 258
 680 37 692 24 729 24 c 256
 734 24 736 19 736 10 c 128
 736 1 734 -4 729 -4 c 256
 704 -1 679 0 643 0 c 128
 607 0 582 -1 557 -4 c 256
 552 -4 550 1 550 10 c 128
 550 19 552 24 557 24 c 256
 593 24 605 37 605 62 c 258
 605 283 l 258
 605 352 572 381 508 381 c 256
EndSplineSet
Validated: 1
EndChar

StartChar: n
Encoding: 110 110 39
Width: 487
VWidth: 0
Flags: HMW
AnchorPoint: "above" 246 445 basechar 0
AnchorPoint: "below" 248 -37 basechar 0
LayerCount: 2
Fore
SplineSet
152 424 m 128
 152 413 150 391 150 380 c 128
 150 373 153 370 158 370 c 256
 161 370 163 371 165 373 c 256
 200 408 242 425 291 425 c 256
 339 425 375 401 399 353 c 256
 410 332 416 291 416 232 c 258
 416 62 l 258
 416 37 428 24 465 24 c 256
 470 24 472 18 472 11 c 0
 472 4 469 -4 465 -4 c 256
 440 -1 416 0 380 0 c 128
 344 0 320 -1 293 -4 c 256
 288 -4 286 1 286 10 c 128
 286 19 288 24 293 24 c 256
 329 24 341 37 341 62 c 258
 341 259 l 258
 341 305 336 350 312 369 c 128
 302 377 283 381 258 381 c 256
 227 381 208 366 189 352 c 128
 171 339 151 318 151 288 c 258
 151 62 l 258
 151 37 166 24 201 24 c 256
 206 24 208 19 208 10 c 128
 208 1 206 -4 201 -4 c 256
 176 -1 148 0 112 0 c 128
 76 0 52 -1 27 -4 c 256
 22 -4 20 1 20 10 c 128
 20 19 22 24 27 24 c 256
 64 24 76 37 76 62 c 258
 76 280 l 258
 76 321 62 342 35 343 c 256
 30 343 27 347 27 356 c 128
 27 365 30 370 35 370 c 256
 65 370 102 399 120 415 c 128
 132 426 140 431 145 431 c 256
 150 431 152 429 152 424 c 128
EndSplineSet
Validated: 1
EndChar

StartChar: o
Encoding: 111 111 40
Width: 480
VWidth: 0
Flags: HMW
AnchorPoint: "above" 236 445 basechar 0
AnchorPoint: "below" 240 -37 basechar 0
LayerCount: 2
Fore
SplineSet
35 209 m 256
 35 264 55 313 96 358 c 128
 137 403 185 425 242 425 c 256
 299 425 347 403 386 358 c 128
 425 313 445 262 445 205 c 256
 445 148 427 97 391 54 c 128
 355 11 307 -11 246 -11 c 256
 185 -11 135 12 95 58 c 128
 55 104 35 154 35 209 c 256
115 206 m 256
 115 148 129 103 155 70 c 128
 181 37 209 21 240 21 c 256
 271 21 301 37 327 70 c 128
 353 103 366 149 366 206 c 256
 366 263 353 309 327 344 c 128
 301 379 272 396 241 396 c 256
 210 396 181 378 155 344 c 128
 129 310 115 264 115 206 c 256
EndSplineSet
Validated: 1
EndChar

StartChar: p
Encoding: 112 112 41
Width: 492
VWidth: 0
Flags: HMW
AnchorPoint: "below" 120 -275 basechar 0
AnchorPoint: "above" 245 445 basechar 0
LayerCount: 2
Fore
SplineSet
153 424 m 128
 153 416 151 390 151 382 c 128
 151 377 153 375 158 375 c 256
 161 375 164 376 167 379 c 256
 194 410 225 425 259 425 c 256
 336 425 400 366 428 316 c 128
 444 288 452 251 452 204 c 256
 452 76 377 -11 250 -11 c 256
 214 -11 190 -9 180 -6 c 128
 170 -3 164 -1 163 -1 c 256
 154 -1 151 -6 151 -17 c 258
 151 -203 l 258
 151 -231 168 -245 217 -245 c 256
 222 -245 224 -250 224 -259 c 128
 224 -268 222 -273 217 -273 c 256
 189 -270 161 -269 120 -269 c 128
 79 -269 53 -270 27 -273 c 256
 22 -273 20 -268 20 -259 c 128
 20 -250 22 -245 27 -245 c 256
 64 -245 76 -231 76 -204 c 258
 76 284 l 258
 76 324 63 344 37 344 c 2
 34 344 l 258
 29 344 26 349 26 358 c 128
 26 367 29 371 34 371 c 256
 53 371 117 411 126 420 c 128
 133 427 140 431 145 431 c 128
 150 431 153 428 153 424 c 128
367 205 m 256
 367 325 324 385 239 385 c 256
 212 385 185 369 160 336 c 256
 154 328 151 315 151 296 c 2
 151 100 l 258
 151 47 182 20 243 20 c 256
 288 20 320 38 339 74 c 128
 358 110 367 154 367 205 c 256
EndSplineSet
Validated: 1
EndChar

StartChar: q
Encoding: 113 113 42
Width: 485
VWidth: 0
Flags: HMW
AnchorPoint: "above" 253 445 basechar 0
AnchorPoint: "below" 382 -275 basechar 0
LayerCount: 2
Fore
SplineSet
222 -11 m 256
 102 -11 40 78 40 203 c 256
 40 272 60 327 100 366 c 128
 140 405 182 425 229 425 c 256
 276 425 318 415 355 396 c 257
 412 423 l 257
 425 423 431 416 431 401 c 257
 422 392 419 344 419 255 c 258
 419 -204 l 258
 419 -231 434 -245 477 -245 c 256
 482 -245 484 -251 484 -258 c 0
 484 -265 481 -273 477 -273 c 256
 450 -270 423 -269 382 -269 c 128
 341 -269 313 -270 286 -273 c 256
 281 -273 279 -268 279 -259 c 128
 279 -250 281 -245 286 -245 c 256
 329 -245 344 -231 344 -203 c 258
 344 -18 l 258
 344 -6 341 0 335 0 c 257
 314 -7 277 -11 222 -11 c 256
120 212 m 256
 120 121 153 20 239 20 c 256
 309 20 344 47 344 100 c 258
 344 304 l 258
 344 316 342 326 337 333 c 256
 316 368 291 385 263 385 c 256
 168 385 120 327 120 212 c 256
EndSplineSet
Validated: 1
EndChar

StartChar: r
Encoding: 114 114 43
Width: 343
VWidth: 0
Flags: HMW
AnchorPoint: "below" 120 -37 basechar 0
AnchorPoint: "above" 182 445 basechar 0
LayerCount: 2
Fore
SplineSet
221 351 m 256
 172 351 151 296 151 241 c 258
 151 62 l 258
 151 37 161 24 210 24 c 256
 215 24 217 19 217 10 c 128
 217 1 215 -4 210 -4 c 256
 183 -1 163 0 122 0 c 128
 81 0 54 -1 27 -4 c 256
 22 -4 20 1 20 10 c 128
 20 19 22 24 27 24 c 256
 64 24 76 37 76 62 c 258
 76 288 l 258
 76 325 62 343 35 343 c 256
 30 343 27 347 27 356 c 128
 27 365 30 370 35 370 c 256
 48 370 65 378 88 394 c 128
 111 410 126 419 131 424 c 128
 136 429 141 431 144 431 c 256
 149 431 152 427 153 419 c 257
 152 403 151 388 151 375 c 128
 151 362 154 355 158 355 c 128
 162 355 166 358 171 365 c 256
 200 405 234 425 275 425 c 256
 298 425 309 417 320 403 c 128
 326 396 328 385 328 370 c 256
 328 350 309 327 288 327 c 128
 276 327 234 351 221 351 c 256
EndSplineSet
Validated: 1
EndChar

StartChar: s
Encoding: 115 115 44
Width: 360
VWidth: 0
Flags: HMW
AnchorPoint: "above" 186 445 basechar 0
AnchorPoint: "below" 176 -37 basechar 0
LayerCount: 2
Fore
SplineSet
187 395 m 256
 138 395 99 372 99 327 c 256
 99 308 104 292 116 281 c 0
 128 270 157 258 203 246 c 0
 248 234 279 218 297 199 c 0
 315 180 325 153 325 120 c 256
 325 36 254 -11 167 -11 c 256
 114 -11 78 -2 50 17 c 257
 43 38 40 63 40 98 c 258
 40 120 l 258
 40 125 44 127 52 127 c 0
 60 127 64 125 64 120 c 256
 65 107 67 89 88 61 c 0
 109 33 143 19 184 19 c 256
 227 19 267 46 267 89 c 256
 267 112 260 130 245 144 c 0
 230 158 203 170 165 180 c 0
 101 197 43 233 43 306 c 256
 43 378 115 425 194 425 c 256
 238 425 270 419 296 407 c 257
 306 380 309 346 309 327 c 258
 309 322 l 258
 309 317 305 315 298 315 c 0
 291 315 285.47265625 316.922851562 285 322 c 256
 281 365 234 395 187 395 c 256
EndSplineSet
Validated: 1
EndChar

StartChar: t
Encoding: 116 116 45
Width: 302
VWidth: 0
Flags: HMW
AnchorPoint: "below" 178 -37 basechar 0
AnchorPoint: "above" 135 521 basechar 0
LayerCount: 2
Fore
SplineSet
188 -11 m 256
 106 -11 75 22 75 104 c 258
 75 355 l 258
 75 368 69 374 56 374 c 258
 27 374 l 258
 22 374 20 380 20 388 c 128
 20 396 22 401 27 401 c 256
 42 401 50 405 66 416 c 128
 93 436 115 457 128 487 c 256
 129 490 132 491 135 491 c 128
 141 491 150 488 150 482 c 258
 150 434 l 258
 150 420 157 413 170 413 c 258
 275 413 l 258
 280 413 282 407 282 392 c 128
 282 377 280 374 275 374 c 258
 170 374 l 258
 157 374 150 368 150 355 c 258
 150 155 l 258
 150 82 164 36 229 36 c 256
 246 36 263 42 282 55 c 256
 284 56 286 57 288 57 c 128
 291 57 296 46 296 43 c 128
 296 41 296 39 295 38 c 256
 268 5 232 -11 188 -11 c 256
EndSplineSet
Validated: 1
EndChar

StartChar: u
Encoding: 117 117 46
Width: 492
VWidth: 0
Flags: HMW
AnchorPoint: "below" 264 -37 basechar 0
AnchorPoint: "above" 238 445 basechar 0
LayerCount: 2
Fore
SplineSet
28 413 m 256
 74 413 109 421 144 421 c 128
 150 421 154 419 154 414 c 256
 151 374 150 349 150 339 c 258
 150 163 l 258
 150 99 168 36 228 36 c 256
 281 36 338 72 338 123 c 258
 338 314 l 258
 338 362 326 385 290 385 c 256
 285 385 283 390 283 399 c 128
 283 408 285 413 290 413 c 256
 330 413 350 415 369 418 c 128
 388 421 402 421 406 421 c 256
 413 421 417 417 416 408 c 256
 414 380 413 357 413 340 c 258
 413 111 l 258
 413 83 417 64 424 54 c 128
 431 44 440 40 446 40 c 128
 454 40 463 42 469 42 c 128
 476 42 477 28 477 21 c 256
 477 16 477 14 474 14 c 256
 460 13 357 -9 347 -16 c 257
 345 -16 l 258
 340 -16 337 -9 338 6 c 257
 338 28 l 258
 338 36 336 40 332 40 c 128
 328 40 324 37 319 32 c 256
 288 3 250 -11 204 -11 c 256
 170 -11 140 6 114 40 c 128
 88 74 75 110 75 147 c 258
 75 314 l 258
 75 362 64 385 28 385 c 256
 23 385 20 393 20 400 c 0
 20 407 23 413 28 413 c 256
EndSplineSet
Validated: 1
EndChar

StartChar: v
Encoding: 118 118 47
Width: 434
VWidth: 0
Flags: HMW
AnchorPoint: "below" 219 -37 basechar 0
AnchorPoint: "above" 230 445 basechar 0
LayerCount: 2
Fore
SplineSet
63 360 m 258
 54 383 37 395 13 395 c 256
 8 395 6 399 6 408 c 128
 6 417 8 421 13 421 c 256
 32 419 60 418 98 418 c 128
 136 418 166 419 186 421 c 256
 191 421 193 417 193 408 c 128
 193 399 191 395 186 395 c 256
 161 395 146 386 146 368 c 256
 146 363 147 358 148 354 c 258
 228 112 l 258
 230 106 232 103 235 103 c 128
 238 103 240 106 242 112 c 258
 325 358 l 258
 326 361 327 365 327 369 c 256
 327 386 311 395 280 395 c 256
 275 395 273 399 273 408 c 128
 273 417 275 421 280 421 c 256
 299 419 322 418 350 418 c 128
 378 418 402 419 421 421 c 256
 426 421 428 417 428 408 c 128
 428 399 426 395 421 395 c 256
 390 395 370 383 362 360 c 258
 240 8 l 258
 236 -5 230 -11 220 -11 c 128
 210 -11 203 -7 200 2 c 258
 63 360 l 258
EndSplineSet
Validated: 1
EndChar

StartChar: w
Encoding: 119 119 48
Width: 684
VWidth: 0
Flags: HMW
AnchorPoint: "above" 350 445 basechar 0
AnchorPoint: "below" 339 -37 basechar 0
LayerCount: 2
Fore
SplineSet
318 341 m 256
 318 369 296 395 263 395 c 256
 258 395 256 399 256 408 c 128
 256 417 258 421 263 421 c 256
 282 419 310 418 348 418 c 128
 386 418 416 419 436 421 c 256
 441 421 443 417 443 408 c 128
 443 399 441 395 436 395 c 256
 411 395 396 386 396 368 c 256
 396 363 397 358 398 354 c 258
 478 112 l 258
 480 106 482 103 485 103 c 128
 488 103 490 106 492 112 c 258
 575 358 l 258
 576 361 577 365 577 369 c 256
 577 386 561 395 530 395 c 256
 525 395 523 399 523 408 c 128
 523 417 525 421 530 421 c 256
 549 419 572 418 600 418 c 128
 628 418 652 419 671 421 c 256
 676 421 678 417 678 408 c 128
 678 399 676 395 671 395 c 256
 640 395 620 383 612 360 c 258
 490 8 l 258
 486 -5 480 -11 470 -11 c 128
 460 -11 453 -7 450 2 c 258
 346 273 l 258
 343 280 341 283 339 283 c 128
 337 283 335 280 332 273 c 258
 240 8 l 258
 236 -5 230 -11 220 -11 c 128
 210 -11 203 -7 200 2 c 258
 63 360 l 258
 54 383 37 395 13 395 c 256
 8 395 6 399 6 408 c 128
 6 417 8 421 13 421 c 256
 32 419 60 418 98 418 c 128
 136 418 166 419 186 421 c 256
 191 421 193 417 193 408 c 128
 193 399 191 395 186 395 c 256
 161 395 146 386 146 368 c 256
 146 363 147 358 148 354 c 258
 228 112 l 258
 230 106 232 103 235 103 c 128
 238 103 240 106 242 112 c 258
 315 327 l 258
 317 334 318 338 318 341 c 256
EndSplineSet
Validated: 1
EndChar

StartChar: x
Encoding: 120 120 49
Width: 456
VWidth: 0
Flags: HMW
AnchorPoint: "below" 228 -37 basechar 0
AnchorPoint: "above" 240 445 basechar 0
LayerCount: 2
Fore
SplineSet
87 361 m 258
 70 384 49 395 34 395 c 256
 29 395 27 402 27 409 c 0
 27 415 29 421 34 421 c 256
 52 419 83 418 120 418 c 128
 157 418 182 419 201 421 c 256
 206 421 208 414 208 407 c 0
 208 401 206 395 201 395 c 256
 175 395 165 389 165 378 c 0
 165 372 168 364 174 355 c 258
 234 266 l 258
 237 261 240 259 243 259 c 128
 246 259 250 261 253 266 c 258
 312 347 l 258
 320 357 324 367 324 375 c 0
 324 387 313 395 284 395 c 256
 279 395 277 402 277 409 c 0
 277 415 279 421 284 421 c 256
 303 419 326 418 355 418 c 128
 384 418 409 419 428 421 c 256
 433 421 435 414 435 407 c 0
 435 401 433 395 428 395 c 256
 406 395 386 383 368 360 c 258
 273 241 l 258
 265 231 263 225 271 214 c 258
 377 65 l 258
 396 38 414 24 443 24 c 256
 448 24 450 16 450 9 c 0
 450 2 448 -4 443 -4 c 256
 418 -1 394 0 356 0 c 128
 318 0 288 -1 261 -4 c 256
 256 -4 254 4 254 11 c 0
 254 18 256 24 261 24 c 256
 293 24 304 29 304 39 c 0
 304 45 300 53 293 63 c 258
 224 168 l 258
 221 172 219 174 216 174 c 128
 213 174 211 172 208 168 c 258
 140 71 l 258
 131 58 124 47 124 39 c 0
 124 30 133 24 157 24 c 256
 162 24 164 16 164 9 c 0
 164 2 162 -4 157 -4 c 256
 131 -1 107 0 84 0 c 128
 61 0 38 -1 13 -4 c 256
 8 -4 6 4 6 11 c 0
 6 18 8 24 13 24 c 256
 44 24 67 35 84 57 c 258
 192 195 l 258
 197 202 197 210 191 217 c 258
 87 361 l 258
EndSplineSet
Validated: 1
EndChar

StartChar: y
Encoding: 121 121 50
Width: 464
VWidth: 0
Flags: HMW
AnchorPoint: "below" 244 -275 basechar 0
AnchorPoint: "above" 244 445 basechar 0
LayerCount: 2
Fore
SplineSet
93 -275 m 128
 68 -275 46 -260 46 -238 c 256
 46 -213 60 -201 91 -201 c 128
 122 -201 140 -191 149 -170 c 258
 196 -48 l 258
 199 -40 201 -34 201 -29 c 128
 201 -24 199 -16 195 -4 c 258
 69 360 l 258
 60 383 44 395 13 395 c 256
 8 395 6 399 6 408 c 128
 6 417 8 421 13 421 c 256
 32 419 59 418 100 418 c 128
 141 418 171 419 190 421 c 256
 195 421 197 417 197 408 c 128
 197 399 195 395 190 395 c 256
 159 395 144 386 144 368 c 256
 144 363 145 358 146 354 c 258
 231 105 l 258
 234 95 239 90 244 90 c 128
 249 90 253 95 257 106 c 258
 354 354 l 258
 356 358 357 362 357 367 c 256
 357 386 343 395 301 395 c 256
 296 395 294 399 294 408 c 128
 294 417 296 421 301 421 c 256
 320 419 339 418 374 418 c 128
 409 418 432 419 451 421 c 256
 456 421 458 417 458 408 c 128
 458 399 456 395 451 395 c 256
 420 395 403 383 394 360 c 258
 172 -209 l 258
 160 -241 132 -275 93 -275 c 128
EndSplineSet
Validated: 1
EndChar

StartChar: z
Encoding: 122 122 51
Width: 396
VWidth: 0
Flags: HMW
AnchorPoint: "above" 203 445 basechar 0
AnchorPoint: "below" 200 -37 basechar 0
LayerCount: 2
Fore
SplineSet
366 120 m 256
 356 45 353 17 353 5 c 0
 353 -7 349 -8 340 -8 c 256
 337 -8 325 -6 305 -2 c 0
 293 0 269 0 257 0 c 258
 44 0 l 258
 38 0 35 2 35 7 c 256
 35 9 36 10 36 11 c 258
 248 369 l 258
 251 374 252 377 252 380 c 256
 252 386 247 389 237 389 c 258
 149 389 l 258
 130 389 111 382 98 367 c 0
 85 352 80 336 57 293 c 256
 56 292 55 291 54 291 c 0
 51 291 43 293 43 296 c 258
 57 408 l 258
 59 418 60 425 69 425 c 258
 121 420 l 258
 130 419 142 418 160 418 c 258
 342 418 l 258
 347 418 350 416 350 414 c 0
 350 412 348 410 347 407 c 258
 137 51 l 258
 135 48 134 45 134 42 c 256
 134 36 139 32 148 31 c 0
 157 30 177 29 210 29 c 0
 243 29 275 33 294 45 c 0
 313 57 325 73 346 124 c 256
 347 126 349 128 351 128 c 0
 356 128 366 125 366 120 c 256
EndSplineSet
Validated: 1
EndChar

StartChar: zero
Encoding: 48 48 52
Width: 479
VWidth: 0
Flags: HMW
AnchorPoint: "overlay" 239 310 basechar 0
LayerCount: 2
Fore
SplineSet
240 651 m 256
 389 651 439 476 439 314 c 256
 439 223 421 146 386 84 c 128
 351 22 302 -8 237 -8 c 256
 87 -8 40 162 40 325 c 256
 40 488 93 651 240 651 c 256
241 619 m 256
 147 619 125 441 125 336 c 256
 125 214 136 132 158 89 c 128
 180 46 207 25 238 25 c 256
 274 25 302 48 322 93 c 128
 342 138 352 210 352 308 c 256
 352 384 345 454 332 520 c 128
 319 586 289 619 241 619 c 256
EndSplineSet
Validated: 1
EndChar

StartChar: one
Encoding: 49 49 53
Width: 353
VWidth: 0
Flags: HMW
AnchorPoint: "overlay" 180 310 basechar 0
LayerCount: 2
Fore
SplineSet
57 -4 m 256
 52 -4 50 1 50 10 c 128
 50 19 52 24 57 24 c 256
 98 24 115 30 126 43 c 128
 137 56 143 84 143 127 c 258
 143 552 l 258
 143 567 140 575 133 575 c 256
 131 575 127 574 121 571 c 258
 67 546 l 258
 62 544 49 564 58 569 c 256
 129 604 173 634 207 668 c 256
 209 670 212 671 215 671 c 256
 219 671 221 669 221 664 c 256
 219 623 218 595 218 580 c 258
 218 128 l 258
 218 79 226 50 240 40 c 128
 254 30 267 24 296 24 c 256
 301 24 303 19 303 10 c 128
 303 1 301 -4 296 -4 c 256
 270 -1 236 0 176 0 c 128
 116 0 83 -1 57 -4 c 256
EndSplineSet
Validated: 1
EndChar

StartChar: two
Encoding: 50 50 54
Width: 481
VWidth: 0
Flags: HMW
AnchorPoint: "overlay" 229 310 basechar 0
LayerCount: 2
Fore
SplineSet
286 67 m 258
 358 67 401 82 418 127 c 256
 418 129 421 130 426 130 c 256
 436 130 442 128 445 123 c 256
 445 122 446 122 446 121 c 128
 446 120 446 120 445 119 c 258
 396 12 l 258
 391 1 383 -4 371 -4 c 256
 327 -1 276 0 216 0 c 128
 156 0 97 -1 38 -4 c 256
 25 -4 18 2 18 15 c 256
 18 18 20 21 23 24 c 256
 167 174 260 298 302 397 c 256
 314 424 320 454 320 487 c 256
 320 522 309 547 288 564 c 128
 267 581 243 589 218 589 c 256
 171 589 131 559 98 500 c 256
 97 498 95 497 92 497 c 0
 83 497 70 507 70 513 c 0
 70 546 127 595 148 612 c 128
 180 638 216 651 257 651 c 256
 306 651 344 636 370 605 c 128
 396 574 409 537 409 492 c 256
 409 445 391 396 355 345 c 256
 336 318 308 284 273 243 c 257
 134 88 l 258
 129 83 126 78 126 74 c 256
 126 69 131 67 141 67 c 258
 286 67 l 258
EndSplineSet
Validated: 1
EndChar

StartChar: three
Encoding: 51 51 55
Width: 443
VWidth: 0
Flags: HMW
AnchorPoint: "overlay" 214 310 basechar 0
LayerCount: 2
Fore
SplineSet
117 368 m 256
 214 368 286 412 286 501 c 256
 286 534 276 558 257 574 c 128
 238 590 217 599 194 599 c 256
 155 599 122 577 93 532 c 256
 92 531 91 531 90 531 c 0
 83 531 68 544 68 550 c 0
 68 612 170 651 227 651 c 256
 264 651 296 638 322 610 c 128
 348 582 360 550 360 514 c 256
 360 459 330 415 271 382 c 256
 260 376 255 372 255 370 c 256
 255 367 260 364 269 362 c 256
 352 345 393 292 393 202 c 256
 393 142 371 91 328 50 c 128
 285 9 234 -8 174 -8 c 256
 128 -8 94 -1 72 14 c 128
 50 29 40 43 40 62 c 256
 40 82 59 98 79 98 c 256
 91 98 108 86 130 62 c 128
 152 38 175 28 200 28 c 256
 235 28 264 45 285 83 c 256
 302 114 310 149 310 189 c 256
 310 274 257 337 172 337 c 256
 151 337 132 334 117 329 c 257
 112 329 110 336 110 349 c 256
 110 362 112 368 117 368 c 256
EndSplineSet
Validated: 1
EndChar

StartChar: four
Encoding: 52 52 56
Width: 486
VWidth: 0
Flags: HMW
AnchorPoint: "overlay" 240 310 basechar 0
LayerCount: 2
Fore
SplineSet
437 191 m 258
 380 191 l 258
 373 191 369 188 369 181 c 258
 369 62 l 258
 369 37 389 24 428 24 c 256
 433 24 435 19 435 10 c 128
 435 1 433 -4 428 -4 c 256
 403 -1 367 0 322 0 c 128
 277 0 246 -1 221 -4 c 256
 216 -4 214 1 214 10 c 128
 214 19 216 24 221 24 c 256
 272 24 294 37 294 62 c 258
 294 181 l 258
 294 188 291 191 284 191 c 258
 51 191 l 258
 29 191 18 197 18 209 c 256
 18 212 19 217 22 223 c 256
 25 232 32 242 41 254 c 258
 354 696 l 258
 357 700 363 702 373 702 c 256
 392 702 401 697 401 687 c 257
 85 246 l 258
 82 243 81 240 81 237 c 256
 81 232 85 230 94 230 c 258
 284 230 l 258
 291 230 294 233 294 240 c 258
 294 460 l 258
 294 465 307 467 332 467 c 128
 357 467 369 465 369 460 c 258
 369 240 l 258
 369 233 373 230 380 230 c 258
 437 230 l 258
 443 230 446 226 446 212 c 128
 446 198 443 191 437 191 c 258
EndSplineSet
Validated: 1
EndChar

StartChar: five
Encoding: 53 53 57
Width: 442
VWidth: 0
Flags: HMW
AnchorPoint: "overlay" 229 310 basechar 0
LayerCount: 2
Fore
SplineSet
177 437 m 257
 303 437 387 368 387 242 c 256
 387 172 365 112 322 64 c 128
 279 16 222 -8 153 -8 c 256
 107 -8 76 -2 60 12 c 128
 44 26 35 40 35 54 c 256
 35 81 48 94 75 94 c 256
 88 94 106 84 128 64 c 128
 150 44 172 33 194 33 c 256
 231 33 260 51 284 86 c 128
 308 121 320 159 320 198 c 256
 320 303 263 360 158 363 c 256
 142 363 121 360 95 354 c 257
 89 354 l 258
 84 354 82 358 81 365 c 256
 81 366 81 368 82 370 c 258
 127 629 l 258
 128 638 134 643 143 643 c 258
 373 643 l 258
 375 643 376 640 376 635 c 256
 376 618 372 600 364 583 c 256
 361 577 359 574 356 573 c 257
 169 573 l 258
 160 573 154 569 153 560 c 258
 132 446 l 258
 131 439 133 435 138 435 c 258
 177 437 l 257
EndSplineSet
Validated: 1
EndChar

StartChar: six
Encoding: 54 54 58
Width: 468
VWidth: 0
Flags: HMW
AnchorPoint: "overlay" 246 310 basechar 0
LayerCount: 2
Fore
SplineSet
232 -8 m 256
 173 -8 128 15 97 60 c 128
 66 105 50 160 50 227 c 256
 50 320 82 409 146 492 c 128
 210 575 285 636 368 673 c 256
 373 675 378 672 382 664 c 256
 386 656 386 651 381 649 c 256
 286 595 218 525 178 440 c 256
 159 400 146 356 138 307 c 257
 187 352 231 374 269 374 c 256
 315 374 352 355 380 318 c 128
 408 281 423 239 423 191 c 256
 423 136 405 89 370 50 c 128
 335 11 289 -8 232 -8 c 256
347 161 m 256
 347 242 306 319 230 319 c 256
 193 319 161 301 133 265 c 257
 131 251 130 238 130 225 c 256
 130 138 148 80 185 50 c 256
 201 37 221 31 244 31 c 256
 277 31 302 45 320 72 c 128
 338 99 347 129 347 161 c 256
EndSplineSet
Validated: 1
EndChar

StartChar: seven
Encoding: 55 55 59
Width: 467
VWidth: 0
Flags: HMW
AnchorPoint: "overlay" 238 310 basechar 0
LayerCount: 2
Fore
SplineSet
433 617 m 258
 184 0 l 258
 182 -5 169 -8 146 -8 c 128
 123 -8 111 -5 111 0 c 257
 115 7 123 24 136 49 c 257
 211 217 285 387 360 556 c 256
 363 563 364 568 364 570 c 256
 364 575 359 577 348 577 c 258
 243 577 l 258
 190 577 155 575 140 571 c 256
 105 562 82 540 69 507 c 256
 67 502 62 500 54 500 c 128
 46 500 41 502 40 507 c 257
 65 628 l 258
 67 638 74 643 85 643 c 258
 418 643 l 258
 431 643 437 639 437 632 c 256
 437 628 436 623 433 617 c 258
EndSplineSet
Validated: 1
EndChar

StartChar: eight
Encoding: 56 56 60
Width: 465
VWidth: 0
Flags: HMW
AnchorPoint: "overlay" 233 310 basechar 0
LayerCount: 2
Fore
SplineSet
68 492 m 256
 68 580 142 651 232 651 c 256
 287 651 328 637 354 609 c 128
 380 581 394 547 394 507 c 256
 394 439 357 386 283 347 c 257
 371 291 415 229 415 162 c 256
 415 112 397 72 361 40 c 128
 325 8 282 -8 232 -8 c 256
 177 -8 133 7 100 38 c 128
 67 69 50 107 50 154 c 256
 50 222 94 279 183 326 c 257
 142 353 115 376 102 395 c 257
 79 425 68 457 68 492 c 256
326 487 m 256
 326 558 288 614 220 614 c 256
 187 614 163 604 148 585 c 128
 133 566 125 546 125 525 c 256
 125 484 151 444 203 405 c 256
 214 397 232 385 257 368 c 257
 303 401 326 440 326 487 c 256
126 164 m 256
 126 92 176 25 247 25 c 256
 280 25 304 36 320 58 c 128
 336 80 345 102 345 127 c 256
 345 168 331 203 303 230 c 128
 275 257 249 279 225 295 c 258
 211 305 l 257
 154 272 126 225 126 164 c 256
EndSplineSet
Validated: 1
EndChar

StartChar: nine
Encoding: 57 57 61
Width: 468
VWidth: 0
Flags: HMW
AnchorPoint: "overlay" 236 310 basechar 0
LayerCount: 2
Fore
SplineSet
45 443 m 256
 45 563 118 651 236 651 c 256
 294 651 338 629 370 584 c 128
 402 539 418 485 418 422 c 256
 418 321 379 225 302 136 c 256
 247 73 183 23 106 -16 c 256
 106 -16 103 -17 103 -17 c 0
 97 -17 85 -2 85 7 c 0
 85 10 86 12 88 13 c 256
 150 49 202 90 243 138 c 128
 284 186 313 252 329 335 c 257
 288 291 246 269 203 269 c 256
 160 269 123 286 92 321 c 128
 61 356 46 396 45 443 c 256
121 476 m 256
 121 399 163 323 235 323 c 256
 272 323 305 341 334 378 c 257
 336 392 337 406 337 421 c 256
 337 497 324 548 299 573 c 128
 274 598 248 611 221 611 c 256
 186 611 160 596 144 567 c 128
 128 538 121 507 121 476 c 256
EndSplineSet
Validated: 1
EndChar

StartChar: exclam
Encoding: 33 33 63
Width: 238
VWidth: 0
Flags: HMW
AnchorPoint: "overlay" 119 330 basechar 0
LayerCount: 2
Fore
SplineSet
60 49 m 0
 60 85 82 104 119 104 c 256
 156 104 178 79 178 44 c 0
 178 10 152 -11 118 -11 c 0
 85 -11 60 16 60 49 c 0
73 615 m 256
 73 646 93 675 121 675 c 256
 154 675 171 657 171 621 c 256
 171 600 166 546 156 450 c 0
 146 356 139 275 135 208 c 256
 135 203 130 200 119 200 c 256
 108 200 103 203 103 208 c 256
 100 273 95 353 86 448 c 0
 77 543 73 597 73 615 c 256
EndSplineSet
Validated: 1
EndChar

StartChar: numbersign
Encoding: 35 35 65
Width: 573
VWidth: 0
Flags: HMW
LayerCount: 2
Fore
SplineSet
50 189 m 257
 50 231 l 257
 164 231 l 257
 211 403 l 257
 107 403 l 257
 107 445 l 257
 222 445 l 257
 265 605 l 257
 309 605 l 257
 266 445 l 257
 384 445 l 257
 427 605 l 257
 470 605 l 257
 428 445 l 257
 523 445 l 257
 523 403 l 257
 416 403 l 257
 370 231 l 257
 466 231 l 257
 466 189 l 257
 359 189 l 257
 309 0 l 257
 265 0 l 257
 315 189 l 257
 197 189 l 257
 146 0 l 257
 103 0 l 257
 153 189 l 257
 50 189 l 257
208 231 m 257
 327 231 l 257
 372 403 l 257
 254 403 l 257
 208 231 l 257
EndSplineSet
Validated: 1
EndChar

StartChar: dollar
Encoding: 36 36 66
Width: 494
VWidth: 0
Flags: HMW
LayerCount: 2
Fore
SplineSet
50 156 m 2
 50 168 54 173 69 173 c 0
 79 173 83 173 83 170 c 0
 87 97 155 37 229 26 c 1
 229 288 l 1
 114 320 57 387 57 489 c 0
 57 581 135 642 229 650 c 1
 229 693 l 2
 229 701 235 705 250 705 c 0
 265 705 271 701 271 693 c 2
 271 651 l 1
 298 650 322 647 345 641 c 0
 374 634 390 632 394 632 c 0
 398 632 401 632 402 633 c 1
 410 601 415 560 417 511 c 0
 417 501 404 499 395 499 c 0
 390 499 386 501 385 506 c 0
 375 566 339 608 271 618 c 1
 271 378 l 1
 389 354 447 290 447 188 c 2
 447 183 l 1
 445 75 377 -2 271 -10 c 1
 271 -53 l 2
 271 -61 265 -65 250 -65 c 0
 235 -65 229 -61 229 -53 c 2
 229 -11 l 1
 201 -10 178 -7 160 -1 c 0
 137 6 108 18 71 36 c 1
 57 82 50 115 50 149 c 2
 50 156 l 2
271 23 m 1
 336 24 382 81 382 146 c 0
 382 213 345 256 271 277 c 1
 271 23 l 1
229 620 m 1
 169 616 123 571 123 513 c 0
 123 452 159 410 229 388 c 1
 229 620 l 1
EndSplineSet
Validated: 1
EndChar

StartChar: percent
Encoding: 37 37 67
Width: 899
VWidth: 0
Flags: HMW
LayerCount: 2
Fore
SplineSet
202 267 m 0
 98 267 50 371 50 479 c 256
 50 587 105 683 210 683 c 0
 259 683 296 662 322 620 c 0
 348 578 361 527 361 468 c 0
 361 360 307 267 202 267 c 0
124 460 m 256
 124 421 132 384 146 350 c 0
 160 316 183 300 214 300 c 256
 235 300 253 318 267 352 c 0
 281 386 288 433 288 494 c 256
 288 571 270 650 200 650 c 256
 177 650 159 633 145 599 c 0
 131 565 124 519 124 460 c 256
213 -21 m 257
 355 217 498 453 641 690 c 256
 642 691 644 692 647 692 c 256
 653 692 675 681 675 674 c 0
 675 673 675 672 675 671 c 258
 248 -38 l 258
 247 -39 245 -40 242 -40 c 256
 236 -40 213 -27 213 -21 c 257
538 202 m 256
 538 311 593 405 698 405 c 0
 748 405 786 384 811 342 c 0
 836 300 849 248 849 190 c 0
 849 82 795 -11 690 -11 c 0
 641 -11 603 10 577 52 c 0
 551 94 538 143 538 202 c 256
612 182 m 256
 612 143 620 106 634 72 c 0
 648 38 671 22 702 22 c 256
 723 22 741 40 755 74 c 0
 769 108 776 155 776 216 c 256
 776 293 758 372 689 372 c 256
 666 372 648 355 634 321 c 0
 620 287 612 241 612 182 c 256
EndSplineSet
Validated: 1
LCarets2: 2 0 0
Ligature2: "frac_Diagonal_Fractions_subtable" zero slash zero
EndChar

StartChar: ampersand
Encoding: 38 38 68
Width: 819
VWidth: 0
Flags: HMW
LayerCount: 2
Fore
SplineSet
50 176 m 256
 50 260 83 321 150 360 c 258
 223 402 l 257
 167 443 138 486 138 531 c 256
 138 609 207 675 285 675 c 256
 364 675 421 624 421 547 c 256
 421 505 400 472 359 448 c 258
 316 423 l 257
 381 369 436 310 500 222 c 257
 537 271 l 258
 585 334 604 374 604 392 c 0
 604 410 591 418 542 418 c 256
 537 418 535 423 535 432 c 0
 535 441 537 445 542 446 c 257
 560 444 587 443 646 443 c 0
 705 443 732 444 751 446 c 256
 756 446 759 441 759 432 c 0
 759 423 756 418 751 418 c 256
 718 418 694 412 682 400 c 0
 667 385 644 352 603 299 c 258
 523 195 l 257
 567 132 l 258
 618 59 629 33 688 33 c 256
 727 33 746 43 770 67 c 256
 774 71 789 59 784 53 c 256
 750 3 729 -11 651 -11 c 256
 600 -11 544 48 482 139 c 257
 412 48 341 -11 255 -11 c 256
 192 -11 143 7 106 43 c 0
 69 79 50 123 50 176 c 256
121 208 m 256
 121 112 190 50 284 50 c 256
 352 50 406 99 461 170 c 257
 396 261 330 319 248 384 c 257
 163 335 121 276 121 208 c 256
205 556 m 256
 205 520 234 482 291 441 c 257
 333 466 355 502 355 550 c 256
 355 602 329 645 281 645 c 256
 236 645 205 600 205 556 c 256
EndSplineSet
Validated: 1
EndChar

StartChar: quotesingle
Encoding: 39 39 69
Width: 173
VWidth: 0
Flags: HMW
LayerCount: 2
Fore
SplineSet
40 681 m 256
 40 709 56 725 87 725 c 256
 118 725 133 709 133 682 c 256
 133 669 130 643 124 604 c 256
 118 565 111 517 104 461 c 256
 104 458 98 457 87 457 c 256
 76 457 70 458 70 461 c 256
 63 516 57 564 50 603 c 256
 43 642 40 668 40 681 c 256
EndSplineSet
Validated: 1
EndChar

StartChar: parenleft
Encoding: 40 40 70
Width: 370
VWidth: 0
Flags: HMW
LayerCount: 2
Fore
SplineSet
120 265 m 256
 120 454 216 621 319 718 c 256
 324 723 330 725 336 725 c 0
 346 725 358 718 358 710 c 0
 358 707 355 701 349 693 c 256
 242 580 188 438 188 265 c 256
 188 94 242 -48 351 -163 c 256
 356 -168 358 -173 358 -178 c 0
 358 -188 345 -195 336 -195 c 0
 332 -195 326 -192 319 -187 c 256
 256 -130 207 -67 172 4 c 0
 137 75 120 162 120 265 c 256
EndSplineSet
Validated: 1
EndChar

StartChar: parenright
Encoding: 41 41 71
Width: 370
VWidth: 0
Flags: HMW
LayerCount: 2
Fore
SplineSet
12 -179 m 0
 12 -176 15 -170 21 -163 c 256
 128 -50 182 92 182 265 c 256
 182 436 128 578 19 693 c 256
 14 698 12 703 12 708 c 0
 12 718 25 725 35 725 c 0
 40 725 45 722 51 717 c 256
 114 660 162 597 197 526 c 0
 232 455 250 368 250 265 c 256
 250 76 154 -91 51 -188 c 256
 46 -193 39 -195 33 -195 c 0
 23 -195 12 -188 12 -179 c 0
EndSplineSet
Validated: 1
EndChar

StartChar: asterisk
Encoding: 42 42 72
Width: 432
VWidth: 0
Flags: HMW
LayerCount: 2
Fore
SplineSet
50 414 m 1
 175 486 l 1
 51 559 l 1
 72 594 l 1
 195 523 l 1
 195 663 l 1
 237 663 l 1
 237 522 l 1
 361 594 l 1
 382 559 l 1
 259 486 l 1
 382 414 l 1
 361 379 l 1
 237 449 l 1
 237 303 l 1
 195 303 l 1
 195 449 l 1
 72 379 l 1
 50 414 l 1
EndSplineSet
Validated: 1
EndChar

StartChar: plus
Encoding: 43 43 73
Width: 485
VWidth: 0
Flags: HMW
AnchorPoint: "overlay" 243 230 basechar 0
LayerCount: 2
Fore
SplineSet
50 200 m 257
 50 259 l 257
 213 259 l 257
 213 418 l 257
 272 418 l 257
 272 259 l 257
 435 259 l 257
 435 200 l 257
 272 200 l 257
 272 24 l 257
 213 24 l 257
 213 200 l 257
 50 200 l 257
EndSplineSet
Validated: 1
EndChar

StartChar: comma
Encoding: 44 44 74
Width: 243
VWidth: 0
Flags: HMW
LayerCount: 2
Fore
SplineSet
106 105 m 256
 155 105 193 57 193 9 c 256
 193 -33 180 -71 156 -104 c 128
 140 -126 113 -150 96 -160 c 128
 75 -172 63 -179 62 -179 c 256
 54 -179 50 -175 50 -166 c 256
 50 -165 57 -157 69 -144 c 128
 77 -136 90 -121 101 -106 c 128
 116 -85 124 -63 124 -38 c 256
 124 -22 118 -12 107 -8 c 256
 69 7 50 24 50 58 c 256
 50 86 74 105 106 105 c 256
EndSplineSet
Validated: 1
EndChar

StartChar: hyphen
Encoding: 45 45 75
Width: 425
VWidth: 0
Flags: HMW
LayerCount: 2
Fore
SplineSet
50 256 m 0
 50 272 54 286 64 286 c 258
 360 286 l 258
 370 286 375 272 375 256 c 0
 375 240 370 227 360 227 c 258
 64 227 l 258
 54 227 50 240 50 256 c 0
EndSplineSet
Validated: 1
EndChar

StartChar: period
Encoding: 46 46 76
Width: 218
VWidth: 0
Flags: HMW
LayerCount: 2
Fore
SplineSet
50 49 m 256
 50 83 77 104 112 104 c 0
 147 104 168 78 168 44 c 0
 168 11 141 -11 108 -11 c 0
 74 -11 50 16 50 49 c 256
EndSplineSet
Validated: 1
EndChar

StartChar: slash
Encoding: 47 47 77
Width: 410
VWidth: 0
Flags: HMW
LayerCount: 2
Fore
SplineSet
25 -85 m 257
 336 722 l 258
 337 724 339 725 343 725 c 256
 354 725 384 712 385 701 c 257
 73 -107 l 258
 72 -108 71 -109 68 -109 c 256
 59 -109 26 -94 25 -85 c 257
EndSplineSet
Validated: 1
EndChar

StartChar: colon
Encoding: 58 58 78
Width: 238
VWidth: 0
Flags: HMW
LayerCount: 2
Fore
SplineSet
60 49 m 256
 60 83 87 104 122 104 c 0
 157 104 178 78 178 44 c 0
 178 11 151 -11 118 -11 c 0
 84 -11 60 16 60 49 c 256
60 370 m 256
 60 403 88 425 122 425 c 0
 156 425 178 397 178 364 c 0
 178 331 153 310 119 310 c 0
 85 310 60 336 60 370 c 256
EndSplineSet
Validated: 1
EndChar

StartChar: less
Encoding: 60 60 80
Width: 461
VWidth: 0
Flags: HMW
AnchorPoint: "overlay" 230 230 basechar 0
LayerCount: 2
Fore
SplineSet
50 208 m 257
 50 253 l 257
 411 425 l 1
 411 367 l 1
 122 232 l 257
 122 230 l 257
 411 94 l 1
 411 37 l 1
 50 208 l 257
EndSplineSet
Validated: 1
EndChar

StartChar: equal
Encoding: 61 61 81
Width: 485
VWidth: 0
Flags: HMW
AnchorPoint: "overlay" 243 230 basechar 0
LayerCount: 2
Fore
SplineSet
50 141 m 257
 50 190 l 257
 435 190 l 257
 435 141 l 257
 50 141 l 257
50 271 m 257
 50 320 l 257
 435 320 l 257
 435 271 l 257
 50 271 l 257
EndSplineSet
Validated: 1
EndChar

StartChar: greater
Encoding: 62 62 82
Width: 461
VWidth: 0
Flags: HMW
AnchorPoint: "overlay" 230 230 basechar 0
LayerCount: 2
Fore
SplineSet
50 37 m 1
 50 94 l 1
 339 230 l 257
 339 232 l 257
 50 367 l 1
 50 425 l 1
 411 253 l 257
 411 208 l 257
 50 37 l 1
EndSplineSet
Validated: 1
EndChar

StartChar: question
Encoding: 63 63 83
Width: 374
VWidth: 0
Flags: HMW
AnchorPoint: "overlay" 185 330 basechar 0
LayerCount: 2
Fore
SplineSet
89 49 m 256
 89 83 116 104 151 104 c 0
 186 104 207 78 207 44 c 0
 207 11 181 -11 148 -11 c 0
 114 -11 89 16 89 49 c 256
152 257 m 0
 152 245 156 222 156 209 c 0
 156 200 148 194 139 194 c 0
 133 194 125 196 124 199 c 0
 110 243 103 267 103 292 c 0
 103 332 106 353 149 387 c 2
 220 443 l 2
 249 466 292 505 292 542 c 0
 292 595 234 612 196 612 c 0
 174 612 166 606 153 594 c 0
 143 584 130 572 111 572 c 0
 94 572 60 578 60 616 c 0
 60 661 114 675 160 675 c 0
 198 675 242 668 272 642 c 0
 302 616 334 591 334 516 c 0
 334 458 290 396 264 374 c 2
 188 310 l 2
 171 296 152 284 152 257 c 0
EndSplineSet
Validated: 1
EndChar

StartChar: at
Encoding: 64 64 84
Width: 790
VWidth: 0
Flags: HMW
LayerCount: 2
Fore
SplineSet
697 417 m 0
 697 550 580 641 446 641 c 256
 343 641 262 607 205 539 c 0
 148 471 119 390 119 294 c 256
 119 223 143 164 190 108 c 0
 237 52 313 24 417 24 c 256
 464 24 515 36 572 59 c 256
 575 60 586 43 580 40 c 256
 526 6 462 -11 387 -11 c 256
 296 -11 217 16 150 69 c 0
 83 122 50 194 50 293 c 256
 50 406 90 497 168 568 c 0
 246 639 338 675 445 675 c 256
 536 675 608 649 661 598 c 0
 714 547 740 487 740 416 c 256
 740 351 717 294 670 246 c 0
 623 198 560 178 481 178 c 256
 442 178 421 181 421 209 c 256
 421 218 428 244 443 287 c 257
 445 294 l 257
 441 296 l 257
 382 218 333 179 293 179 c 256
 263 179 248 200 248 241 c 256
 248 291 269 346 310 407 c 0
 351 468 397 498 446 498 c 256
 463 498 479 491 495 478 c 257
 499 490 501 498 521 490 c 0
 531 486 537 479 537 471 c 0
 537 469 537 468 536 466 c 258
 478 263 l 258
 475 251 473 241 473 233 c 256
 473 218 480 211 494 211 c 256
 612 211 697 303 697 417 c 0
302 253 m 256
 302 230 309 219 324 219 c 256
 341 219 369 240 406 283 c 256
 439 321 457 350 473 405 c 258
 484 443 l 257
 484 464 468 474 436 474 c 256
 403 474 372 447 344 392 c 0
 316 337 302 291 302 253 c 256
EndSplineSet
Validated: 1
EndChar

StartChar: braceleft
Encoding: 123 123 85
Width: 409
VWidth: 0
Flags: HMW
LayerCount: 2
Fore
SplineSet
60 280 m 256
 60 286 62 289 65 288 c 256
 134 288 168 316 168 372 c 258
 168 543 l 258
 168 632 183 690 248 704 c 256
 275 710 318 713 377 713 c 256
 382 713 384 709 384 702 c 256
 384 695 382 691 377 690 c 256
 281 690 235 667 235 574 c 258
 235 455 l 258
 235 399 233 359 229 346 c 256
 218 313 195 292 155 282 c 257
 155 278 l 257
 196 271 219 250 229 214 c 256
 233 198 235 167 235 122 c 258
 235 -19 l 258
 235 -130 268 -159 377 -160 c 256
 382 -160 384 -164 384 -171 c 256
 384 -178 382 -182 377 -183 c 256
 304 -183 257 -179 236 -171 c 256
 189 -153 168 -107 168 -36 c 258
 168 186 l 258
 168 243 134 272 65 272 c 256
 62 272 60 274 60 280 c 256
EndSplineSet
Validated: 1
EndChar

StartChar: bar
Encoding: 124 124 86
Width: 272
VWidth: 0
Flags: HMW
LayerCount: 2
Fore
SplineSet
103 -183 m 258
 103 713 l 258
 103 721 121 725 136 725 c 0
 151 725 168 721 168 713 c 258
 168 -183 l 258
 168 -191 151 -195 136 -195 c 0
 121 -195 103 -191 103 -183 c 258
EndSplineSet
Validated: 1
EndChar

StartChar: braceright
Encoding: 125 125 87
Width: 409
VWidth: 0
Flags: HMW
LayerCount: 2
Fore
SplineSet
25 -171 m 256
 25 -164 27 -160 32 -160 c 256
 141 -159 174 -130 174 -19 c 258
 174 122 l 258
 174 167 176 198 180 214 c 256
 190 250 213 271 254 278 c 257
 254 282 l 257
 214 292 191 313 180 346 c 256
 176 359 174 399 174 455 c 258
 174 574 l 258
 174 667 128 690 32 690 c 256
 27 691 25 695 25 702 c 256
 25 709 27 713 32 713 c 256
 91 713 134 710 161 704 c 256
 226 690 241 632 241 543 c 258
 241 372 l 258
 241 316 275 288 344 288 c 256
 347 289 349 286 349 280 c 256
 349 274 347 272 344 272 c 256
 275 272 241 243 241 186 c 258
 241 -36 l 258
 241 -107 220 -153 173 -171 c 256
 152 -179 105 -183 32 -183 c 256
 27 -182 25 -178 25 -171 c 256
EndSplineSet
Validated: 1
EndChar

StartChar: asciitilde
Encoding: 126 126 88
Width: 450
VWidth: 0
Flags: HMW
LayerCount: 2
Fore
SplineSet
50 195 m 256
 50 196 51 198 52 200 c 256
 88 250 128 276 168 276 c 256
 184 276 210 270 246 258 c 256
 282 246 306 240 318 240 c 256
 342 240 365 250 385 272 c 256
 386 273 386 274 388 274 c 256
 391 274 400 268 400 265 c 256
 400 264 400 263 398 261 c 257
 362 211 321 185 281 185 c 256
 265 185 239 191 204 203 c 256
 168 215 144 221 132 221 c 256
 108 221 86 211 66 189 c 256
 65 188 64 187 62 186 c 256
 59 186 50 192 50 195 c 256
EndSplineSet
Validated: 1
EndChar

StartChar: bracketleft
Encoding: 91 91 89
Width: 322
VWidth: 0
Flags: HMW
LayerCount: 2
Fore
SplineSet
120 -173 m 258
 120 705 l 258
 120 711 123 714 130 714 c 258
 302 714 l 258
 307 714 310 708 310 695 c 0
 310 682 307 675 302 675 c 258
 195 675 l 258
 188 675 185 671 185 664 c 258
 185 -131 l 258
 185 -140 187 -145 192 -145 c 258
 302 -145 l 258
 307 -145 310 -152 310 -165 c 0
 310 -178 307 -184 302 -184 c 258
 131 -184 l 258
 124 -184 120 -180 120 -173 c 258
EndSplineSet
Validated: 1
EndChar

StartChar: backslash
Encoding: 92 92 90
Width: 410
VWidth: 0
Flags: HMW
LayerCount: 2
Fore
SplineSet
25 701 m 257
 26 712 56 725 67 725 c 256
 71 725 73 724 74 722 c 258
 385 -85 l 257
 384 -94 351 -109 342 -109 c 256
 339 -109 338 -108 337 -107 c 258
 25 701 l 257
EndSplineSet
Validated: 1
EndChar

StartChar: bracketright
Encoding: 93 93 91
Width: 322
VWidth: 0
Flags: HMW
LayerCount: 2
Fore
SplineSet
12 -165 m 0
 12 -152 15 -145 20 -145 c 258
 130 -145 l 258
 135 -145 137 -140 137 -131 c 258
 137 664 l 258
 137 671 134 675 127 675 c 258
 20 675 l 258
 15 675 12 682 12 695 c 0
 12 708 15 714 20 714 c 258
 192 714 l 258
 199 714 202 711 202 705 c 258
 202 -173 l 258
 202 -180 198 -184 191 -184 c 258
 20 -184 l 258
 15 -184 12 -178 12 -165 c 0
EndSplineSet
Validated: 1
EndChar

StartChar: asciicircum
Encoding: 94 94 92
Width: 526
VWidth: 0
Flags: HMW
LayerCount: 2
Fore
SplineSet
50 305 m 1
 239 663 l 1
 289 663 l 1
 476 305 l 1
 412 305 l 1
 264 590 l 1
 116 305 l 1
 50 305 l 1
EndSplineSet
Validated: 1
EndChar

StartChar: underscore
Encoding: 95 95 93
Width: 536
VWidth: 0
Flags: HMW
LayerCount: 2
Fore
SplineSet
18 -154 m 0
 18 -139 22 -124 30 -124 c 2
 506 -124 l 2
 514 -124 518 -139 518 -154 c 0
 518 -169 514 -183 506 -183 c 2
 30 -183 l 2
 22 -183 18 -169 18 -154 c 0
EndSplineSet
Validated: 1
EndChar

StartChar: grave
Encoding: 96 96 94
Width: 221
VWidth: 0
Flags: HMW
LayerCount: 2
Fore
SplineSet
50 648 m 256
 50 662 72 675 90 675 c 256
 98 675 103 672 105 667 c 258
 169 529 l 258
 171 526 171 522 171 519 c 256
 171 506 165 500 154 500 c 256
 147 500 140 505 134 514 c 258
 52 642 l 258
 51 644 50 645 50 648 c 256
EndSplineSet
Validated: 1
EndChar

StartChar: exclamdown
Encoding: 161 161 96
Width: 238
VWidth: 0
Flags: HMW
LayerCount: 2
Fore
SplineSet
60 365 m 0
 60 398 85 425 118 425 c 0
 152 425 178 404 178 370 c 0
 178 335 156 310 119 310 c 256
 82 310 60 329 60 365 c 0
73 -201 m 256
 73 -183 77 -129 86 -34 c 0
 95 61 100 141 103 206 c 256
 103 211 108 214 119 214 c 256
 130 214 135 211 135 206 c 256
 139 139 146 58 156 -36 c 0
 166 -132 171 -186 171 -207 c 256
 171 -243 154 -261 121 -261 c 256
 93 -261 73 -232 73 -201 c 256
EndSplineSet
Validated: 1
EndChar

StartChar: cent
Encoding: 162 162 97
Width: 419
VWidth: 0
Flags: HMW
LayerCount: 2
Fore
SplineSet
40 297 m 256
 40 354 59 406 98 451 c 256
 137 497 186 521 245 523 c 257
 261 615 l 258
 262 618 265 620 272 620 c 256
 293 620 304 616 304 607 c 257
 289 521 l 257
 331 517 357 506 367 487 c 256
 369 483 370 477 370 470 c 256
 370 456 352 432 340 431 c 256
 335 431 330 433 327 438 c 256
 313 457 298 471 282 480 c 257
 223 147 l 257
 234 144 246 142 257 142 c 256
 282 142 317 152 361 172 c 256
 362 172 362 172 363 173 c 256
 370 173 379 156 379 151 c 256
 379 149 378 147 377 145 c 256
 368 138 351 126 325 111 c 256
 298 96 261 88 212 87 c 257
 196 -6 l 258
 195 -9 191 -11 183 -11 c 256
 162 -11 152 -7 152 1 c 257
 169 94 l 257
 134 105 103 128 78 161 c 256
 53 194 40 240 40 297 c 256
120 320 m 256
 120 273 128 238 144 215 c 256
 161 192 174 177 183 171 c 257
 239 490 l 257
 209 489 182 472 157 439 c 256
 132 406 120 367 120 320 c 256
EndSplineSet
Validated: 1
EndChar

StartChar: sterling
Encoding: 163 163 98
Width: 549
VWidth: 0
Flags: HMW
LayerCount: 2
Fore
SplineSet
15 55 m 256
 15 101 51 129 100 129 c 256
 121 129 159 120 216 101 c 257
 223 126 227 148 227 167 c 256
 227 208 217 257 196 322 c 257
 67 322 l 258
 62 322 60 330 60 341 c 256
 60 353 62 361 67 361 c 258
 184 361 l 257
 165 414 155 463 155 507 c 256
 155 552 173 591 210 625 c 256
 247 658 291 675 344 675 c 256
 384 675 492 657 492 620 c 256
 492 559 488 529 479 516 c 256
 478 515 476 514 472 514 c 256
 468 514 463 523 458 540 c 256
 452 557 447 569 441 586 c 256
 427.101023834 625.38043247 395 652 339 652 c 256
 302 652 274 641 254 618 c 256
 234 595 224 570 224 543 c 256
 224 516 238 455 265 361 c 257
 418 361 l 258
 423 361 426 353 426 341 c 256
 426 329 423 321 418 322 c 258
 273 322 l 257
 278 293 281 265 281 230 c 256
 281 195 270 148 248 87 c 257
 307 65 351 54 380 54 c 256
 423 54 463 70 500 102 c 256
 511 113 519 118 522 118 c 256
 525 118 527 114 528 107 c 256
 528 100 524 88 515 69 c 256
 490 14 447 -11 386 -11 c 256
 345 -11 291 8 225 53 c 257
 188 15 163 -11 95 -11 c 256
 50 -11 15 13 15 55 c 256
43 55 m 256
 43 27 70 15 100 15 c 256
 137 15 170 30 200 67 c 257
 167 91 137 103 112 103 c 256
 85 103 67 98 58 87 c 256
 48 76 43 66 43 55 c 256
EndSplineSet
Validated: 1
EndChar

StartChar: currency
Encoding: 164 164 99
Width: 523
VWidth: 0
Flags: HMW
LayerCount: 2
Fore
SplineSet
50 326 m 256
 50 374 64 416 93 453 c 257
 54 492 l 258
 53 493 53 494 53 495 c 256
 53 504 83 534 92 534 c 256
 93 534 94 534 95 533 c 258
 134 495 l 257
 171 524 213 538 261 538 c 256
 309 538 352 524 389 495 c 257
 427 533 l 258
 428 534 429 534 430 534 c 256
 439 534 469 504 469 495 c 256
 469 494 469 493 468 492 c 258
 430 454 l 257
 459 417 473 374 473 326 c 256
 473 278 459 235 430 198 c 257
 468 160 l 258
 469 159 469 158 469 157 c 256
 469 148 438 118 429 118 c 256
 428 118 428 118 427 119 c 258
 389 157 l 257
 351 128 309 114 262 114 c 256
 215 114 173 129 134 158 c 257
 95 119 l 258
 94 118 94 118 93 118 c 256
 85 118 53 146 53 156 c 0
 53 158 53 159 54 160 c 258
 93 199 l 257
 64 236 50 278 50 326 c 256
93 326 m 256
 93 232 169 158 262 157 c 256
 354 157 431 233 431 325 c 256
 431 417 354 495 261 495 c 256
 169 495 93 418 93 326 c 256
EndSplineSet
Validated: 1
EndChar

StartChar: yen
Encoding: 165 165 100
Width: 661
VWidth: 0
Flags: HMW
LayerCount: 2
Fore
SplineSet
6 647 m 256
 6 660 8 666 13 666 c 256
 27 665 65 664 128 663 c 256
 191 663 230 664 245 666 c 256
 249 666 251 660 251 647 c 256
 251 634 249 628 245 628 c 256
 206 628 186 619 186 601 c 256
 186 594 189 584 196 572 c 258
 333 342 l 258
 336 337 338 335 341 335 c 256
 344 335 346 337 349 342 c 258
 495 568 l 258
 504 582 508 594 508 603 c 256
 508 620 491 628 458 628 c 0
 457 628 455 628 454 628 c 256
 449 628 447 634 447 647 c 256
 447 660 449 666 454 666 c 256
 469 665 501 664 550 663 c 256
 599 663 631 664 646 666 c 256
 650 666 652 660 653 647 c 256
 653 634 651 628 646 628 c 256
 601 628 567 610 544 575 c 258
 436 409 l 257
 535 409 l 258
 540 409 542 401 542 385 c 256
 542 368 540 360 535 360 c 258
 403 360 l 257
 393 344 l 258
 372 311 360 290 358 281 c 256
 358 280 358 280 358 279 c 257
 535 279 l 258
 540 279 542 271 542 254 c 256
 542 238 540 230 535 230 c 258
 355 230 l 257
 355 91 l 258
 355 53 382 34 436 34 c 256
 440 34 442 28 442 15 c 256
 442 2 440 -4 436 -3 c 256
 411 -1 371 0 316 0 c 256
 261 0 221 -1 197 -3 c 256
 193 -3 191 3 191 15 c 256
 191 28 193 34 197 34 c 256
 250 34 277 53 277 91 c 258
 277 230 l 257
 108 230 l 258
 103 230 101 238 101 254 c 256
 101 270 103 278 108 279 c 258
 274 279 l 257
 272 292 269 302 264 310 c 258
 233 360 l 257
 108 360 l 258
 103 360 101 368 101 385 c 256
 101 402 103 410 108 409 c 258
 203 409 l 257
 104 572 l 258
 81 609 51 628 13 628 c 256
 8 628 6 634 6 647 c 256
EndSplineSet
Validated: 1
EndChar

StartChar: brokenbar
Encoding: 166 166 101
Width: 272
VWidth: 0
Flags: HMW
LayerCount: 2
Fore
SplineSet
103 123 m 258
 103 132 119 137 134 137 c 0
 149 137 168 132 168 123 c 258
 168 -250 l 258
 168 -258 149 -262 134 -262 c 0
 119 -262 103 -258 103 -250 c 258
 103 123 l 258
103 340 m 258
 103 713 l 258
 103 721 120 725 135 725 c 0
 150 725 168 721 168 713 c 258
 168 340 l 258
 168 331 150 327 136 327 c 0
 121 327 103 332 103 340 c 258
EndSplineSet
Validated: 1
EndChar

StartChar: section
Encoding: 167 167 102
Width: 474
VWidth: 0
Flags: HMW
LayerCount: 2
Fore
SplineSet
46 260 m 256
 46 327.813476562 89.0498046875 387.782226562 139 408 c 257
 101.666992188 441.333007812 83 479.333007812 83 522 c 256
 83 609.229492188 161.916015625 673.719726562 249 675 c 256
 276.333007812 675 305.666992188 669 337 657 c 256
 369 645 385 628.666992188 385 608 c 256
 385 591.77734375 362.311523438 570 347 570 c 256
 343.666992188 570 331 581.333007812 309 604 c 256
 287.62890625 626.01953125 264.370117188 637.028320312 239.223632812 637.028320312 c 0
 187.869140625 637.028320312 149 596.34375 149 542 c 256
 149 512 173.333007812 481.333007812 222 450 c 258
 356 366 l 257
 404.666992188 328 429 284.666992188 429 236 c 256
 429 172.666992188 399.333007812 124 340 90 c 257
 382.666992188 57.3330078125 404 17.6669921875 404 -29 c 256
 404 -75 385.666992188 -114.333007812 349 -147 c 256
 312.333007812 -179.666992188 270.333007812 -195 223 -195 c 256
 191 -195 155.666992188 -188 117 -172 c 256
 77.6669921875 -156.666992188 58 -136.666992188 58 -112 c 256
 58 -97.74609375 87.3037109375 -75.26953125 100 -74 c 256
 106.666992188 -74 122 -88 146 -116 c 256
 170 -144 198 -158 230 -158 c 256
 293.411132812 -158 330 -107.736328125 330 -45 c 256
 330 -14.3330078125 305.333007812 17.6669921875 256 51 c 257
 120 137 l 257
 70.6669921875 174.333007812 46 215.333007812 46 260 c 256
105 301 m 256
 105 265 120 237 150 217 c 258
 313 110 l 257
 349.666992188 136 368 169.333007812 368 210 c 256
 368 250 331.666992188 290.333007812 259 331 c 256
 223 351 191.333007812 370.666992188 164 390 c 257
 124.666992188 366.666992188 105 337 105 301 c 256
EndSplineSet
Validated: 1
EndChar

StartChar: dieresis
Encoding: 168 168 103
Width: 392
Flags: HMW
LayerCount: 2
Fore
SplineSet
50.5 584 m 0
 50.5 613.098632812 73.3759765625 637 102.5 637 c 0
 131.598632812 637 155.5 613.09765625 155.5 584 c 256
 155.5 554.875 131.59765625 532 102.5 532 c 0
 73.375 532 50.5 554.875976562 50.5 584 c 0
236.5 584 m 0
 236.5 612.83203125 260.315429688 637 289 637 c 0
 317.684570312 637 341.5 612.830078125 341.5 584 c 256
 341.5 555.138671875 317.6875 532 289 532 c 0
 260.313476562 532 236.5 555.140625 236.5 584 c 0
EndSplineSet
Validated: 1
EndChar

StartChar: copyright
Encoding: 169 169 104
Width: 784
VWidth: 0
Flags: HMW
LayerCount: 2
Fore
SplineSet
208 342 m 256
 208 423 248 480 300 511 c 0
 327 527 361 535 401 535 c 256
 417 535 433 534 448 531 c 0
 463 528 485 524 513 519 c 257
 518 496 522 472 522 441 c 257
 521 438 518 437 512 437 c 0
 506 437 503 437 502 440 c 256
 497 492 460 514 394 515 c 256
 358 515 327 499 301 467 c 0
 275 435 263 399 263 357 c 256
 263 308 275 268 301 236 c 0
 327 204 358 187 395 187 c 256
 458 187 496 207 513 254 c 256
 514 256 517 256 521 256 c 0
 528 256 531 255 531 250 c 256
 524 217 517 197 507 184 c 257
 501 183 495 182 487 179 c 256
 461 170 427 166 386 166 c 256
 315 166 261 205 232 251 c 0
 216 277 208 307 208 342 c 256
40 352 m 256
 40 449.333007812 74.3330078125 532.333007812 143 601 c 256
 211.666992188 669.666992188 294.666992188 704 392 704 c 256
 489.333007812 704 572.333007812 669.666992188 641 601 c 256
 709.666992188 532.333007812 744 449.333007812 744 352 c 256
 744 254.666992188 709.666992188 171.666992188 641 103 c 256
 572.333007812 34.3330078125 489.333007812 0 392 0 c 256
 294.666992188 0 211.666992188 34.3330078125 143 103 c 256
 74.3330078125 171.666992188 40 254.666992188 40 352 c 256
74 356 m 256
 74 270.666992188 104 195.666992188 164 131 c 256
 224 66.3330078125 298.666992188 34 388 34 c 256
 478 34 554 65 616 127 c 256
 678.666992188 189.666992188 710 264.666992188 710 352 c 256
 710 440 679 515 617 577 c 256
 555 639 480 670 392 670 c 256
 304 670 229 639 167 577 c 256
 105 515 74 441.333007812 74 356 c 256
EndSplineSet
Validated: 1
EndChar

StartChar: registered
Encoding: 174 174 105
Width: 784
VWidth: 0
Flags: HMW
LayerCount: 2
Fore
SplineSet
236 523 m 0
 236 530 237 534 240 534 c 256
 261 533 272 533 289 533 c 0
 317 533 358 534 384 534 c 256
 460 534 518 505 518 435 c 256
 518 387 494 356 444 344 c 256
 442 343 440 341 440 338 c 0
 440 335 448 321 462 299 c 0
 476 277 498 251 525 223 c 0
 552 195 570 181 587 181 c 256
 590 181 591 178 591 175 c 0
 591 172 590 170 587 170 c 258
 574 170 l 258
 544 170 519 175 503 187 c 0
 487 199 472 213 459 229 c 0
 446 245 431 265 416 287 c 0
 401 309 391 323 386 326 c 0
 381 329 373 331 363 331 c 0
 349 331 344 332 335 332 c 0
 332 332 328 331 328 327 c 258
 328 226 l 258
 328 206 338 196 372 196 c 256
 374 196 376 190 376 184 c 0
 376 179 375 174 372 174 c 256
 358 175 341 176 307 176 c 0
 273 176 254 175 240 174 c 256
 238 174 237 178 237 185 c 0
 237 192 238 195 240 196 c 256
 272 196 282 206 282 226 c 258
 282 483 l 258
 282 502 273 512 240 512 c 256
 237 512 236 516 236 523 c 0
328 361 m 258
 328 349 346 349 362 349 c 0
 364 349 364 349 366 349 c 256
 434 349 468 378 468 434 c 256
 468 457 459 476 441 492 c 0
 423 508 397 516 364 516 c 258
 341 516 l 258
 333 516 328 513 328 508 c 258
 328 361 l 258
40 352 m 256
 40 449.333007812 74.3330078125 532.333007812 143 601 c 256
 211.666992188 669.666992188 294.666992188 704 392 704 c 256
 489.333007812 704 572.333007812 669.666992188 641 601 c 256
 709.666992188 532.333007812 744 449.333007812 744 352 c 256
 744 254.666992188 709.666992188 171.666992188 641 103 c 256
 572.333007812 34.3330078125 489.333007812 0 392 0 c 256
 294.666992188 0 211.666992188 34.3330078125 143 103 c 256
 74.3330078125 171.666992188 40 254.666992188 40 352 c 256
74 355 m 256
 74 269 104.333007812 194 165 130 c 256
 225.666992188 66 300.333007812 34 389 34 c 256
 478.333007812 34 554 65 616 127 c 256
 678.666992188 189 710 264 710 352 c 256
 710 440 679 515 617 577 c 256
 555 639 480 670 392 670 c 256
 304 670 229 639 167 577 c 256
 105 515 74 441 74 355 c 256
EndSplineSet
Validated: 1
EndChar

StartChar: ordfeminine
Encoding: 170 170 106
Width: 251
VWidth: 0
Flags: HMW
LayerCount: 2
Fore
SplineSet
19 303 m 257
 19 327 39.6666666667 349.666666667 81 371 c 257
 125 392 l 257
 131.666666667 396 135 400.666666667 135 406 c 257
 135 461 l 257
 135 475 126 482 108 482 c 257
 90 482 77.3333333333 477.333333333 70 468 c 257
 68.6666666667 465.333333333 66 460.333007812 66 451 c 257
 66 441.666992188 65 436 64 432 c 257
 59.3330078125 414.666992188 53.3330078125 407 40 407 c 257
 22.6669921875 407 16 416 16 430 c 257
 16 444 18.3333333333 454.666666667 29 470 c 257
 35 478.666666667 41.3333333333 485 48 489 c 257
 71.3333333333 503.666666667 97 511 125 511 c 257
 146.333333333 511 164.333333333 506.333333333 179 497 c 257
 193.666666667 487.666666667 201.333333333 476.333333333 202 463 c 257
 202 314 l 257
 202 292 208.666992188 279 222 279 c 257
 228 279 231 280.666992188 239 288 c 257
 239.666992188 288.666992188 240.333007812 288.666992188 241 288 c 256
 242.333007812 288 244.333007812 287 247 285 c 257
 249.666992188 283 250.666992188 281.333007812 250 280 c 257
 250 278.666992188 249.666992188 277.333007812 249 276 c 257
 238.192701447 255.656575882 224.656680128 248.95321334 201.455237007 248.95321334 c 0
 200.326628093 248.95321334 199.175148568 248.969075038 198 249 c 257
 180 249 164 256.666666667 150 272 c 257
 147.333333333 276 145.333333333 278 144 278 c 257
 142 278 139.333333333 276.333333333 136 273 c 257
 120 257 101.666666667 249 81 249 c 257
 60.3333333333 249 44.6666666667 254 34 264 c 257
 24 274 19 287 19 303 c 257
86 316 m 257
 86 293.333333333 93 282 107 282 c 257
 125.666666667 282 135 292 135 312 c 257
 135 366 l 257
 135 370.666666667 133.666666667 373 131 373 c 257
 129.666666667 373 128.333333333 372.666666667 127 372 c 257
 99.6666666667 358 86 339.333333333 86 316 c 257
EndSplineSet
Validated: 1
EndChar

StartChar: guillemotleft
Encoding: 171 171 107
Width: 427
VWidth: 0
Flags: HMW
LayerCount: 2
Fore
SplineSet
50 220 m 256
 50 229.333007812 54 238 62 246 c 258
 208 399 l 258
 209.333007812 400.333007812 211 401 213 401 c 256
 218.0546875 401 227 394.068359375 227 388 c 256
 227 386.666992188 226.666992188 385.333007812 226 384 c 258
 129 240 l 258
 125 234 123.333007812 227.333007812 124 220 c 256
 124 212.666992188 125.666992188 206 129 200 c 258
 226 59 l 258
 227.333007812 57.6669921875 228 55.6669921875 228 53 c 256
 228 49.2939453125 218.565429688 38.478515625 214 40 c 256
 211.333007812 40 209.333007812 40.6669921875 208 42 c 258
 62 195 l 258
 54 202.333007812 50 210.666992188 50 220 c 256
200 220 m 256
 200 229.333007812 203.666992188 238 211 246 c 258
 357 399 l 258
 358.333007812 400.333007812 360.333007812 401 363 401 c 256
 368.0546875 401 377 394.068359375 377 388 c 256
 377 386.666992188 376.333007812 385.333007812 375 384 c 258
 279 240 l 258
 275 234 273 227.333007812 273 220 c 256
 273 212.666992188 275 206 279 200 c 258
 375 59 l 258
 376.333007812 57 377 55 377 53 c 256
 377 47.3095703125 368.376953125 38.65625 363 40 c 256
 360.333007812 40 358.333007812 40.6669921875 357 42 c 258
 211 195 l 258
 203.666992188 202.333007812 200 210.666992188 200 220 c 256
EndSplineSet
Validated: 1
EndChar

StartChar: logicalnot
Encoding: 172 172 108
Width: 612
VWidth: 1005
Flags: HMW
LayerCount: 2
Fore
SplineSet
50 339 m 1
 562 339 l 1
 562 76 l 1
 513 76 l 1
 513 290 l 1
 50 290 l 1
 50 339 l 1
EndSplineSet
Validated: 1
EndChar

StartChar: macron
Encoding: 175 175 110
Width: 353
Flags: HMW
LayerCount: 2
Fore
SplineSet
50 579 m 0
 50 594.333007812 55 603 65 603 c 258
 289 603 l 258
 298 603 303 594.333007812 303 579 c 0
 303 563.666992188 298 555 287 555 c 258
 65 555 l 258
 55 555 50 563.666992188 50 579 c 0
EndSplineSet
Validated: 1
EndChar

StartChar: degree
Encoding: 176 176 111
Width: 368
VWidth: 0
Flags: HMW
LayerCount: 2
Fore
SplineSet
50 485 m 256
 50 563.501953125 110.786132812 614 190 614 c 256
 224 614 253.833007812 602 279.5 578 c 0
 305.166992188 554 318 520.666992188 318 478 c 256
 318 402.723632812 256.130859375 356 177 356 c 256
 104.631835938 356 50 413.01171875 50 485 c 256
106 485 m 256
 106 429.515625 133.868164062 391 192 391 c 256
 209.333007812 391 225.333007812 400 240 418 c 256
 254.666992188 435.333007812 262 461 262 495 c 256
 262 512.333007812 255.5 530.666992188 242.5 550 c 0
 229.5 569.333007812 207.333007812 579 176 579 c 256
 134.622070312 579 106 530.384765625 106 485 c 256
EndSplineSet
Validated: 1
EndChar

StartChar: minus
Encoding: 8722 8722 113
Width: 485
VWidth: 0
Flags: HMW
AnchorPoint: "overlay" 243 230 basechar 0
LayerCount: 2
Fore
SplineSet
50 201 m 257
 50 260 l 257
 435 260 l 257
 435 201 l 257
 50 201 l 257
EndSplineSet
Validated: 1
EndChar

StartChar: uni00B2
Encoding: 178 178 114
Width: 306
VWidth: 0
Flags: HMW
LayerCount: 2
Fore
SplineSet
7.36328125 287.15625 m 0
 7.36328125 291.20703125 9.3291015625 295.05078125 13.404296875 298.625 c 0
 46.6240234375 333.59375 78.05859375 374.122070312 109.834960938 420.20703125 c 0
 162.793945312 496.762695312 189.42578125 554.453125 189.42578125 593.564453125 c 0
 189.42578125 638.5 171.372070312 661.53125 135.442382812 661.53125 c 0
 104.642578125 661.53125 79.2509765625 643.364257812 59.3740234375 607.495117188 c 0
 58.42578125 605.78515625 57.962890625 604.706054688 54.99609375 604.706054688 c 0
 50.4736328125 604.706054688 40.1767578125 610.545898438 40.1767578125 614.734375 c 0
 40.1767578125 615.1328125 40.4384765625 616.13671875 41.1162109375 617.5625 c 0
 57.982421875 651.590820312 79.3642578125 676.661132812 105.278320312 692.879882812 c 0
 122.056640625 703.182617188 140.209960938 708.328125 159.787109375 708.328125 c 0
 220.25390625 708.328125 266.6953125 661.713867188 266.6953125 596.907226562 c 0
 266.6953125 557.31640625 238.328125 502.872070312 181.208984375 433.83984375 c 0
 169.6953125 419.581054688 137.600585938 384.311523438 90.4921875 336.181640625 c 1
 185.19140625 336.181640625 l 2
 231.029296875 336.181640625 243.14453125 339.309570312 259.109375 367.876953125 c 0
 260.298828125 369.754882812 262.4296875 371.119140625 265.740234375 371.8359375 c 0
 271.704101562 371.728515625 283.690429688 362.395507812 283.711914062 360.00390625 c 2
 254.087890625 284.274414062 l 2
 250.809570312 276.682617188 242.8984375 272.671875 229.6484375 272.671875 c 0
 204.852539062 272.671875 177.869140625 274.899414062 153.436523438 274.899414062 c 2
 129.047851562 274.899414062 l 1
 77.224609375 272.671875 l 1
 23.2412109375 272.671875 l 2
 12.3388671875 272.671875 7.36328125 277.397460938 7.36328125 287.15625 c 0
EndSplineSet
Validated: 1
EndChar

StartChar: uni00B3
Encoding: 179 179 115
Width: 282
VWidth: 0
Flags: HMW
LayerCount: 2
Fore
SplineSet
13.21484375 320.811523438 m 0
 13.21484375 340.870117188 25.1494140625 350.895507812 50.26171875 350.895507812 c 0
 58.9765625 350.895507812 68.2568359375 345.223632812 78.046875 333.4453125 c 2
 93.9697265625 314.452148438 l 2
 103.98046875 303.915039062 114.477539062 298.52734375 125.4140625 298.52734375 c 0
 163.44921875 298.52734375 184.787109375 351.139648438 184.787109375 399.266601562 c 0
 184.787109375 401.334960938 184.754882812 403.385742188 184.69140625 405.491210938 c 0
 184.69140625 455.103515625 155.111328125 496.6015625 108.478515625 496.6015625 c 0
 96.4306640625 496.6015625 85.0673828125 494.353515625 74.41015625 489.85546875 c 0
 69.966796875 490.002929688 67.197265625 495.185546875 67.197265625 507.849609375 c 0
 67.197265625 519.3203125 69.4521484375 523.59765625 72.490234375 523.59765625 c 0
 123.616210938 523.59765625 169.87109375 550.357421875 169.87109375 603.8203125 c 0
 169.87109375 636.827148438 154.418945312 669.559570312 122.240234375 669.559570312 c 0
 102.833007812 669.559570312 84.865234375 660.025390625 68.4951171875 641.294921875 c 0
 62.12890625 633.10546875 56.46875 625.284179688 51.51171875 617.829101562 c 0
 50.6953125 616.602539062 50.7666015625 615.798828125 49.0048828125 615.798828125 c 0
 48.5224609375 615.798828125 47.8515625 615.91015625 47.2177734375 616.077148438 c 2
 47.0859375 616.077148438 l 2
 41.7822265625 616.077148438 33.5166015625 623.787109375 32.2724609375 628.455078125 c 0
 32.3173828125 628.993164062 32.6201171875 630.359375 33.2275390625 632.296875 c 0
 52.908203125 663.348632812 71.8974609375 683.987304688 89.9755859375 694.233398438 c 0
 106.044921875 704.530273438 123.485351562 709.670898438 142.3515625 709.670898438 c 0
 193.370117188 709.670898438 237.615234375 666.462890625 237.615234375 611.620117188 c 0
 237.615234375 574.918945312 219.916015625 545.963867188 184.168945312 524.567382812 c 2
 182.016601562 523.275390625 l 1
 184.38671875 522.51953125 l 2
 233.36328125 506.895507812 258.084960938 470.66796875 258.78515625 413.291015625 c 0
 258.78515625 328.390625 188.282226562 268.624023438 109.537109375 267.329101562 c 0
 66.40234375 267.329101562 13.21484375 282.015625 13.21484375 320.811523438 c 0
EndSplineSet
Validated: 1
EndChar

StartChar: acute
Encoding: 180 180 116
Width: 221
VWidth: 0
Flags: HMW
LayerCount: 2
Fore
SplineSet
50 519 m 256
 50 522.333007812 50 526 52 529 c 258
 116 667 l 258
 118 672 123 675 131 675 c 256
 149.051757812 675 171 661.724609375 171 648 c 256
 171 645.333007812 170 644 169 642 c 258
 87 514 l 258
 81 505 74.3330078125 500 67 500 c 256
 55.6669921875 500 50 506.333007812 50 519 c 256
EndSplineSet
Validated: 1
EndChar

StartChar: mu
Encoding: 181 181 117
Width: 523
VWidth: 0
Flags: HMW
LayerCount: 2
Fore
SplineSet
20 397 m 0
 20 406.333007812 23 411 29 411 c 256
 52.2900390625 411 129.940429688 419 149 419 c 0
 153 419 155 417.5 155 414.5 c 0
 155 394.243164062 151 355.143554688 151 328 c 258
 151 123 l 258
 151 62.3330078125 178.333007812 32 233 32 c 256
 323.666992188 32 369 67.6669921875 369 139 c 258
 369 312 l 258
 369 359.229492188 358.701171875 383.012695312 323.426757812 383.012695312 c 0
 322.955078125 383.012695312 322.478515625 383.008789062 322 383 c 256
 316.666992188 383 314 387.666992188 314 397 c 0
 314 406.333007812 316.666992188 411 322 411 c 256
 349.69921875 411 415.944335938 419 438.5 419 c 0
 444.166992188 419 447 416.833007812 447 412.5 c 0
 447 393.418945312 444 353.045898438 444 329 c 258
 444 125 l 258
 444 83 448.333007812 58.5 457 51.5 c 0
 465.666992188 44.5 470 40 478 40 c 256
 492.87109375 40 489.932617188 42 500 42 c 256
 506.165039062 42 508 26.6904296875 508 20 c 256
 508 16.6669921875 506.341796875 14.6240234375 503 14 c 256
 453 4.6669921875 416 -3 378 -16 c 257
 370.666992188 -16 369 -7.3330078125 369 8 c 258
 369 28 l 258
 369 38.765625 366.637695312 42.603515625 362.982421875 42.603515625 c 0
 359.278320312 42.603515625 354.247070312 38.6640625 349 34 c 256
 315.666992188 4 270.666992188 -11 214 -11 c 256
 186.666992188 -11 163.333007812 -4.6669921875 144 8 c 257
 141.333007812 -12 140 -34.5 140 -59.5 c 0
 140 -107.209960938 146 -142.553710938 146 -188 c 256
 146 -222.666992188 129.666992188 -240 97 -240 c 256
 68.3330078125 -240 54 -224.333007812 54 -193 c 0
 54 -161.666992188 58 -119.5 66 -66.5 c 0
 74 -13.5 76 57.3330078125 76 146 c 258
 76 312 l 258
 76 359.229492188 65.701171875 383.012695312 30.4267578125 383.012695312 c 0
 29.955078125 383.012695312 29.478515625 383.008789062 29 383 c 256
 23 383 20 387.666992188 20 397 c 0
EndSplineSet
Validated: 1
EndChar

StartChar: paragraph
Encoding: 182 182 118
Width: 515
VWidth: 0
Flags: HMW
LayerCount: 2
Fore
SplineSet
20 539 m 256
 20 651.548828125 117.697265625 715 233 715 c 256
 275.12109375 715 363.03515625 713 401 713 c 256
 416.333007812 713 442 714 478 716 c 256
 482.666992188 716 485 711.333007812 485 702 c 256
 485 692.666992188 482.666992188 688 478 688 c 256
 439.333007812 688 424 675.333007812 424 650 c 258
 424 62 l 258
 424 37 439.333007812 24 478 24 c 256
 482.666992188 24 485 19.3330078125 485 10 c 256
 485 0.6669921875 482.666992188 -4 478 -4 c 256
 450.666992188 -1.3330078125 425 0 401 0 c 258
 276 0 l 258
 249.333007812 0 223.666992188 -1.3330078125 195 -4 c 256
 190.333007812 -4 188 0.6669921875 188 10 c 256
 188 19.3330078125 190.333007812 24 195 24 c 256
 233 24 250 36 250 61 c 258
 250 319 l 258
 250 334.333007812 241.666992188 342.666992188 225 344 c 256
 153.666992188 348 101.666992188 368 69 404 c 256
 36.3330078125 440 20 485 20 539 c 256
299 62 m 258
 299 37 310.333007812 24 337 24 c 256
 363.666992188 24 375 36 375 61 c 258
 375 650 l 258
 375 674 363.666992188 686.333007812 337 687 c 256
 310.333007812 687 299 674.666992188 299 650 c 258
 299 62 l 258
EndSplineSet
Validated: 1
EndChar

StartChar: cedilla
Encoding: 184 184 120
Width: 262
VWidth: 0
Flags: HMW
LayerCount: 2
Fore
SplineSet
50 -186 m 256
 50 -168.666992188 58.3330078125 -160 75 -160 c 256
 82.3330078125 -160 92 -165 104 -175 c 256
 115.333007812 -184.333007812 123.333007812 -189 128 -189 c 256
 146 -189 155 -178 155 -156 c 256
 155 -134 137.666992188 -114 103 -96 c 256
 97 -92.6669921875 94 -89.3330078125 94 -86 c 256
 94 -82.6669921875 95 -80 97 -78 c 258
 149 0 l 257
 185 0 l 257
 157 -39 l 258
 155.666992188 -41 154.666992188 -43.3330078125 154 -46 c 256
 154 -48.6669921875 155.666992188 -51.3330078125 159 -54 c 256
 194.333007812 -78 212 -103.666992188 212 -131 c 256
 212 -159 201.333007812 -181 180 -197 c 256
 158 -213 134 -221 108 -221 c 256
 69.3330078125 -221 50 -209.333007812 50 -186 c 256
EndSplineSet
Validated: 1
EndChar

StartChar: uni00B9
Encoding: 185 185 121
Width: 230
VWidth: 0
Flags: HMW
LayerCount: 2
Fore
SplineSet
19.734375 639.67578125 m 0
 19.734375 642.360351562 20.6611328125 643.658203125 22.2685546875 644.22265625 c 0
 52.0283203125 657.6484375 88.072265625 681.092773438 130.453125 714.549804688 c 0
 135.986328125 718.918945312 141.068359375 721.013671875 145.697265625 721.013671875 c 0
 153.84375 721.013671875 157.415039062 717.626953125 157.415039062 710.599609375 c 0
 157.415039062 710.041992188 157.388671875 709.365234375 157.33984375 708.756835938 c 0
 157.33984375 686.728515625 155.22265625 674.729492188 155.22265625 651.932617188 c 2
 155.22265625 365.580078125 l 2
 155.22265625 319.224609375 172.521484375 295.029296875 207.08984375 294.271484375 c 0
 208.655273438 294.271484375 210.265625 291.586914062 210.265625 283.12890625 c 0
 210.265625 274.670898438 208.748046875 271.982421875 207.182617188 271.982421875 c 0
 190.880859375 273.474609375 161.58984375 274.21484375 119.234375 274.21484375 c 0
 76.87890625 274.21484375 47.6796875 273.478515625 31.37890625 271.987304688 c 0
 28.9609375 271.987304688 27.14453125 274.831054688 27.14453125 283.12890625 c 0
 27.14453125 291.426757812 28.9609375 294.271484375 31.37890625 294.271484375 c 0
 68.0078125 294.271484375 86.439453125 317.163085938 86.439453125 361.884765625 c 0
 86.439453125 362.7421875 86.4345703125 363.590820312 86.419921875 364.466796875 c 2
 86.419921875 628.534179688 l 2
 86.419921875 639.877929688 85.623046875 647.538085938 81.5859375 647.538085938 c 0
 64.75390625 647.538085938 44.5107421875 634.771484375 29.015625 627.411132812 c 0
 28.1064453125 627.350585938 27.099609375 626.955078125 25.8642578125 626.318359375 c 0
 22.9375 626.668945312 19.734375 633.821289062 19.734375 639.67578125 c 0
EndSplineSet
Validated: 1
EndChar

StartChar: ordmasculine
Encoding: 186 186 122
Width: 302
VWidth: 0
Flags: HMW
LayerCount: 2
Fore
SplineSet
20 376 m 256
 20 411.333333333 31.6666666667 442.666666667 55 470 c 0
 78.3333333333 497.333333333 110.833333333 511 152.5 511 c 0
 194.166666667 511 226.5 497.333333333 249.5 470 c 0
 272.5 442.666666667 284 410.833333333 284 374.5 c 0
 284 300.69960968 230.219413873 249 155.5 249 c 0
 81.8206135569 249 20 303.556987392 20 376 c 256
93 375 m 256
 93 341 99.1666666667 315.666666667 111.5 299 c 0
 123.833333333 282.333333333 138.166666667 274 154.5 274 c 0
 195.541583616 274 209 336.771555244 209 384.5 c 0
 209 416.833333333 203 442.166666667 191 460.5 c 0
 179 478.833333333 165.5 488 150.5 488 c 0
 135.5 488 122.166666667 477.666666667 110.5 457 c 0
 98.8333333333 436.333333333 93 409 93 375 c 256
EndSplineSet
Validated: 1
EndChar

StartChar: guillemotright
Encoding: 187 187 123
Width: 427
VWidth: 0
Flags: HMW
LayerCount: 2
Fore
SplineSet
50 52 m 256
 50 53.3330078125 50.6669921875 55 52 57 c 258
 148 200 l 258
 152 206 154 212.666992188 154 220 c 256
 154 227.333007812 152 234 148 240 c 258
 52 382 l 258
 50.6669921875 383.333007812 50 385 50 387 c 256
 50 393.10546875 57.630859375 401 64 401 c 256
 66 401 68 400.333007812 70 399 c 258
 216 246 l 258
 224 238 228 229.333007812 228 220 c 256
 228 210.666992188 224 202.333007812 216 195 c 258
 70 42 l 258
 68.6669921875 40.6669921875 66.6669921875 40 64 40 c 256
 59.548828125 40 50 46.771484375 50 52 c 256
200 52 m 256
 200 53.3330078125 200.666992188 55 202 57 c 258
 298 200 l 258
 302 206 304 212.666992188 304 220 c 256
 304 227.333007812 302 234 298 240 c 258
 202 382 l 258
 200.666992188 383.333007812 200 385.333007812 200 388 c 256
 200 393.077148438 209.408203125 401 214 401 c 256
 216.666992188 401 218.666992188 400.333007812 220 399 c 258
 366 246 l 258
 374 238 377.666992188 229.333007812 377 220 c 256
 377 210.666992188 373.333007812 202.333007812 366 195 c 258
 220 42 l 258
 218.666992188 40.6669921875 216.666992188 40 214 40 c 256
 209.142578125 40 201.03125 47.8740234375 200 52 c 256
EndSplineSet
Validated: 1
EndChar

StartChar: uni2070
Encoding: 8304 8304 124
Width: 319
VWidth: 0
Flags: HMW
LayerCount: 2
Fore
SplineSet
22.224609375 492 m 0
 22.224609375 542 30.775390625 586 46.9248046875 623 c 0
 70.6748046875 680 107.724609375 708 159.025390625 708 c 0
 213.174804688 708 252.125 678 275.875 616 c 0
 290.125 578 296.775390625 533 296.775390625 483 c 0
 296.775390625 439 289.174804688 398 273.974609375 362 c 0
 250.224609375 300 212.224609375 270 159.025390625 270 c 0
 103.924804688 270 64.974609375 300 42.1748046875 363 c 0
 28.875 400 22.224609375 443 22.224609375 492 c 0
97.275390625 496 m 0
 97.275390625 440 100.125 398 105.825195312 371 c 0
 116.275390625 323 134.325195312 298 159.025390625 297 c 0
 200.80552759 297 220.807703913 360.039304954 220.807703913 472.115837269 c 0
 220.807703913 474.717525383 220.796925413 477.345638011 220.775390625 480 c 0
 220.775390625 539 216.025390625 587 208.424804688 623 c 0
 199.875 661 183.724609375 681 159.974609375 681 c 0
 126.724609375 681 106.775390625 641 100.125 564 c 0
 99.1748046875 545 97.275390625 522 97.275390625 496 c 0
EndSplineSet
Validated: 1
EndChar

StartChar: uni2074
Encoding: 8308 8308 125
Width: 311
VWidth: 0
Flags: HMW
LayerCount: 2
Fore
SplineSet
7.2197265625 411.40625 m 0
 7.2197265625 421.396484375 12.697265625 434.946289062 23.94140625 451.9609375 c 2
 112.856445312 576.622070312 l 2
 151.677734375 631.290039062 176.379882812 667.603515625 187.008789062 685.645507812 c 2
 215.552734375 735 l 2
 218.11328125 738.327148438 222.310546875 740.098632812 228.4453125 740.098632812 c 0
 245.951171875 740.098632812 253.849609375 734.323242188 253.849609375 723.255859375 c 0
 253.849609375 721.98046875 253.547851562 720.266601562 252.899414062 718.169921875 c 2
 61.3798828125 451.020507812 l 2
 59.8447265625 448.596679688 59.0859375 445.765625 59.0859375 442.604492188 c 0
 59.0859375 438.413085938 61.283203125 435.658203125 65.228515625 434.827148438 c 2
 177.638671875 434.8046875 l 1
 177.638671875 576.309570312 l 2
 177.638671875 579.079101562 187.577148438 581.880859375 211.509765625 581.880859375 c 0
 235.442382812 581.880859375 245.381835938 579.079101562 245.381835938 576.309570312 c 2
 245.381835938 434.8046875 l 1
 251.909179688 435.362304688 258.436523438 435.640625 264.963867188 435.640625 c 0
 271.491210938 435.640625 278.01953125 435.362304688 284.546875 434.8046875 c 0
 285.88671875 434.8046875 288.045898438 429.419921875 288.780273438 414.749023438 c 0
 288.780273438 400.055664062 286.75 394.639648438 285.038085938 394.639648438 c 0
 284.954101562 394.639648438 284.859375 394.650390625 284.755859375 394.671875 c 2
 246.440429688 394.693359375 l 1
 245.381835938 394.693359375 l 1
 245.381835938 323.383789062 l 2
 245.381835938 303.423828125 256.645507812 293.30078125 278.1953125 293.30078125 c 0
 279.69921875 293.30078125 281.924804688 287.490234375 281.924804688 280.344726562 c 0
 281.924804688 274.13671875 280.374023438 269.897460938 278.288085938 269.897460938 c 0
 262.0234375 271.385742188 240.4609375 272.9296875 213.626953125 273.244140625 c 0
 209.471679688 273.29296875 205.438476562 273.31640625 201.52734375 273.31640625 c 0
 170.926757812 273.31640625 147.78515625 271.8828125 132.068359375 269.903320312 c 0
 130.544921875 269.969726562 128.947265625 272.846679688 128.947265625 281.6015625 c 0
 128.947265625 290.459960938 130.583984375 293.30078125 132.123046875 293.30078125 c 0
 161.869140625 293.30078125 177.638671875 303.140625 177.638671875 323.383789062 c 2
 177.638671875 394.692382812 l 1
 33.640625 394.692382812 l 2
 32.6337890625 394.65234375 31.6552734375 394.631835938 30.7080078125 394.631835938 c 0
 14.54296875 394.631835938 7.2197265625 400.319335938 7.2197265625 411.40625 c 0
EndSplineSet
Validated: 1
EndChar

StartChar: uni2075
Encoding: 8309 8309 126
Width: 296
VWidth: 0
Flags: HMW
LayerCount: 2
Fore
SplineSet
18.2431640625 315.412109375 m 0
 18.2431640625 337.125976562 31.291015625 348.837890625 52.115234375 348.837890625 c 0
 64.47265625 348.837890625 75.1025390625 343.088867188 84.119140625 331.409179688 c 0
 99.033203125 312.717773438 114.116210938 303.155273438 129.385742188 303.155273438 c 0
 172.5859375 303.155273438 205.59765625 355.30859375 205.59765625 403.434570312 c 0
 205.59765625 464.609375 165.350585938 504.827148438 106.098632812 504.827148438 c 0
 92.3740234375 504.827148438 69.244140625 503.817382812 56.103515625 497.029296875 c 0
 49.513671875 497.094726562 46.734375 499.784179688 46.734375 505.275390625 c 0
 56.0263671875 566.96875 65.7587890625 627.37109375 76.44140625 687.350585938 c 0
 78.4658203125 698.709960938 85.3076171875 704.270507812 97.6298828125 704.270507812 c 2
 253.229492188 704.270507812 l 2
 253.331054688 704.270507812 254.288085938 703.501953125 254.288085938 698.700195312 c 0
 254.288085938 678.922851562 244.578125 645.217773438 241.586914062 645.217773438 c 2
 113.508789062 645.217773438 l 2
 106.530273438 645.217773438 101.778320312 643.875 100.83984375 639.926757812 c 0
 95.8837890625 619.802734375 92.6953125 598.858398438 91.2802734375 577.250976562 c 0
 91.2802734375 573.979492188 92.4921875 571.494140625 95.2783203125 571.494140625 c 0
 103.7890625 572.986328125 112.280273438 573.908203125 118.80078125 573.908203125 c 0
 203.61328125 573.908203125 262.756835938 526.634765625 262.756835938 437.974609375 c 0
 262.756835938 340.083984375 192.01953125 269.729492188 102.922851562 269.729492188 c 0
 72.6923828125 269.729492188 49.939453125 275.322265625 34.6806640625 286.2734375 c 0
 23.6376953125 293.5390625 18.2431640625 303.180664062 18.2431640625 315.412109375 c 0
EndSplineSet
Validated: 1
EndChar

StartChar: uni2076
Encoding: 8310 8310 127
Width: 303
VWidth: 0
Flags: HMW
LayerCount: 2
Fore
SplineSet
22.8916015625 427.918945312 m 0
 22.8916015625 568.206054688 138.11328125 682.896484375 237.973632812 725.413085938 c 1
 239.884765625 725.413085938 l 2
 242.533203125 725.413085938 248.352539062 715.318359375 248.352539062 709.814453125 c 0
 248.352539062 707.82421875 247.73828125 706.8359375 246.780273438 706.331054688 c 0
 176.560546875 665.077148438 124.909179688 591.39453125 103.368164062 498.009765625 c 2
 102.19140625 492.866210938 l 1
 105.234375 497.055664062 l 2
 119.465820312 516.6484375 141.216796875 532.654296875 172.141601562 532.654296875 c 0
 233.452148438 532.654296875 280.108398438 473.541015625 280.108398438 405.634765625 c 0
 280.108398438 328.625976562 219.83984375 268.586914062 148.854492188 268.586914062 c 0
 69.166015625 268.586914062 22.8916015625 337.744140625 22.8916015625 427.918945312 c 0
93.8115234375 427.918945312 m 0
 93.8115234375 344.016601562 114.309570312 300.899414062 156.262695312 300.899414062 c 0
 194.671875 300.899414062 212.747070312 342.872070312 214.479492188 386.646484375 c 0
 214.479492188 430.494140625 188.194335938 484.744140625 146.737304688 484.744140625 c 0
 127.208007812 484.744140625 110.318359375 475.659179688 95.998046875 457.977539062 c 1
 94.5517578125 449.436523438 93.8115234375 439.484375 93.8115234375 427.918945312 c 0
EndSplineSet
Validated: 1
EndChar

StartChar: uni2077
Encoding: 8311 8311 128
Width: 287
VWidth: 0
Flags: HMW
LayerCount: 2
Fore
SplineSet
22.76953125 606.447265625 m 0
 22.76953125 606.694335938 22.7763671875 606.883789062 22.8134765625 607.161132812 c 2
 38.6953125 686.30078125 l 2
 41.2734375 701.220703125 41.4873046875 702.590820312 54.6572265625 704.328125 c 1
 265.232421875 704.328125 l 2
 277.158203125 704.328125 282.16796875 700.748046875 282.16796875 694.274414062 c 0
 282.16796875 693.131835938 281.5078125 690.904296875 280.125 687.983398438 c 2
 124.504882812 274.595703125 l 2
 123.451171875 271.262695312 114.817382812 268.671875 96.9306640625 268.671875 c 0
 78.80078125 268.671875 64.904296875 271.240234375 55.263671875 276.249023438 c 0
 54.9970703125 276.69921875 54.6171875 278.140625 54.591796875 280.671875 c 1
 225.6484375 648.6171875 l 1
 131.861328125 648.6171875 l 2
 85.88671875 648.6171875 60.4765625 639.181640625 48.314453125 605.577148438 c 0
 47.169921875 602.5625 43.572265625 600.706054688 36.5966796875 600.706054688 c 0
 26.525390625 600.706054688 22.76953125 603.073242188 22.76953125 606.447265625 c 0
EndSplineSet
Validated: 1
EndChar

StartChar: uni2078
Encoding: 8312 8312 129
Width: 298
VWidth: 0
Flags: HMW
LayerCount: 2
Fore
SplineSet
23.0390625 383.150390625 m 0
 23.0390625 421.900390625 50.1123046875 457.400390625 102.361328125 490.102539062 c 1
 57.0810546875 519.146484375 33.623046875 553.981445312 33.623046875 595.963867188 c 0
 33.623046875 660.489257812 85.4658203125 707.076171875 149 708.499023438 c 0
 213.560546875 708.499023438 262.259765625 673.3125 262.259765625 605.9921875 c 0
 262.259765625 566.209960938 239.474609375 534.05078125 195.581054688 507.966796875 c 1
 247.934570312 475.198242188 274.9609375 435.561523438 274.9609375 387.606445312 c 0
 274.9609375 318.052734375 216.014648438 269.500976562 149 269.500976562 c 0
 80.1650390625 269.500976562 23.0390625 313.416992188 23.0390625 383.150390625 c 0
90.783203125 618.248046875 m 0
 90.783203125 587.641601562 115.740234375 557.966796875 163.814453125 528.944335938 c 1
 186.956054688 542.647460938 198.75 564.403320312 198.75 594.849609375 c 0
 198.75 639.330078125 182.685546875 678.416015625 141.58984375 678.416015625 c 0
 112.263671875 678.416015625 90.783203125 651.551757812 90.783203125 618.248046875 c 0
91.841796875 388.720703125 m 0
 91.841796875 342.633789062 116.055664062 299.010742188 158.487304688 297.357421875 c 0
 190.016601562 297.357421875 210.392578125 329.216796875 210.392578125 365.322265625 c 0
 210.392578125 401.83203125 184.088867188 436.727539062 133.143554688 470.244140625 c 1
 105.734375 453.540039062 91.841796875 426.609375 91.841796875 388.720703125 c 0
EndSplineSet
Validated: 1
EndChar

StartChar: uni2079
Encoding: 8313 8313 130
Width: 304
VWidth: 0
Flags: HMW
LayerCount: 2
Fore
SplineSet
22.86328125 566.295898438 m 0
 22.86328125 650.524414062 76.5634765625 708.915039062 155.17578125 708.915039062 c 0
 197.912109375 708.915039062 230.346679688 690.90234375 252.73828125 654.810546875 c 0
 271.66796875 625.2890625 281.13671875 591.353515625 281.13671875 552.92578125 c 0
 281.13671875 417.243164062 171.640625 312.860351562 71.1611328125 262.037109375 c 0
 70.7841796875 261.87890625 70.4189453125 261.807617188 70.052734375 261.807617188 c 0
 67.74609375 265.55078125 58.5146484375 276.090820312 56.736328125 283.422851562 c 0
 56.76171875 285.272460938 57.3251953125 286.739257812 58.44140625 287.962890625 c 0
 137.543945312 334.563476562 171.565429688 379.627929688 199.587890625 477.953125 c 2
 200.793945312 482.186523438 l 1
 197.825195312 479.061523438 l 2
 185.309570312 465.88671875 159.6875 450.41796875 134.005859375 450.41796875 c 0
 99.666015625 450.41796875 72.8349609375 462.190429688 53.2958984375 485.693359375 c 0
 32.9765625 510.033203125 22.86328125 536.868164062 22.86328125 566.295898438 c 0
91.666015625 587.465820312 m 0
 91.666015625 546.28515625 115.4921875 492.7578125 154.1171875 492.7578125 c 0
 175.6875 492.7578125 192.530273438 499.669921875 204.833984375 513.383789062 c 1
 207.0078125 523.301757812 208.099609375 535.987304688 208.099609375 551.811523438 c 0
 208.099609375 633.506835938 187.58203125 675.48828125 145.6484375 675.48828125 c 0
 110.583007812 675.48828125 91.666015625 632.317382812 91.666015625 587.465820312 c 0
EndSplineSet
Validated: 1
EndChar

StartChar: uni207A
Encoding: 8314 8314 141
Width: 293
VWidth: 15
Flags: HMW
LayerCount: 2
Fore
SplineSet
30 426 m 1
 30 460 l 1
 128 460 l 1
 128 559 l 1
 165 559 l 1
 165 460 l 1
 263 460 l 1
 263 426 l 1
 165 426 l 1
 165 327 l 1
 128 327 l 1
 128 426 l 1
 30 426 l 1
EndSplineSet
Validated: 1
EndChar

StartChar: uni207B
Encoding: 8315 8315 142
Width: 293
VWidth: 0
Flags: HMW
LayerCount: 2
Fore
SplineSet
30 426 m 1
 30 460 l 1
 263 460 l 1
 263 426 l 1
 30 426 l 1
EndSplineSet
Validated: 1
EndChar

StartChar: uni207C
Encoding: 8316 8316 143
Width: 293
VWidth: 0
Flags: HMW
LayerCount: 2
Fore
SplineSet
30 388 m 1
 30 422 l 1
 263 422 l 1
 263 388 l 1
 30 388 l 1
30 464 m 1
 30 498 l 1
 263 498 l 1
 263 464 l 1
 30 464 l 1
EndSplineSet
Validated: 1
EndChar

StartChar: uni207D
Encoding: 8317 8317 144
Width: 242
VWidth: 0
Flags: HMW
LayerCount: 2
Fore
SplineSet
60 476 m 0
 60 591.22265625 120.508789062 694.735351562 198.495117188 735.020507812 c 0
 202.948242188 737.637695312 209.107421875 739 217 739 c 0
 230.53125 739 236 735.803710938 236 731 c 0
 236 728.685546875 233.322265625 726.662109375 227.510742188 723.744140625 c 0
 161.879882812 686.690429688 123 579.65234375 123 476 c 0
 123 370.0546875 163.278320312 270.897460938 228.470703125 230.151367188 c 0
 233.731445312 226.864257812 236 223.758789062 236 221 c 0
 236 216.796875 230.53125 214 217 214 c 0
 209.7890625 214 203.625 215.305664062 198.45703125 217.889648438 c 0
 119.618164062 258.502929688 60 360.782226562 60 476 c 0
EndSplineSet
Validated: 1
EndChar

StartChar: uni207E
Encoding: 8318 8318 145
Width: 242
VWidth: 0
Flags: HMW
LayerCount: 2
Fore
SplineSet
6 220 m 0
 6 222.15234375 7.86328125 225.983398438 13.486328125 229.125976562 c 0
 81.923828125 267.37109375 118 356.15625 118 475 c 0
 118 579.661132812 86.73046875 697.810546875 14.31640625 721.94921875 c 0
 8.453125 723.903320312 6 726.626953125 6 730 c 0
 6 734.203125 11.46875 737 25 737 c 0
 32.892578125 737 39.0849609375 735.658203125 43.5380859375 733.11328125 c 0
 120.739257812 692.783203125 182 589.9765625 182 475 c 0
 182 359.1484375 122.712890625 257.674804688 43.5537109375 216.89453125 c 0
 38.3857421875 214.310546875 32.2109375 213 25 213 c 0
 11.46875 213 6 215.796875 6 220 c 0
EndSplineSet
Validated: 1
EndChar

StartChar: fraction
Encoding: 8260 8260 152
Width: 90
VWidth: -100
Flags: HMW
LayerCount: 2
Fore
SplineSet
-189.001953125 -71.6533203125 m 0
 -189.001953125 -68.9793137049 -188.146079891 -66.2010822598 -186.338097892 -63.4515928639 c 2
 247.631839231 596.502689397 l 2
 248.587097239 598.33847215 250.760239166 599 253.498046875 599 c 0
 259.067209449 599 279.001953125 588.848648226 279.001953125 580.170898438 c 0
 279.001953125 579.340920514 278.878745099 578.360498976 278.333992464 577.451290085 c 2
 -156.666010587 -83.5487145501 l 2
 -159.337489683 -87.608085576 -163.659629564 -89.3115234375 -168.161132812 -89.3115234375 c 0
 -172.878703377 -89.3115234375 -177.009765625 -86.0810546875 -181 -83 c 0
 -185.104492188 -79.8310546875 -189.001953125 -76.7417989527 -189.001953125 -71.6533203125 c 0
EndSplineSet
Validated: 1
EndChar

StartChar: questiondown
Encoding: 191 191 155
Width: 374
VWidth: 0
Flags: HMW
AnchorPoint: "overlay" 189 84 basechar 0
LayerCount: 2
Fore
SplineSet
285 365 m 256
 285 331 258 310 223 310 c 0
 188 310 167 336 167 370 c 0
 167 403 193 425 226 425 c 0
 260 425 285 398 285 365 c 256
222 157 m 0
 222 169 218 192 218 205 c 0
 218 214 226 220 235 220 c 0
 241 220 249 218 250 215 c 0
 264 171 271 147 271 122 c 0
 271 82 268 61 225 27 c 2
 154 -29 l 2
 125 -52 82 -91 82 -128 c 0
 82 -181 140 -198 178 -198 c 0
 200 -198 208 -192 221 -180 c 0
 231 -170 244 -158 263 -158 c 0
 280 -158 314 -164 314 -202 c 0
 314 -247 260 -261 214 -261 c 0
 176 -261 132 -254 102 -228 c 0
 72 -202 40 -177 40 -102 c 0
 40 -44 84 18 110 40 c 2
 186 104 l 2
 203 118 222 130 222 157 c 0
EndSplineSet
Validated: 1
EndChar

StartChar: uni02B9
Encoding: 697 697 156
Width: 254
VWidth: 0
Flags: HMW
LayerCount: 2
Fore
SplineSet
50 477 m 256
 50 481 51 484 52 487 c 258
 143 693 l 258
 146 700 152 703 161 703 c 256
 177 703 204 691 204 673 c 256
 204 671 203 668 201 665 c 258
 82 474 l 258
 77 466 71 461 64 461 c 256
 54 461 50 466 50 477 c 256
EndSplineSet
Validated: 1
EndChar

StartChar: uni02BB
Encoding: 699 699 158
Width: 235
VWidth: 0
Flags: HMW
LayerCount: 2
Fore
SplineSet
50.5498046875 547 m 256
 50.5498046875 615 90.5498046875 674.333007812 170.549804688 725 c 256
 175.985351562 729.077148438 188.43359375 715.883789062 184.549804688 712 c 256
 153.883789062 681.333007812 133.549804688 656 123.549804688 636 c 256
 116.216796875 621.333007812 112.549804688 606 112.549804688 590 c 256
 112.549804688 575.333007812 117.549804688 566 127.549804688 562 c 256
 154.883789062 551.333007812 171.216796875 538 176.549804688 522 c 256
 177.883789062 516.666992188 178.549804688 510.666992188 178.549804688 504 c 256
 178.549804688 475.333007812 161.883789062 461 128.549804688 461 c 256
 85.8173828125 461 50.5498046875 501.424804688 50.5498046875 547 c 256
EndSplineSet
Validated: 1
EndChar

StartChar: uni02BC
Encoding: 700 700 159
Width: 238
VWidth: 0
Flags: HMW
LayerCount: 2
Fore
SplineSet
50.501953125 473 m 257
 99.7099609375 522.208007812 125.501953125 563.39453125 125.501953125 595 c 0
 125.501953125 608.333007812 120.168945312 617.666992188 109.501953125 623 c 258
 90.501953125 631 l 257
 69.8359375 641 59.501953125 657.666992188 59.501953125 681 c 256
 59.501953125 708.561523438 77.427734375 724 109.501953125 724 c 256
 152.529296875 724 187.501953125 684.893554688 187.501953125 638 c 256
 187.501953125 576 157.168945312 522.666992188 96.501953125 478 c 256
 87.1689453125 471.333007812 77.501953125 464.666992188 67.501953125 458 c 257
 63.501953125 458 l 257
 54.60546875 459.779296875 52.53515625 464.8671875 50.501953125 473 c 257
EndSplineSet
Validated: 1
EndChar

StartChar: uni02BD
Encoding: 701 701 160
Width: 238
VWidth: 0
Flags: HMW
LayerCount: 2
Fore
SplineSet
50.501953125 638 m 256
 50.501953125 684.893554688 85.474609375 724 128.501953125 724 c 256
 160.576171875 724 178.501953125 708.561523438 178.501953125 681 c 256
 178.501953125 657.666992188 168.16796875 641 147.501953125 631 c 257
 128.501953125 623 l 258
 117.834960938 617.666992188 112.501953125 608.333007812 112.501953125 595 c 0
 112.501953125 563.39453125 138.293945312 522.208007812 187.501953125 473 c 257
 185.46875 464.8671875 183.3984375 459.779296875 174.501953125 458 c 257
 170.501953125 458 l 257
 160.501953125 464.666992188 150.834960938 471.333007812 141.501953125 478 c 256
 80.8349609375 522.666992188 50.501953125 576 50.501953125 638 c 256
EndSplineSet
Validated: 1
EndChar

StartChar: uni02BE
Encoding: 702 702 161
Width: 236
VWidth: 0
Flags: HMW
LayerCount: 2
Fore
SplineSet
50 448 m 257
 50 486 l 257
 112.006835938 489.297851562 143.010742188 521.315429688 143.010742188 582.051757812 c 0
 143.010742188 647.350585938 112.006835938 680.666992188 50 682 c 257
 50 720 l 257
 140.666992188 717.333007812 186 672 186 584 c 0
 186 496 140.666992188 450.666992188 50 448 c 257
EndSplineSet
Validated: 1
EndChar

StartChar: uni02BF
Encoding: 703 703 162
Width: 236
VWidth: 0
Flags: HMW
LayerCount: 2
Fore
SplineSet
50 584 m 0
 50 672 95.3330078125 717.333007812 186 720 c 257
 186 682 l 257
 123.993164062 680.666992188 92.9892578125 647.350585938 92.9892578125 582.051757812 c 0
 92.9892578125 521.315429688 123.993164062 489.297851562 186 486 c 257
 186 448 l 257
 95.3330078125 450.666992188 50 496 50 584 c 0
EndSplineSet
Validated: 1
EndChar

StartChar: uni02C0
Encoding: 704 704 163
Width: 333
VWidth: 0
Flags: HMW
LayerCount: 2
Fore
SplineSet
50 640 m 0
 50 693.436523438 106.868164062 725 161.5 725 c 0
 233.03515625 725 283 674.97265625 283 602.997070312 c 0
 283 567.5 271.575195312 538.130859375 248.598632812 515.671875 c 0
 230.032226562 496.227539062 211.126953125 485.098632812 191 483 c 1
 191 334.591796875 l 2
 191 329.291992188 177.23046875 326.64453125 163.471679688 326.64453125 c 0
 149.731445312 326.64453125 136 329.28515625 136 334.5625 c 2
 136 496.295898438 l 2
 136 504.420898438 142.205078125 509.293945312 150.317382812 510.874023438 c 0
 168.309570312 512.172851562 179.2734375 517.3125 187.515625 525.120117188 c 0
 210.505859375 546.896484375 222.352539062 574.971679688 223 610.288085938 c 0
 223 658.850585938 197 697 151 697 c 0
 122.833984375 697 99 684.547851562 99 663 c 0
 99 658.572265625 102.40234375 651.91015625 109.163085938 641.768554688 c 0
 116.185546875 631.234375 120 620.986328125 120 611 c 0
 120 594.859375 104.270507812 581 88 581 c 0
 61.87109375 581 50 610.294921875 50 640 c 0
EndSplineSet
Validated: 1
EndChar

StartChar: uni02C1
Encoding: 705 705 164
Width: 333
VWidth: 0
Flags: HMW
LayerCount: 2
Fore
SplineSet
50 602.998046875 m 0
 50 675.2734375 100.063476562 725 172 725 c 0
 226.29296875 725 283 693.869140625 283 640 c 0
 283 610.859375 274.58203125 581 245 581 c 0
 230.658203125 581 213 592.465820312 213 611 c 0
 213 621.053710938 217.029296875 631.331054688 224.401367188 641.862304688 c 0
 231.1875 651.557617188 234 658.864257812 234 663 c 0
 234 685.130859375 210.19921875 697 182 697 c 0
 136.249023438 697 111.163085938 658.1484375 110 610.229492188 c 0
 110.013671875 575.677734375 121.862304688 547.51171875 145.53515625 525.0703125 c 0
 154.52734375 516.30859375 166.501953125 511.517578125 182.203125 510.905273438 c 0
 190.877929688 510.708007812 197 504.362304688 197 496.294921875 c 2
 197 334.561523438 l 2
 197 329.284179688 183.270507812 326.64453125 169.530273438 326.64453125 c 0
 155.770507812 326.64453125 142 329.291992188 142 334.592773438 c 2
 142 483 l 1
 91.9931640625 488.384765625 50 547.01953125 50 602.998046875 c 0
EndSplineSet
Validated: 1
EndChar

StartChar: uni02C2
Encoding: 706 706 165
Width: 333
VWidth: 0
Flags: HMW
LayerCount: 2
Fore
SplineSet
50 318 m 257
 50 345 l 257
 283 456 l 257
 283 421 l 257
 219.889648438 390.77734375 154.977539062 362.356445312 93 331 c 257
 283 242 l 257
 283 207 l 257
 50 318 l 257
EndSplineSet
Validated: 1
EndChar

StartChar: uni02C3
Encoding: 707 707 166
Width: 333
VWidth: 0
Flags: HMW
LayerCount: 2
Fore
SplineSet
50 207 m 257
 50 242 l 257
 240 331 l 257
 178.032226562 362.365234375 113.099609375 390.765625 50 421 c 257
 50 456 l 257
 283 345 l 257
 283 318 l 257
 50 207 l 257
EndSplineSet
Validated: 1
EndChar

StartChar: uni02C4
Encoding: 708 708 167
Width: 349
VWidth: 0
Flags: HMW
LayerCount: 2
Fore
SplineSet
50 207 m 257
 162 440 l 257
 188 440 l 257
 299 207 l 257
 265 207 l 257
 175 397 l 257
 85 207 l 257
 50 207 l 257
EndSplineSet
Validated: 1
EndChar

StartChar: uni02C5
Encoding: 709 709 168
Width: 349
VWidth: 0
Flags: HMW
LayerCount: 2
Fore
SplineSet
50 440 m 257
 84 440 l 257
 175 250 l 257
 264 440 l 257
 299 440 l 257
 187 207 l 257
 161 207 l 257
 50 440 l 257
EndSplineSet
Validated: 1
EndChar

StartChar: circumflex
Encoding: 710 710 169
Width: 343
VWidth: 0
Flags: HMW
LayerCount: 2
Fore
SplineSet
50 499 m 257
 153 662 l 258
 158.499023438 671.236328125 164.333007812 675.666992188 171 675 c 256
 178.333007812 675 184.793945312 670.744140625 190 662 c 258
 293 499 l 257
 293 491.666992188 288.333007812 487.666992188 279 487 c 256
 278.333007812 487 277.333007812 487.666992188 276 489 c 258
 186 585 l 258
 178.577148438 592.916992188 173.666992188 597 171 597 c 256
 168.333007812 597 164.122070312 592.596679688 157 585 c 258
 67 489 l 258
 66.3330078125 487.666992188 65 487 63 487 c 256
 54.3330078125 487.666992188 50 491.666992188 50 499 c 257
EndSplineSet
Validated: 1
EndChar

StartChar: caron
Encoding: 711 711 170
Width: 343
VWidth: 0
Flags: HMW
LayerCount: 2
Fore
SplineSet
50 664 m 257
 50 671.333007812 54.3330078125 675 63 675 c 256
 64.3330078125 675 65.6669921875 674.333007812 67 673 c 258
 157 577 l 258
 164.122070312 569.403320312 168.333007812 565 171 565 c 256
 173.666992188 565 178.577148438 569.083007812 186 577 c 258
 276 673 l 258
 276.666992188 674.333007812 277.666992188 675 279 675 c 256
 288.333007812 675 293 671.333007812 293 664 c 257
 258.997070312 609.3359375 224.275390625 555.391601562 190 501 c 256
 184.247070312 491.919921875 178.333007812 487 171 487 c 256
 163.666992188 487 158.584960938 492.185546875 153 501 c 258
 51 662 l 257
 50 664 l 257
EndSplineSet
Validated: 1
EndChar

StartChar: uni02C8
Encoding: 712 712 171
Width: 154
VWidth: 0
Flags: HMW
LayerCount: 2
Fore
SplineSet
50 485 m 257
 50 675 l 257
 104 675 l 257
 104 485 l 257
 50 485 l 257
EndSplineSet
Validated: 1
EndChar

StartChar: uni02D0
Encoding: 720 720 179
Width: 251
VWidth: 0
Flags: HMW
LayerCount: 2
Fore
SplineSet
60 0 m 257
 126 114 l 257
 191 0 l 257
 60 0 l 257
60 418 m 257
 191 418 l 257
 126 304 l 257
 60 418 l 257
EndSplineSet
Validated: 1
EndChar

StartChar: uni02D1
Encoding: 721 721 180
Width: 251
VWidth: 0
Flags: HMW
LayerCount: 2
Fore
SplineSet
60 418 m 257
 191 418 l 257
 125 304 l 257
 60 418 l 257
EndSplineSet
Validated: 1
EndChar

StartChar: uni02D4
Encoding: 724 724 183
Width: 358
VWidth: 0
Flags: HMW
LayerCount: 2
Fore
SplineSet
50 226 m 257
 50 265 l 257
 157 265 l 257
 157 380 l 257
 201 380 l 257
 201 265 l 257
 308 265 l 257
 308 226 l 257
 50 226 l 257
EndSplineSet
Validated: 1
EndChar

StartChar: uni02D5
Encoding: 725 725 184
Width: 358
VWidth: 0
Flags: HMW
LayerCount: 2
Fore
SplineSet
50 226 m 257
 50 265 l 257
 308 265 l 257
 308 226 l 257
 201 226 l 257
 201 111 l 257
 157 111 l 257
 157 226 l 257
 50 226 l 257
EndSplineSet
Validated: 1
EndChar

StartChar: uni02D6
Encoding: 726 726 185
Width: 358
VWidth: 0
Flags: HMW
LayerCount: 2
Fore
SplineSet
50 226 m 257
 50 265 l 257
 157 265 l 257
 157 373 l 257
 201 373 l 257
 201 265 l 257
 308 265 l 257
 308 226 l 257
 201 226 l 257
 201 118 l 257
 157 118 l 257
 157 226 l 257
 50 226 l 257
EndSplineSet
Validated: 1
EndChar

StartChar: uni02D7
Encoding: 727 727 186
Width: 358
VWidth: 0
Flags: HMW
LayerCount: 2
Fore
SplineSet
50 226 m 257
 50 265 l 257
 308 265 l 257
 308 226 l 257
 50 226 l 257
EndSplineSet
Validated: 1
EndChar

StartChar: breve
Encoding: 728 728 187
Width: 364
VWidth: 0
Flags: HMW
LayerCount: 2
Fore
SplineSet
50 645 m 257
 52.6669921875 647.666992188 55.8330078125 649 59.5 649 c 0
 63.1669921875 649 66.3330078125 647.666992188 69 645 c 257
 82 592 117.666992188 568 181 568 c 0
 244.333007812 568 281 592 295 645 c 257
 297.666992188 647.666992188 300.833007812 649 304.5 649 c 0
 308.166992188 649 311.333007812 647.666992188 314 645 c 257
 314 555.666992188 270 519 182 519 c 0
 94 519 50 555.666992188 50 645 c 257
EndSplineSet
Validated: 1
EndChar

StartChar: dotaccent
Encoding: 729 729 188
Width: 206
VWidth: 0
Flags: HMW
LayerCount: 2
Fore
SplineSet
50.5 583 m 256
 50.5 614.2578125 71.6953125 632.946289062 102.5 635 c 256
 130.973632812 635 155.5 613.752929688 155.5 583 c 256
 155.5 554.8828125 134.046875 530 102.5 530 c 256
 74.0146484375 530 50.5 551.412109375 50.5 583 c 256
EndSplineSet
Validated: 1
EndChar

StartChar: ring
Encoding: 730 730 189
Width: 301
VWidth: 0
Flags: HMW
LayerCount: 2
Fore
SplineSet
50.5 580 m 256
 50.5 632.5234375 94.03125 675 150.5 675 c 256
 181.166992188 675 206.166992188 664.333007812 225.5 643 c 257
 241.5 623 249.833007812 602 250.5 580 c 256
 250.5 527.909179688 204.40234375 486.497070312 150.5 485 c 256
 95.470703125 485 52.1826171875 522.793945312 50.5 580 c 256
97.5 580 m 256
 97.5 546.651367188 116.448242188 518 150.5 518 c 256
 180.938476562 518 203.5 544.209960938 203.5 580 c 256
 203.5 613.506835938 184.859375 642 150.5 642 c 256
 120.000976562 642 97.5 614.091796875 97.5 580 c 256
EndSplineSet
Validated: 1
EndChar

StartChar: ogonek
Encoding: 731 731 190
Width: 290
VWidth: 0
Flags: HMW
LayerCount: 2
Fore
SplineSet
50.5 -164 m 256
 50.5 -109.333007812 86.1669921875 -52 157.5 8 c 257
 201.5 8 l 257
 146.166992188 -46 118.5 -93.6669921875 118.5 -135 c 256
 118.5 -175.666992188 138.5 -196 178.5 -196 c 256
 197.833007812 -196 214.833007812 -190.333007812 229.5 -179 c 257
 236.166992188 -181 239.5 -187 239.5 -197 c 257
 214.936523438 -228.58203125 189.353515625 -250 138.5 -250 c 256
 84.6982421875 -250 50.5 -215.172851562 50.5 -164 c 256
EndSplineSet
Validated: 1
EndChar

StartChar: tilde
Encoding: 732 732 191
Width: 396
VWidth: 0
Flags: HMW
LayerCount: 2
Fore
SplineSet
50 554 m 256
 90 599 107.9375 619 153 619 c 256
 167 619 189 613.666992188 219 603 c 256
 242.333007812 594.333007812 259.666992188 590 271 590 c 256
 289.666992188 590 310 601.333007812 332 624 c 257
 334 624 l 258
 338.84375 624 346 615.735351562 346 610 c 256
 346 608.666992188 346 609 345 607 c 256
 338.682617188 594.365234375 326.333007812 579 303 563 c 256
 279.666992188 547.666992188 260.666992188 540 246 540 c 256
 230 540 207.666992188 545.333007812 179 556 c 256
 154.333007812 565.333007812 135.333007812 570 122 570 c 256
 104.666992188 570 86 560.333007812 66 541 c 256
 64.6669921875 539.666992188 63.3330078125 539 62 539 c 0
 57.9765625 539 48.12109375 551.885742188 50 554 c 256
EndSplineSet
Validated: 1
EndChar

StartChar: uni02DE
Encoding: 734 734 193
Width: 206
VWidth: 0
Flags: HMW
LayerCount: 2
Fore
SplineSet
-25 174 m 257
 -25 218 l 257
 56 239 l 257
 63 239 l 257
 69.5771484375 237.684570312 70.1337890625 230.794921875 71 223 c 256
 71 155.666992188 84 116.666992188 110 106 c 256
 115.333007812 104 121.333007812 103 128 103 c 256
 137.333007812 103 146.333007812 107.666992188 155 117 c 257
 158 117 l 257
 162 115.666992188 164.666992188 113.333007812 166 110 c 257
 166 108 l 257
 154.666992188 92.6669921875 136 85 110 85 c 256
 64.80859375 85 38.9169921875 129.974609375 38.9169921875 184.076171875 c 0
 38.9169921875 186.025390625 38.9443359375 188 39 190 c 257
 -25 174 l 257
EndSplineSet
Validated: 1
EndChar

StartChar: uni02DF
Encoding: 735 735 194
Width: 304
VWidth: 0
Flags: HMW
LayerCount: 2
Fore
SplineSet
63 501 m 257
 131 570 l 257
 63 639 l 257
 87 664 l 257
 156 594 l 257
 225 664 l 257
 249 639 l 257
 180 570 l 257
 249 501 l 257
 225 477 l 257
 156 546 l 257
 87 477 l 257
 63 501 l 257
EndSplineSet
Validated: 1
EndChar

StartChar: uni02E5
Encoding: 741 741 195
Width: 488
VWidth: 0
Flags: HMW
LayerCount: 2
Fore
SplineSet
50 583 m 257
 50 648 l 257
 438 648 l 257
 438 -65 l 257
 363 -65 l 257
 363 583 l 257
 50 583 l 257
EndSplineSet
Validated: 1
EndChar

StartChar: uni02E6
Encoding: 742 742 196
Width: 488
VWidth: 0
Flags: HMW
LayerCount: 2
Fore
SplineSet
50 471 m 257
 50 536 l 257
 363 536 l 257
 363 648 l 257
 438 648 l 257
 438 -65 l 257
 363 -65 l 257
 363 471 l 257
 50 471 l 257
EndSplineSet
Validated: 1
EndChar

StartChar: uni02E7
Encoding: 743 743 197
Width: 488
VWidth: 0
Flags: HMW
LayerCount: 2
Fore
SplineSet
50 271 m 257
 50 336 l 257
 363 336 l 257
 363 648 l 257
 438 648 l 257
 438 -65 l 257
 363 -65 l 257
 363 271 l 257
 50 271 l 257
EndSplineSet
Validated: 1
EndChar

StartChar: uni02E8
Encoding: 744 744 198
Width: 488
VWidth: 0
Flags: HMW
LayerCount: 2
Fore
SplineSet
50 47 m 257
 50 112 l 257
 363 112 l 257
 363 648 l 257
 438 648 l 257
 438 -65 l 257
 363 -65 l 257
 363 47 l 257
 50 47 l 257
EndSplineSet
Validated: 1
EndChar

StartChar: uni02E9
Encoding: 745 745 199
Width: 488
VWidth: 0
Flags: HMW
LayerCount: 2
Fore
SplineSet
50 0 m 257
 363 0 l 257
 363 648 l 257
 438 648 l 257
 438 -65 l 257
 50 -65 l 257
 50 0 l 257
EndSplineSet
Validated: 1
EndChar

StartChar: uni02EA
Encoding: 746 746 200
Width: 457
VWidth: 0
Flags: HMW
LayerCount: 2
Fore
SplineSet
50 0 m 257
 50 389 l 257
 104 389 l 257
 104 49 l 257
 407 49 l 257
 407 0 l 257
 50 0 l 257
EndSplineSet
Validated: 1
EndChar

StartChar: uni02EB
Encoding: 747 747 201
Width: 402
VWidth: 0
Flags: HMW
LayerCount: 2
Fore
SplineSet
50 0 m 257
 50 389 l 257
 104 389 l 257
 104 219 l 257
 352 219 l 257
 352 170 l 257
 104 170 l 257
 104 0 l 257
 50 0 l 257
EndSplineSet
Validated: 1
EndChar

StartChar: uni02F8
Encoding: 760 760 214
Width: 238
VWidth: 0
Flags: HMW
LayerCount: 2
Fore
SplineSet
60 340 m 256
 60 374.186523438 87.328125 395 122 395 c 0
 156.711914062 395 178 368.260742188 178 334.5 c 0
 178 301.475585938 151.724609375 280 118.5 280 c 0
 84.955078125 280 60 306.658203125 60 340 c 256
60 620 m 256
 60 653.052734375 88.826171875 675 122.5 675 c 0
 156.78125 675 178 647.986328125 178 614.5 c 0
 178 581.221679688 152.662109375 560 119 560 c 0
 85.0361328125 560 60 586.389648438 60 620 c 256
EndSplineSet
Validated: 1
EndChar

StartChar: uni02F9
Encoding: 761 761 215
Width: 307
VWidth: 0
Flags: HMW
LayerCount: 2
Fore
SplineSet
50 335 m 257
 50 663 l 257
 257 663 l 257
 257 624 l 257
 94 624 l 257
 94 335 l 257
 50 335 l 257
EndSplineSet
Validated: 1
EndChar

StartChar: uni02FA
Encoding: 762 762 216
Width: 307
VWidth: 0
Flags: HMW
LayerCount: 2
Fore
SplineSet
50 624 m 257
 50 663 l 257
 257 663 l 257
 257 335 l 257
 213 335 l 257
 213 624 l 257
 50 624 l 257
EndSplineSet
Validated: 1
EndChar

StartChar: uni02FB
Encoding: 763 763 217
Width: 308
VWidth: 0
Flags: HMW
LayerCount: 2
Fore
SplineSet
50 0 m 257
 50 328 l 257
 94 328 l 257
 94 39 l 257
 258 39 l 257
 258 0 l 257
 50 0 l 257
EndSplineSet
Validated: 1
EndChar

StartChar: uni02FC
Encoding: 764 764 218
Width: 308
VWidth: 0
Flags: HMW
LayerCount: 2
Fore
SplineSet
50 0 m 257
 50 39 l 257
 214 39 l 257
 214 328 l 257
 258 328 l 257
 258 0 l 257
 50 0 l 257
EndSplineSet
Validated: 1
EndChar

StartChar: uni02FD
Encoding: 765 765 219
Width: 556
VWidth: 0
Flags: HMW
LayerCount: 2
Fore
SplineSet
50 -36 m 258
 50 -28.6669921875 56.3330078125 -25 69 -25 c 0
 81.6669921875 -25 89 -28 89 -35 c 258
 89 -128 l 258
 89 -132 93 -134 101 -134 c 258
 456 -134 l 258
 463 -134 467 -131 467 -126 c 258
 467 -37 l 258
 467 -29 474.333007812 -25 487 -25 c 0
 499.666992188 -25 506 -28.3330078125 506 -35 c 258
 506 -173 l 258
 506 -180 503 -183 497 -183 c 258
 60 -183 l 258
 52.6669921875 -183 50 -179 50 -172 c 258
 50 -36 l 258
EndSplineSet
Validated: 1
EndChar

StartChar: uni02FE
Encoding: 766 766 220
Width: 507
VWidth: 0
Flags: HMW
LayerCount: 2
Fore
SplineSet
50 -36 m 257
 89 -36 l 257
 89 -144 l 257
 457 -144 l 257
 457 -183 l 257
 50 -183 l 265
 50 -36 l 257
EndSplineSet
Validated: 1
EndChar

StartChar: uni02FF
Encoding: 767 767 221
Width: 389
VWidth: 0
Flags: HMW
LayerCount: 2
Fore
SplineSet
49.8671875 -90.0400390625 m 1
 223.8671875 -11.513671875 l 1
 223.8671875 -41.041015625 l 1
 112 -90 l 1
 339 -90 l 1
 339 -124 l 1
 112 -124 l 1
 223.8671875 -173.159179688 l 1
 223.8671875 -202.686523438 l 1
 49.8671875 -124.860351562 l 1
 49.8671875 -90.0400390625 l 1
EndSplineSet
Validated: 1
EndChar

StartChar: endash
Encoding: 8211 8211 223
Width: 500
VWidth: 0
Flags: HMW
LayerCount: 2
Fore
SplineSet
50 256 m 256
 50 269 50 286 60 286 c 258
 440 286 l 258
 450 286 450 270 450 255 c 256
 450 244 450 227 439 227 c 258
 59 227 l 258
 50 227 50 243 50 256 c 256
EndSplineSet
Validated: 1
EndChar

StartChar: uni0302
Encoding: 770 770 226
Width: 0
VWidth: 0
Flags: HMW
AnchorPoint: "above" 0 485 mark 0
LayerCount: 2
Fore
SplineSet
-122 530 m 257
 -19 673 l 258
 -13.2578125 682.087890625 -7.3330078125 687 0 687 c 256
 7.3330078125 687 13.2578125 682.087890625 19 673 c 258
 122 530 l 257
 122 522.666992188 117 519 107 519 c 256
 106.333007812 519 105.333007812 519.666992188 104 521 c 258
 15 607 l 258
 7.1953125 614.541015625 2.66666666667 619 0 619 c 256
 -2.66666666667 619 -6.470703125 614.194335938 -14 607 c 258
 -104 521 l 258
 -105.333007812 519.666992188 -106.666992188 519 -108 519 c 256
 -117.333007812 519 -122 522.666992188 -122 530 c 257
EndSplineSet
Validated: 1
EndChar

StartChar: hookabovecomb
Encoding: 777 777 233
Width: 0
VWidth: 0
Flags: HMW
AnchorPoint: "above" 0 460 mark 0
LayerCount: 2
Fore
SplineSet
-98 653 m 256
 -98 655.666666667 -97 657.666666667 -95 659 c 256
 -77.5658801435 676.434119857 -37.6545589962 692 -2 692 c 256
 39.9251587816 692 79 671.377799818 79 631 c 256
 79 592.718615978 43.3900938978 571.1300313 16 562 c 256
 6 558 0.666666666667 553.333333333 0 548 c 256
 0 546 1 543.666666667 3 541 c 258
 19 522 l 258
 19.6666666667 521.333333333 20 520.666666667 20 520 c 256
 20 516.224706516 -0.340415701604 499.877080853 -11.4294058679 499.877080853 c 0
 -16.3062960263 499.877080853 -19.9414073801 500.94140738 -23 504 c 258
 -56 545 l 258
 -58 548.333333333 -59 551.333333333 -59 554 c 256
 -59 561.333333333 -50.6666666667 567.666666667 -34 573 c 256
 -8.04457831424 581.984569045 14 593.539532281 14 622 c 256
 14 648.484030631 -10.8144036841 659 -40 659 c 256
 -54 659 -68.3333333333 652.666666667 -83 640 c 256
 -85 639 -85 639 -87 638 c 256
 -90.8697383371 638 -98 648.516324404 -98 653 c 256
EndSplineSet
Validated: 1
EndChar

StartChar: uni030C
Encoding: 780 780 236
Width: 0
VWidth: 0
Flags: HMW
AnchorPoint: "above" 0 480 mark 0
LayerCount: 2
Fore
SplineSet
-122 676 m 257
 -122 683.333007812 -117.333007812 687 -108 687 c 256
 -106.666992188 687 -105.333007812 686.333007812 -104 685 c 258
 -14 599 l 258
 -6.470703125 591.805664062 -2.6669921875 587 0 587 c 256
 2.6669921875 587 7.1953125 591.458984375 15 599 c 258
 104 685 l 258
 105.333007812 686.333007812 106.333007812 687 107 687 c 256
 117 687 122 683.333007812 122 676 c 257
 19 533 l 258
 13.2578125 523.912109375 7.3330078125 519 0 519 c 256
 -7.3330078125 519 -13.2578125 523.912109375 -19 533 c 258
 -122 676 l 257
EndSplineSet
Validated: 1
EndChar

StartChar: uni0311
Encoding: 785 785 241
Width: 0
VWidth: 0
Flags: HMW
AnchorPoint: "above" 0 490 mark 0
LayerCount: 2
Fore
SplineSet
-132 523 m 257
 -132 612.333007812 -88 652 0 652 c 0
 88 652 132 612.333007812 132 523 c 257
 129.333007812 520.333007812 126.166992188 519 122.5 519 c 0
 118.833007812 519 115.666992188 520.333007812 113 523 c 257
 100.333007812 576.333007812 62.3330078125 603 -1 603 c 0
 -64.3330078125 603 -101.666992188 576.333007812 -113 523 c 257
 -115.666992188 520.333007812 -118.833007812 519 -122.5 519 c 0
 -126.166992188 519 -129.333007812 520.333007812 -132 523 c 257
EndSplineSet
Validated: 1
EndChar

StartChar: uni0318
Encoding: 792 792 248
Width: 0
VWidth: 0
Flags: HMW
AnchorPoint: "below" 0 -37 mark 0
LayerCount: 2
Fore
SplineSet
-80 -156 m 257
 11 -156 l 257
 11 -76 l 257
 58 -76 l 257
 58 -283 l 257
 11 -283 l 257
 11 -203 l 257
 -80 -203 l 257
 -80 -156 l 257
EndSplineSet
Validated: 1
EndChar

StartChar: uni0319
Encoding: 793 793 249
Width: 0
VWidth: 0
Flags: HMW
AnchorPoint: "below" 0 -37 mark 0
LayerCount: 2
Fore
SplineSet
-65 -76 m 257
 -19 -76 l 257
 -19 -156 l 257
 72 -156 l 257
 72 -203 l 257
 -19 -203 l 257
 -19 -283 l 257
 -65 -283 l 257
 -65 -76 l 257
EndSplineSet
Validated: 1
EndChar

StartChar: uni031A
Encoding: 794 794 250
Width: 0
VWidth: 0
Flags: HMW
AnchorPoint: "above" 0 470 mark 0
LayerCount: 2
Fore
SplineSet
-4 605 m 257
 -4 652 l 257
 240 652 l 257
 240 505 l 257
 192 505 l 257
 192 605 l 257
 -4 605 l 257
EndSplineSet
Validated: 1
EndChar

StartChar: uni031B
Encoding: 795 795 251
Width: 45
VWidth: 0
Flags: HMW
LayerCount: 2
Fore
SplineSet
-121 381 m 257
 -121 410 l 257
 -60 410 l 258
 -21.3330078125 410 1.3330078125 413.333007812 8 420 c 256
 10.6669921875 422.666992188 12 427.666992188 12 435 c 257
 9.3330078125 445.666992188 3 451.333007812 -7 452 c 256
 -31.478515625 452 -42 459.606445312 -42 482 c 256
 -42 506.168945312 -26.0888671875 508.39453125 -2 510 c 256
 20 510 33.6669921875 505.666992188 39 497 c 257
 43 487 l 258
 44.3330078125 481 45 473 45 463 c 256
 45 398.147460938 33.630859375 384.6796875 -28 382 c 256
 -36.6669921875 382 -47.6669921875 381.666992188 -61 381 c 258
 -121 381 l 257
EndSplineSet
Validated: 1
EndChar

StartChar: uni031C
Encoding: 796 796 252
Width: 0
VWidth: 0
Flags: HMW
AnchorPoint: "below" 0 -37 mark 0
LayerCount: 2
Fore
SplineSet
-55 -182.5 m 0
 -55 -118.833007812 -23 -87 41 -87 c 257
 41 -131 l 257
 7.6669921875 -131 -9.3330078125 -148 -10 -182 c 256
 -10 -216 7 -233.333007812 41 -234 c 257
 41 -278 l 257
 -23 -278 -55 -246.166992188 -55 -182.5 c 0
EndSplineSet
Validated: 1
EndChar

StartChar: uni031D
Encoding: 797 797 253
Width: 0
VWidth: 0
Flags: HMW
AnchorPoint: "below" 0 -37 mark 0
LayerCount: 2
Fore
SplineSet
-104 -179 m 257
 -24 -179 l 257
 -24 -87 l 257
 22 -87 l 257
 22 -179 l 257
 96 -179 l 257
 96 -225 l 257
 -104 -225 l 257
 -104 -179 l 257
EndSplineSet
Validated: 1
EndChar

StartChar: uni031E
Encoding: 798 798 254
Width: 0
VWidth: 0
Flags: HMW
AnchorPoint: "below" 0 -37 mark 0
LayerCount: 2
Fore
SplineSet
-97 -87 m 257
 104 -87 l 257
 104 -134 l 257
 23 -134 l 257
 23 -225 l 257
 -23 -225 l 257
 -23 -134 l 257
 -97 -134 l 257
 -97 -87 l 257
EndSplineSet
Validated: 1
EndChar

StartChar: uni031F
Encoding: 799 799 255
Width: 0
VWidth: 0
Flags: HMW
AnchorPoint: "below" 0 -37 mark 0
LayerCount: 2
Fore
SplineSet
-103 -156 m 257
 -22 -156 l 257
 -22 -76 l 257
 24 -76 l 257
 24 -156 l 257
 104 -156 l 257
 104 -203 l 257
 24 -203 l 257
 24 -283 l 257
 -22 -283 l 257
 -22 -203 l 257
 -103 -203 l 257
 -103 -156 l 257
EndSplineSet
Validated: 1
EndChar

StartChar: uni0320
Encoding: 800 800 256
Width: 0
VWidth: 0
Flags: HMW
AnchorPoint: "below" 0 -37 mark 0
LayerCount: 2
Fore
SplineSet
-103 -87 m 257
 104 -87 l 257
 104 -134 l 257
 -103 -134 l 257
 -103 -87 l 257
EndSplineSet
Validated: 1
EndChar

StartChar: uni0321
Encoding: 801 801 257
Width: 0
VWidth: 0
Flags: HMW
LayerCount: 2
Fore
SplineSet
-117 -134.5 m 0
 -117 -123.229597218 -108.739238038 -114 -94 -114 c 256
 -84.6666666667 -114 -76 -117.666666667 -68 -125 c 256
 -60 -132.333333333 -53.6666666667 -136.333333333 -49 -137 c 256
 -29.6666666667 -137 -20 -116 -20 -74 c 258
 -20 111 l 257
 25 111 l 257
 25 17 l 258
 25 -47 14.3333333333 -94 -7 -124 c 256
 -25.6666666667 -150 -50 -163 -80 -163 c 256
 -95.9375337838 -163 -117 -151.119223366 -117 -134.5 c 0
EndSplineSet
Validated: 1
EndChar

StartChar: uni0322
Encoding: 802 802 258
Width: 0
VWidth: 0
Flags: HMW
LayerCount: 2
Fore
SplineSet
-24 17 m 258
 -24 111 l 257
 21 111 l 257
 21 -74 l 258
 21 -115.333333333 30.6666666667 -136.333333333 50 -137 c 256
 54.6666666667 -137 61 -133 69 -125 c 256
 77 -117 85.6666666667 -113.333333333 95 -114 c 256
 109.499829103 -114 118.381290274 -122.668048496 118.381290274 -137.285691346 c 0
 118.381290274 -151.860095917 95.5895167856 -161.784206934 81 -163 c 256
 51 -163 26.6666666667 -150 8 -124 c 256
 -13.3333333333 -94 -24 -47 -24 17 c 258
EndSplineSet
Validated: 1
EndChar

StartChar: uni032A
Encoding: 810 810 266
Width: 0
VWidth: 0
Flags: HMW
AnchorPoint: "below" 0 -37 mark 0
LayerCount: 2
Fore
SplineSet
-120 -87 m 257
 125 -87 l 257
 125 -216 l 257
 78 -216 l 257
 78 -134 l 257
 -73 -134 l 257
 -73 -216 l 257
 -120 -216 l 257
 -120 -87 l 257
EndSplineSet
Validated: 1
EndChar

StartChar: uni032B
Encoding: 811 811 267
Width: 0
VWidth: 0
Flags: HMW
AnchorPoint: "below" 0 -37 mark 0
LayerCount: 2
Fore
SplineSet
-178 -87 m 257
 -131 -87 l 257
 -131 -119.388671875 -111.2578125 -149 -78 -149 c 256
 -47.5615234375 -149 -25 -122.790039062 -25 -87 c 257
 22 -87 l 257
 22 -120.016601562 41.8876953125 -149 76 -149 c 256
 104.329101562 -149 128.125 -125.514648438 128.125 -91.4375 c 0
 128.125 -89.9794921875 128.083007812 -88.5 128 -87 c 257
 176 -87 l 257
 176 -137.838867188 133.826171875 -182.040039062 79.1025390625 -182.040039062 c 0
 78.07421875 -182.040039062 77.0400390625 -182.026367188 76 -182 c 256
 46 -182 20.3330078125 -170.666992188 -1 -148 c 257
 -21 -170.666992188 -46.6669921875 -182 -78 -182 c 256
 -130.852539062 -182 -178 -141.310546875 -178 -87 c 257
EndSplineSet
Validated: 1
EndChar

StartChar: uni032F
Encoding: 815 815 271
Width: 0
VWidth: 0
Flags: HMW
AnchorPoint: "below" 0 -37 mark 0
LayerCount: 2
Fore
SplineSet
-132 -211 m 257
 -132 -121.666992188 -88 -82 0 -82 c 0
 88 -82 132 -121.666992188 132 -211 c 257
 129.333007812 -213.666992188 126.166992188 -215 122.5 -215 c 0
 118.833007812 -215 115.666992188 -213.666992188 113 -211 c 257
 99 -158 62.3330078125 -134 -1 -134 c 0
 -64.3330078125 -134 -100 -158 -113 -211 c 257
 -115.666992188 -213.666992188 -118.833007812 -215 -122.5 -215 c 0
 -126.166992188 -215 -129.333007812 -213.666992188 -132 -211 c 257
EndSplineSet
Validated: 1
EndChar

StartChar: uni0337
Encoding: 823 823 277
Width: 0
VWidth: 0
Flags: HMW
AnchorPoint: "overlay" 0 205 mark 0
AnchorPoint: "above" 0 445 mark 0
LayerCount: 2
Fore
SplineSet
-200 -15 m 256
 -200 -14.3330078125 -200 -13 -199 -12 c 258
 171 447 l 258
 172.333007812 448.333007812 174 449 176 449 c 256
 182.313476562 449 200 436.936523438 200 430 c 256
 200 429.333007812 199.666992188 428.333007812 199 427 c 258
 -170 -32 l 258
 -171 -33 -172.333007812 -34.3330078125 -175 -35 c 256
 -180.569335938 -35 -200 -22.3408203125 -200 -15 c 256
EndSplineSet
Validated: 1
EndChar

StartChar: uni0338
Encoding: 824 824 278
Width: 0
VWidth: 0
Flags: HMW
AnchorPoint: "overlay" 0 330 mark 0
AnchorPoint: "above" 0 675 mark 0
LayerCount: 2
Fore
SplineSet
-319.728515625 -13 m 258
 287.271484375 700 l 258
 288.048828125 701 289.938476562 702 291.271484375 702 c 256
 300.703125 702 320.271484375 684.190429688 320.271484375 677 c 256
 320.271484375 675.666992188 320.048828125 674 319.271484375 673 c 258
 -287.728515625 -40 l 258
 -288.951171875 -41 -289.395507812 -41 -290.728515625 -41 c 256
 -294.728515625 -41 -300.728515625 -37.6669921875 -308.728515625 -31 c 256
 -316.061523438 -23 -319.728515625 -17.6669921875 -319.728515625 -15 c 256
 -319.728515625 -14 -320.951171875 -14 -319.728515625 -13 c 258
EndSplineSet
Validated: 1
EndChar

StartChar: uni033A
Encoding: 826 826 280
Width: 0
VWidth: 0
Flags: HMW
AnchorPoint: "below" 0 -37 mark 0
LayerCount: 2
Fore
SplineSet
-120 -87 m 257
 -73 -87 l 257
 -73 -169 l 257
 78 -169 l 257
 78 -87 l 257
 125 -87 l 257
 125 -216 l 257
 -120 -216 l 257
 -120 -87 l 257
EndSplineSet
Validated: 1
EndChar

StartChar: uni033B
Encoding: 827 827 281
Width: 0
VWidth: 0
Flags: HMW
AnchorPoint: "below" 0 -37 mark 0
LayerCount: 2
Fore
SplineSet
-97 -87 m 257
 98 -87 l 257
 98 -283 l 257
 -97 -283 l 257
 -97 -87 l 257
-51 -134 m 257
 -51 -236 l 257
 52 -236 l 257
 52 -134 l 257
 -51 -134 l 257
EndSplineSet
Validated: 1
EndChar

StartChar: uni033C
Encoding: 828 828 282
Width: 0
VWidth: 0
Flags: HMW
AnchorPoint: "below" 0 -37 mark 0
LayerCount: 2
Fore
SplineSet
-178 -182.040039062 m 257
 -178 -127.729492188 -130.852539062 -87.0400390625 -78 -87.0400390625 c 256
 -46.6669921875 -87.0400390625 -21 -98.373046875 -1 -121.040039062 c 257
 20.3330078125 -98.373046875 46 -87.0400390625 76 -87.0400390625 c 256
 77.0400390625 -87.013671875 78.07421875 -87 79.1025390625 -87 c 0
 133.826171875 -87 176 -131.201171875 176 -182.040039062 c 257
 128 -182.040039062 l 257
 128.083007812 -180.540039062 128.125 -179.060546875 128.125 -177.602539062 c 0
 128.125 -143.525390625 104.329101562 -120.040039062 76 -120.040039062 c 256
 41.8876953125 -120.040039062 22 -149.0234375 22 -182.040039062 c 257
 -25 -182.040039062 l 257
 -25 -146.25 -47.5615234375 -120.040039062 -78 -120.040039062 c 256
 -111.2578125 -120.040039062 -131 -149.651367188 -131 -182.040039062 c 257
 -178 -182.040039062 l 257
EndSplineSet
Validated: 1
EndChar

StartChar: uni033E
Encoding: 830 830 284
Width: 0
VWidth: 0
Flags: HMW
AnchorPoint: "above" 0 458 mark 0
LayerCount: 2
Fore
SplineSet
-36.125 726.3828125 m 257
 -36.125 728.08203125 l 258
 -36.125 732.19921875 -28.875 738 -24 738 c 256
 -22.8671875 738 -22.9091796875 738.176757812 -21.6748046875 737.432617188 c 256
 -11 731 2 721 15.724609375 701.732421875 c 256
 29.4931640625 682.40234375 35.275390625 665.749023438 35.275390625 653.282226562 c 256
 35.275390625 639.682617188 30.7421875 620.69921875 21.6748046875 596.33203125 c 256
 14.1037025791 576.320759273 9.50527299699 562.128846975 9.50527299699 549.643833497 c 0
 9.50527299699 533.812875501 16.8987019241 520.726296839 35 502 c 256
 41.6414028635 495.358597136 25.2528665367 485.012948898 23.375 486.682617188 c 256
 -14.875 520.682617188 -31.875 535.9296875 -31.875 574.232421875 c 256
 -31.875 586.1328125 -27.341796875 604.83203125 -18.275390625 630.33203125 c 256
 -10.908203125 650.165039062 -7.224609375 664.899414062 -7.224609375 674.532226562 c 256
 -7.224609375 690.399414062 -16.8583984375 707.682617188 -36.125 726.3828125 c 257
EndSplineSet
Validated: 1
EndChar

StartChar: uni0346
Encoding: 838 838 292
Width: 0
VWidth: 0
Flags: HMW
AnchorPoint: "above" 0 470 mark 0
LayerCount: 2
Fore
SplineSet
-123 500 m 257
 -123 628 l 257
 121 628 l 257
 121 500 l 257
 75 500 l 257
 75 582 l 257
 -77 582 l 257
 -77 500 l 257
 -123 500 l 257
EndSplineSet
Validated: 1
EndChar

StartChar: uni0349
Encoding: 841 841 295
Width: 0
VWidth: 0
Flags: HMW
AnchorPoint: "below" 0 -37 mark 0
LayerCount: 2
Fore
SplineSet
-69 -87 m 257
 69 -87 l 257
 69 -225 l 257
 23 -225 l 257
 23 -134 l 257
 -69 -134 l 257
 -69 -87 l 257
EndSplineSet
Validated: 1
EndChar

StartChar: uni034A
Encoding: 842 842 296
Width: 0
VWidth: 0
Flags: HMW
AnchorPoint: "above" 0 485 mark 0
LayerCount: 2
Fore
SplineSet
-142 570 m 256
 -112 616.666992188 -79.3330078125 640 -44 640 c 256
 -36 640 -25.6669921875 638.333007812 -13 635 c 257
 -4 668 l 257
 41 655 l 257
 31 621 l 257
 49 614.333007812 63.6669921875 611 75 611 c 256
 93.6669921875 611 114 622 136 644 c 257
 140 645 l 258
 141.333007812 645 142.666992188 644 144 642 c 256
 148 640 150 637.666992188 150 635 c 256
 147.163085938 612.301757812 137.4375 601.076171875 106 583 c 257
 82.6669921875 567.666992188 64 560 50 560 c 256
 39.3330078125 560 28 561.666992188 16 565 c 257
 6 526 l 257
 -39 539 l 257
 -28 581 l 257
 -45.3330078125 587.666992188 -60.6669921875 591 -74 591 c 256
 -93.005859375 590.295898438 -111.844726562 579.155273438 -130 561 c 256
 -131.333007812 559.666992188 -132.666992188 559 -134 559 c 0
 -138.76953125 559 -142 568.154296875 -142 570 c 256
EndSplineSet
Validated: 1
EndChar

StartChar: uni034B
Encoding: 843 843 297
Width: 0
VWidth: 0
Flags: HMW
AnchorPoint: "above" 0 467 mark 0
LayerCount: 2
Fore
SplineSet
-146 586 m 256
 -116 632.666992188 -83.3330078125 654 -48 654 c 256
 -34 654 -11.6669921875 648.666992188 19 638 c 256
 42.3330078125 629.333007812 59.6669921875 625 71 625 c 256
 89.6669921875 625 110 638 132 660 c 257
 136.877929688 661.219726562 148.417230705 655.592738339 146 651 c 256
 136 632 126 617 103 602 c 256
 79.6669921875 586.666992188 60.6669921875 579 46 579 c 256
 30 579 7.6669921875 584.666992188 -21 596 c 256
 -44.5848710727 604.923576263 -62.9970914163 610.032389571 -76.2136139597 610.032389571 c 0
 -76.8200144808 610.032389571 -77.4154772362 610.021634711 -78 610 c 256
 -97.005859375 609.295898438 -113.844726562 594.155273438 -132 576 c 256
 -133.333007812 574.666992188 -134.666992188 574 -136 574 c 0
 -140.76953125 574 -146.998046875 584.447265625 -146 586 c 256
-28 533 m 256
 -28 547.069335938 -17.12109375 559 0 559 c 256
 14.1171875 559 26 548.9375 26 532 c 256
 26 516.947265625 17.3837890625 507 0 507 c 256
 -18.6669921875 507 -28 515.666992188 -28 533 c 256
-28 701 m 256
 -28 715.241881995 -16.7215769447 726 0 726 c 256
 13.5209302821 726 26 716.202673755 26 700 c 256
 26 683.385736819 16.3245942645 676.720765712 0 674 c 256
 -18.6666666667 674.666666667 -28 683.666666667 -28 701 c 256
EndSplineSet
Validated: 1
EndChar

StartChar: uni034C
Encoding: 844 844 298
Width: 0
VWidth: 0
Flags: HMW
AnchorPoint: "above" 0 460 mark 0
LayerCount: 2
Fore
SplineSet
-139.53515625 523.952148438 m 0
 -139.53515625 526.006835938 -139.063476562 527.758789062 -138 529 c 256
 -112 557 -87 571 -63 571 c 256
 -53 570.333007812 -44.6669921875 569.333007812 -38 568 c 258
 33 548 l 258
 39.6669921875 546 45.3330078125 545 50 545 c 256
 64 545 82.6669921875 554 106 572 c 256
 107.107421875 572.94921875 108.3828125 573.375976562 109.75390625 573.375976562 c 0
 117.9296875 573.375976562 129.53125 558.208007812 129.53125 548.265625 c 0
 129.53125 545.720703125 128.771484375 543.518554688 127 542 c 256
 93 514 69 500 55 500 c 256
 47 500 40 500.666992188 34 502 c 258
 -43 525 l 258
 -51 527 -58.6669921875 528 -66 528 c 256
 -76.6669921875 528 -93.3330078125 518 -116 498 c 256
 -117.145507812 497.018554688 -118.420898438 496.578125 -119.76953125 496.578125 c 0
 -128.219726562 496.578125 -139.53515625 513.888671875 -139.53515625 523.952148438 c 0
-139.510742188 636.896484375 m 0
 -139.510742188 639.002929688 -139.045898438 640.779296875 -138 642 c 256
 -112.604492188 669.348632812 -88.1630859375 683.0234375 -64.67578125 683.0234375 c 0
 -54.3564453125 683.0234375 -44.80078125 681.360351562 -38 680 c 258
 33 660 l 258
 39.6669921875 658 45.3330078125 657 50 657 c 256
 64 657 82.6669921875 666 106 684 c 256
 107.107421875 684.94921875 108.3828125 685.375976562 109.75390625 685.375976562 c 0
 117.9296875 685.375976562 129.53125 670.208007812 129.53125 660.265625 c 0
 129.53125 657.720703125 128.771484375 655.518554688 127 654 c 256
 93 626 69 612 55 612 c 256
 47 612 40 612.666992188 34 614 c 258
 -43 637 l 258
 -51 639 -58.6669921875 640 -66 640 c 256
 -76.6669921875 640 -93.3330078125 630 -116 610 c 256
 -117.192382812 608.977539062 -118.500976562 608.518554688 -119.87109375 608.518554688 c 0
 -128.478515625 608.518554688 -139.510742188 626.6328125 -139.510742188 636.896484375 c 0
EndSplineSet
Validated: 1
EndChar

StartChar: uni034D
Encoding: 845 845 299
Width: 0
VWidth: 0
Flags: HMW
AnchorPoint: "below" 0 -37 mark 0
LayerCount: 2
Fore
SplineSet
-129 -168 m 257
 -47 -87 l 257
 -32 -100 l 257
 -76 -153 l 257
 75 -153 l 257
 30 -100 l 257
 50 -84 l 257
 132 -171 l 257
 49 -257 l 257
 30 -241 l 257
 74 -188 l 257
 -76 -188 l 257
 -32 -240 l 257
 -48 -254 l 257
 -129 -168 l 257
EndSplineSet
Validated: 1
EndChar

StartChar: uni034E
Encoding: 846 846 300
Width: 0
VWidth: 0
Flags: HMW
AnchorPoint: "below" 0 -37 mark 0
LayerCount: 2
Fore
SplineSet
-84 -173 m 257
 0 -87 l 257
 84 -172 l 257
 70 -190 l 257
 17 -145 l 257
 17 -242 l 257
 -18 -242 l 257
 -18 -145 l 257
 -71 -190 l 257
 -84 -173 l 257
EndSplineSet
Validated: 1
EndChar

StartChar: uni0350
Encoding: 848 848 302
Width: 0
VWidth: 0
Flags: HMW
AnchorPoint: "above" 0 460 mark 0
LayerCount: 2
Fore
SplineSet
-62 500 m 257
 -62 534 l 257
 33 579 l 257
 -62 624 l 257
 -62 657 l 257
 76 591 l 257
 76 564 l 257
 -62 500 l 257
EndSplineSet
Validated: 1
EndChar

StartChar: uni0351
Encoding: 849 849 303
Width: 0
VWidth: 0
Flags: HMW
AnchorPoint: "above" 0 444 mark 0
LayerCount: 2
Fore
SplineSet
-60 579.5 m 0
 -60 643.166992188 -28 675 36 675 c 257
 36 631 l 257
 2.6669921875 631 -14.3330078125 614 -15 580 c 256
 -15 546 2 528.666992188 36 528 c 257
 36 484 l 257
 -28 484 -60 515.833007812 -60 579.5 c 0
EndSplineSet
Validated: 1
EndChar

StartChar: uni0353
Encoding: 851 851 305
Width: 0
VWidth: 0
Flags: HMW
AnchorPoint: "below" 0 -37 mark 0
LayerCount: 2
Fore
SplineSet
-93 -112 m 257
 -69 -87 l 257
 -1 -157 l 257
 69 -87 l 257
 93 -112 l 257
 24 -180 l 257
 93 -250 l 257
 69 -274 l 257
 -1 -205 l 257
 -69 -274 l 257
 -93 -250 l 257
 -25 -180 l 257
 -93 -112 l 257
EndSplineSet
Validated: 1
EndChar

StartChar: uni0354
Encoding: 852 852 306
Width: 0
VWidth: 0
Flags: HMW
AnchorPoint: "below" 0 -37 mark 0
LayerCount: 2
Fore
SplineSet
-69 -153 m 257
 69 -87 l 257
 69 -120 l 257
 -26 -165 l 257
 69 -210 l 257
 69 -244 l 257
 -69 -180 l 257
 -69 -153 l 257
EndSplineSet
Validated: 1
EndChar

StartChar: uni0356
Encoding: 854 854 308
Width: 0
VWidth: 0
Flags: HMW
AnchorPoint: "below" 0 -37 mark 0
LayerCount: 2
Fore
SplineSet
-154 -87 m 257
 -17 -153 l 257
 -17 -180 l 257
 -154 -245 l 257
 -154 -210 l 257
 -59 -166 l 257
 -59 -165 l 257
 -154 -120 l 257
 -154 -87 l 257
-3 -236 m 257
 62 -100 l 257
 89 -100 l 257
 154 -236 l 257
 120 -236 l 257
 76 -143 l 257
 74 -143 l 257
 30 -236 l 257
 -3 -236 l 257
EndSplineSet
Validated: 1
EndChar

StartChar: uni0357
Encoding: 855 855 309
Width: 0
VWidth: 0
Flags: HMW
AnchorPoint: "above" 0 444 mark 0
LayerCount: 2
Fore
SplineSet
-36 484 m 257
 -36 528 l 257
 -2 528.666992188 15 546 15 580 c 256
 14.3330078125 614 -2.6669921875 631 -36 631 c 257
 -36 675 l 257
 28 675 60 643.166992188 60 579.5 c 0
 60 515.833007812 28 484 -36 484 c 257
EndSplineSet
Validated: 1
EndChar

StartChar: uni0359
Encoding: 857 857 311
Width: 0
VWidth: 0
Flags: HMW
AnchorPoint: "below" 0 -37 mark 0
LayerCount: 2
Fore
SplineSet
-116 -150 m 257
 -98 -121 l 257
 -17 -166 l 257
 -17 -77 l 257
 18 -77 l 257
 18 -167 l 257
 96 -121 l 257
 114 -151 l 257
 36 -197 l 257
 114 -243 l 257
 96 -273 l 257
 18 -228 l 257
 18 -321 l 257
 -17 -321 l 257
 -17 -228 l 257
 -97 -273 l 257
 -115 -243 l 257
 -34 -197 l 257
 -116 -150 l 257
EndSplineSet
Validated: 1
EndChar

StartChar: uni035A
Encoding: 858 858 312
Width: 0
VWidth: 0
Flags: HMW
AnchorPoint: "below" 0 -37 mark 0
LayerCount: 2
Fore
SplineSet
-176 -182 m 0
 -176 -128.947265625 -130.765625 -88.48046875 -76 -87 c 0
 -45.3330078125 -87 -20 -98.3330078125 0 -121 c 1
 19.3330078125 -99 45 -87.6669921875 77 -87 c 0
 129.946289062 -87 177 -126.120117188 177 -182 c 0
 177 -237.854492188 129.924804688 -277 77 -277 c 0
 45 -276.333007812 19.3330078125 -265 0 -243 c 1
 -20 -265.666992188 -45.3330078125 -277 -76 -277 c 0
 -130.76171875 -275.51953125 -176 -235.05078125 -176 -182 c 0
-129.111328125 -178.037109375 m 0
 -129.111328125 -179.345703125 -129.07421875 -180.666992188 -129 -182 c 0
 -129.07421875 -183.333007812 -129.111328125 -184.654296875 -129.111328125 -185.962890625 c 0
 -129.111328125 -219.580078125 -104.028320312 -244 -76 -244 c 0
 -41.958984375 -244 -23 -214.561523438 -23 -182 c 0
 -23 -149.4140625 -41.9482421875 -120 -76 -120 c 0
 -104.044921875 -120 -129.111328125 -144.40625 -129.111328125 -178.037109375 c 0
24 -182 m 0
 24 -216.665039062 46.986328125 -244 77 -244 c 0
 111.041015625 -244 130 -214.561523438 130 -182 c 0
 130 -149.4140625 111.051757812 -120 77 -120 c 0
 46.9775390625 -120 24 -147.322265625 24 -182 c 0
EndSplineSet
Validated: 1
EndChar

StartChar: uni035B
Encoding: 859 859 313
Width: 0
VWidth: 0
Flags: HMW
AnchorPoint: "above" 0 462 mark 0
LayerCount: 2
Fore
SplineSet
-100.299804688 605.700195312 m 256
 -100.299804688 607.966796875 -99.1669921875 611.366210938 -96.900390625 615.900390625 c 258
 -25.5 746.799804688 l 258
 -24.3662109375 749.06640625 -21.81640625 750.200195312 -17.849609375 750.200195312 c 256
 -8.783203125 750.200195312 -4.25 748.216796875 -4.25 744.25 c 258
 -4.25 742.549804688 l 257
 -35.7001953125 655.849609375 l 258
 -36.2666015625 653.583007812 -36.5498046875 651.599609375 -36.5498046875 649.900390625 c 256
 -36.5498046875 645.93359375 -33.716796875 643.950195312 -28.0498046875 643.950195312 c 258
 86.7001953125 643.950195312 l 258
 95.7666015625 643.950195312 100.299804688 641.68359375 100.299804688 637.150390625 c 256
 100.299804688 634.31640625 98.8837890625 630.349609375 96.0498046875 625.25 c 258
 26.349609375 496.900390625 l 258
 24.650390625 493.5 21.533203125 491.799804688 17 491.799804688 c 256
 9.06640625 491.799804688 4.81640625 493.783203125 4.25 497.75 c 256
 4.25 498.31640625 4.533203125 499.166992188 5.099609375 500.299804688 c 258
 37.400390625 587.849609375 l 258
 38.533203125 590.68359375 39.099609375 593.516601562 39.099609375 596.349609375 c 256
 39.099609375 598.616210938 35.7001953125 599.75 28.900390625 599.75 c 258
 -86.7001953125 599.75 l 258
 -95.7666015625 599.75 -100.299804688 601.733398438 -100.299804688 605.700195312 c 256
EndSplineSet
Validated: 1
EndChar

StartChar: uni035D
Encoding: 861 861 315
Width: 0
VWidth: 0
Flags: HMW
AnchorPoint: "above" 0 450 mark 0
LayerCount: 2
Fore
SplineSet
-60 625 m 256
 -60 633 -57.3330078125 637 -52 637 c 256
 -47.3330078125 637 -43.3330078125 635.333007812 -40 632 c 256
 25.3330078125 567.333007812 109.666992188 535 213 535 c 256
 316.333007812 535 401 567 467 631 c 256
 471 635 474.333007812 637 477 637 c 256
 483 637 486 633 486 625 c 256
 486 620.333007812 484.666992188 616.666992188 482 614 c 256
 423.109375 550.096679688 319.516601562 495 213 495 c 256
 86.38671875 495 12.9609375 540.0234375 -56 614 c 256
 -58.6669921875 616.666992188 -60 620.333007812 -60 625 c 256
EndSplineSet
Validated: 1
EndChar

StartChar: uni035E
Encoding: 862 862 316
Width: 0
VWidth: 0
Flags: HMW
AnchorPoint: "above" 0 460 mark 0
LayerCount: 2
Fore
SplineSet
-60 526 m 0
 -60 541.333007812 -55.3330078125 551 -46 551 c 258
 563 551 l 258
 571.666992188 551 576 542 576 528 c 256
 576 511.333007812 571 502 561 502 c 258
 -46 502 l 258
 -55.3330078125 502 -60 510.666992188 -60 526 c 0
EndSplineSet
Validated: 1
EndChar

StartChar: uni0360
Encoding: 864 864 318
Width: 0
VWidth: 0
Flags: HMW
AnchorPoint: "above" 0 450 mark 0
LayerCount: 2
Fore
SplineSet
-60 504 m 258
 -60 505 l 257
 -2 551.666992188 63.3330078125 575 136 575 c 256
 166.666992188 575 211.333007812 569.666992188 270 559 c 256
 316 550.333007812 350.333007812 546 373 546 c 256
 407.666992188 546 448.333007812 557 495 579 c 256
 495.666992188 579 497 579.333007812 499 580 c 256
 506.028320312 580 524 574.375976562 524 568 c 256
 524 567.333007812 523.666992188 566 523 564 c 256
 517.666992188 552 492.666992188 538 448 522 c 256
 398 504 356.666992188 495 324 495 c 256
 292 495 247.333007812 500.666992188 190 512 c 256
 140.666992188 521.333007812 102.666992188 526 76 526 c 256
 37.3330078125 526 -1.6669921875 515.333007812 -41 494 c 256
 -41.6669921875 493.333007812 -42.6669921875 493.333007812 -44 494 c 256
 -50.2548828125 494 -60 500.799804688 -60 504 c 258
EndSplineSet
Validated: 1
EndChar

StartChar: uni0361
Encoding: 865 865 319
Width: 0
VWidth: 0
Flags: HMW
AnchorPoint: "above" 0 460 mark 0
LayerCount: 2
Fore
SplineSet
-60 506 m 256
 -60 510.666992188 -58.6669921875 514.333007812 -56 517 c 256
 13.0732421875 591.096679688 86.2177734375 636 213 636 c 256
 319.375976562 636 423.212890625 580.790039062 482 517 c 256
 484.666992188 514.333007812 486 510.666992188 486 506 c 256
 486 498 483 494 477 494 c 256
 474.333007812 494 471 496 467 500 c 256
 401 564 316.333007812 596 213 596 c 256
 109.666992188 596 25.3330078125 563.666992188 -40 499 c 256
 -43.3330078125 495.666992188 -47.3330078125 494 -52 494 c 256
 -57.3330078125 494 -60 498 -60 506 c 256
EndSplineSet
Validated: 1
EndChar

StartChar: uni0362
Encoding: 866 866 320
Width: 0
VWidth: 0
Flags: HMW
AnchorPoint: "below" 0 -37 mark 0
LayerCount: 2
Fore
SplineSet
-60 -123 m 257
 429 -123 l 257
 379 -72 l 257
 402 -63 l 257
 482 -143 l 257
 402 -222 l 257
 379 -213 l 257
 429 -162 l 257
 -60 -162 l 257
 -60 -123 l 257
EndSplineSet
Validated: 1
EndChar

StartChar: AE
Encoding: 198 198 327
Width: 914
VWidth: 0
Flags: HMW
AnchorPoint: "below" 497 -37 basechar 0
AnchorPoint: "above" 573 675 basechar 0
LayerCount: 2
Fore
SplineSet
6 15.5 m 0
 6 27.8330078125 8.3330078125 34 13 34 c 256
 52.3330078125 34 81 51 100 84 c 258
 381 587 l 258
 386.333007812 596.333007812 389 603.666992188 389 609 c 256
 389 622.333007812 375.666992188 629 349 629 c 256
 344.885742188 629 342.483398438 639.12109375 342.483398438 648.776367188 c 0
 342.483398438 657.58203125 344.481445312 666 349 666 c 256
 394.333007812 664 439 663 483 663 c 0
 551.609375 663 728.536132812 666 793.5 666 c 0
 823.833007812 666 840.5 664.833007812 843.5 662.5 c 0
 846.5 660.166992188 848 656 848 650 c 258
 848 502 l 258
 848 498 842 496 830 496 c 0
 818 496 812 498 812 502 c 256
 812 544.666992188 803.333007812 576.666992188 776 600 c 0
 748.666992188 623.333007812 705.666015625 628.297851562 675 629 c 258
 544 632 l 258
 530.666992188 632 524 626 524 613 c 258
 524 350 l 258
 524 339 529.666992188 333 541 333 c 258
 645 333 l 258
 677.666992188 333 694 345 694 375 c 258
 694 419 l 258
 694 423 699.666992188 425 711 425 c 0
 722.333007812 425 728 423 728 419 c 256
 726 400.333007812 725 368 725 316 c 0
 725 264 726 236.666992188 728 220 c 256
 728 216 722.333007812 214 711 214 c 0
 699.666992188 214 694 216 694 220 c 258
 694 254 l 258
 694 282 677.666992188 299 645 299 c 258
 541 299 l 258
 529.666992188 299 524 293.666992188 524 283 c 258
 524 146 l 258
 524 106 529.333007812 74.6669921875 546 56 c 0
 561.974624078 38.108458473 582.871704051 29.9541752478 603.341282874 29.9541752478 c 0
 604.228470173 29.9541752478 605.11485441 29.969493126 606 30 c 258
 722 34 l 258
 750.65625 34.98828125 778 40 804 64 c 0
 830 88 837 117.333007812 837 158 c 256
 837 164 843.166992188 167 855.5 167 c 0
 867.833007812 167 874 164 874 158 c 258
 874 9 l 258
 874 1 858.544921875 -3.5185546875 827.634765625 -3.5185546875 c 0
 762.094726562 -3.5185546875 558.474609375 0 489.5 0 c 0
 445.833007812 0 410.333007812 -1 369 -3 c 256
 365 -3 363 3.1669921875 363 15.5 c 0
 363 27.8330078125 365 34 369 34 c 256
 424.333007812 34 445 51 445 86 c 258
 445 283 l 258
 445 294.333007812 440 299 429 299 c 258
 277 299 l 258
 267.666992188 299 261 295.333007812 257 288 c 258
 152 82 l 258
 148 74 146 67.3330078125 146 62 c 256
 146 43.3115234375 162.049804688 33.966796875 208.1484375 33.966796875 c 0
 209.73828125 33.966796875 211.35546875 33.9775390625 213 34 c 256
 217.666992188 34 220 27.8330078125 220 15.5 c 0
 220 3.1669921875 217.666992188 -3 213 -3 c 256
 189 -1 162 0 118 0 c 0
 74 0 39 -1 13 -3 c 256
 8.3330078125 -3 6 3.1669921875 6 15.5 c 0
289 340 m 256
 289 335.333007812 292.333007812 333 299 333 c 258
 429 333 l 258
 440 333 445 339 445 350 c 258
 445 584 l 258
 445 593 441.833007812 597 435.5 597 c 0
 429.166992188 597 425 593 422 587 c 258
 291 347 l 258
 290 345 289 342.666992188 289 340 c 256
EndSplineSet
Validated: 1
EndChar

StartChar: Ccedilla
Encoding: 199 199 328
Width: 667
Flags: HM
AnchorPoint: "above" 360 675 basechar 0
AnchorPoint: "below" 372 -237 basechar 0
LayerCount: 2
Fore
SplineSet
255 -182 m 0
 255 -164.666992188 263.333007812 -156 280 -156 c 0
 287.333007812 -156 297 -161 309 -171 c 0
 320.333007812 -180.333007812 328.333007812 -185 333 -185 c 0
 351 -185 360 -174 360 -152 c 0
 360 -130 342.666992188 -110 308 -92 c 0
 302 -88.6669921875 299 -85.3330078125 299 -82 c 0
 299 -78.6669921875 300 -76 302 -74 c 2
 344.619140625 -10.0712890625 l 1
 223 -5 134.996548784 64.3134000879 85 147 c 0
 55 196 40 251 40 316 c 0
 40 466 113 572 208 630 c 0
 258 660 319 675 392 675 c 0
 421 675 450 673 478 668 c 0
 506 663 546 656 597 647 c 1
 606 604 611 560 611 502 c 0
 610 497 604 494 594 494 c 0
 584 494 578 496 577 501 c 0
 568 598 501 640 378 641 c 0
 311 641 254 611 206 551 c 0
 158 491 134 423 134 345 c 0
 134 253 157 178 204 117 c 0
 251 56 309 25 377 25 c 0
 492 25 563 62 595 150 c 0
 596 153 601 155 609 155 c 0
 622 155 627 154 627 144 c 0
 615 82 603 45 586 20 c 1
 575 19 563 16 549 11 c 0
 502.990158549 -3.37807545338 450.036132812 -10.40625 379.256835938 -10.9638671875 c 1
 362 -35 l 2
 361 -37 359.666992188 -39.3330078125 359 -42 c 0
 359 -44.6669921875 360.666992188 -47.3330078125 364 -50 c 0
 399.333007812 -74 417 -99.6669921875 417 -127 c 0
 417 -155 406.333007812 -177 385 -193 c 0
 363 -209 339 -217 313 -217 c 0
 274.333007812 -217 255 -205.333007812 255 -182 c 0
EndSplineSet
Validated: 1
EndChar

StartChar: Eth
Encoding: 208 208 337
Width: 726
VWidth: 0
Flags: HMW
AnchorPoint: "below" 315 -37 basechar 0
AnchorPoint: "above" 308 675 basechar 0
LayerCount: 2
Fore
SplineSet
263 636 m 2
 217 636 192 626 192 580 c 2
 192 367 l 2
 192 358 194 356 203 356 c 2
 311 356 l 2
 319 356 320 341.763671875 320 331 c 0
 320 320.236328125 319 307 311 307 c 2
 204 307 l 2
 194 307 192 305 192 297 c 2
 192 146 l 2
 192 52 225 26 315 26 c 0
 492 26 588 167 588 350 c 0
 588 432 560 503 502 556 c 0
 444 609 372 636 285 636 c 2
 263 636 l 2
30 15 m 0
 30 27 32 33 36 34 c 0
 95 34 114 53 114 91 c 2
 114 297 l 2
 114 305 112.071289062 307 101 307 c 2
 39 307 l 2
 31 307 30 320.236328125 30 331 c 0
 30 341.763671875 31 356 39 356 c 2
 102 356 l 2
 112 356 114 358 114 367 c 2
 114 575 l 2
 114 611 98 629 37 629 c 0
 32 629 30 636 30 648 c 0
 30 660 32 666 37 666 c 0
 82 664 106 663 139 663 c 0
 192 663 276 666 325 666 c 0
 426 666 511 638 579 584 c 0
 647 530 681 452 681 355 c 0
 681 250 652 165 592 98 c 0
 532 31 451 -3 349 -3 c 0
 310 -3 176 0 134 0 c 0
 102 0 76 -1 36 -3 c 0
 32 -3 30 3 30 15 c 0
EndSplineSet
Validated: 1
EndChar

StartChar: multiply
Encoding: 215 215 344
Width: 479
VWidth: 0
Flags: HMW
AnchorPoint: "overlay" 240 230 basechar 0
LayerCount: 2
Fore
SplineSet
50 84 m 257
 189 230 l 257
 50 375 l 257
 99 425 l 257
 239 280 l 257
 380 425 l 257
 429 375 l 257
 289 230 l 257
 429 84 l 257
 380 32 l 257
 239 178 l 257
 99 32 l 257
 50 84 l 257
EndSplineSet
Validated: 1
EndChar

StartChar: Oslash
Encoding: 216 216 345
Width: 721
VWidth: 0
Flags: HMW
AnchorPoint: "below" 367 -37 basechar 0
AnchorPoint: "above" 359 675 basechar 0
LayerCount: 2
Fore
SplineSet
45 326 m 256
 45 411.333007812 73.6669921875 491 131 565 c 256
 188.333007812 639 265.333007812 675 362 675 c 256
 438.666992188 675 505.666992188 649.666992188 563 597 c 257
 605 647 l 258
 606.333007812 648.333007812 607.666992188 649 609 649 c 256
 617.216796875 649 638 633.045898438 638 624 c 256
 638 622.666992188 637.666992188 621.333007812 637 620 c 258
 592 566 l 257
 648 500 676 419.333007812 676 324 c 256
 676 240.666992188 647.666992188 163.666992188 591 93 c 256
 534.333007812 22.3330078125 457.333007812 -13 360 -13 c 256
 282 -13 216.333007812 9.6669921875 163 55 c 257
 114 -3 l 258
 113.333007812 -3.6669921875 112.333007812 -4 111 -4 c 256
 106.061523438 -4 82 14.580078125 82 22 c 256
 82 23 82.6669921875 24 84 26 c 258
 133 85 l 257
 74.3330078125 152.333007812 45 232.666992188 45 326 c 256
139 354 m 256
 139 272 155 203.666992188 187 149 c 257
 516 542 l 257
 468 608.666992188 414.666992188 642 356 642 c 256
 287.333007812 642 234 612.333007812 196 553 c 256
 158 493.666992188 139 427.333007812 139 354 c 256
212 113 m 257
 260.666992188 53 312.333007812 23 367 23 c 256
 436.333007812 23 489.666992188 51.3330078125 527 108 c 256
 564.333007812 164 583 233.333007812 583 316 c 256
 583 386.666992188 568.666992188 449 540 503 c 257
 212 113 l 257
EndSplineSet
Validated: 1
EndChar

StartChar: Thorn
Encoding: 222 222 351
Width: 580
VWidth: 0
Flags: HMW
LayerCount: 2
Fore
SplineSet
30 624.5 m 0
 30 636.833007812 32 643 36 643 c 256
 68 643 104 653 162 673 c 256
 170 675 176 676 180 676 c 256
 190 676 195 672.833007812 195 666.5 c 0
 195 640.709960938 192 613.828125 192 580 c 258
 192 555 l 258
 192 545 194.333007812 540 199 540 c 256
 201.666992188 540 205.666992188 541.666992188 211 545 c 256
 255.333984375 574.555664062 274.262695312 590.591796875 312.5 624.5 c 0
 330.166992188 640.166992188 349 648 369 648 c 256
 392.333007812 648 412.166992188 640 428.5 624 c 0
 468.109375 585.19921875 492.90625 546.828125 512 480 c 0
 522.666992188 442.666992188 528 403.333007812 528 362 c 256
 528 278 498.166992188 198.666992188 438.5 124 c 0
 378.833007812 49.3330078125 303 5.3330078125 211 -8 c 256
 198.333007812 -10 192 -17 192 -30 c 258
 192 -155 l 258
 192 -173.666992188 178 -194 150 -216 c 258
 76 -273 l 258
 74.6669921875 -274.333007812 72.3330078125 -275 69 -275 c 256
 59 -275 50.1669921875 -270 42.5 -260 c 0
 34.8330078125 -250 31 -242.666992188 31 -238 c 0
 31 -233.333007812 32.3330078125 -230 35 -228 c 258
 88 -184 l 258
 104.666992188 -170 113 -153.666992188 113 -135 c 258
 113 540 l 258
 113 584 93.3330078125 606 36 606 c 256
 32 606 30 612.166992188 30 624.5 c 0
192 44 m 258
 192 34 196.333007812 28.6669921875 205 28 c 256
 273 28 328.333007812 63.1669921875 371 133.5 c 0
 413.666992188 203.833007812 435 280 435 362 c 256
 435 401.333007812 423.5 449.333007812 400.5 506 c 0
 377.5 562.666992188 354 591 330 591 c 256
 324 591 318 588.666992188 312 584 c 256
 277.333007812 553.333007812 253.666992188 533.5 241 524.5 c 0
 228.333007812 515.5 217 508.166992188 207 502.5 c 0
 197 496.833007812 192 489.333007812 192 480 c 258
 192 44 l 258
EndSplineSet
Validated: 1
EndChar

StartChar: germandbls
Encoding: 223 223 352
Width: 535
VWidth: 0
Flags: HMW
LayerCount: 2
Fore
SplineSet
29 10 m 256
 29 19.3330078125 31.3330078125 24 36 24 c 256
 74 24 93 36.3330078125 93 61 c 258
 93 338 l 258
 93 344.666992188 89 348 81 348 c 258
 39 348 l 258
 34.3330078125 348 32 352.666992188 32 362 c 256
 32 370.666992188 34.3330078125 375 39 375 c 256
 71.9453125 375 93 405.075195312 93 443 c 256
 93 525.666992188 116 592.333007812 162 643 c 256
 208 693 261.666992188 718 323 718 c 256
 404.146484375 718 465 656.489257812 465 576 c 256
 465 536 440.333007812 502.333007812 391 459 c 256
 341.666992188 415.666992188 317 381 317 355 c 256
 317 339 321.333007812 325 330 313 c 256
 338 301 359.333007812 286.333007812 394 269 c 256
 428.666992188 251.666992188 454.333007812 232.333007812 471 211 c 256
 487 190.333007812 495 163.333007812 495 130 c 256
 495 85.3330078125 480.666992188 50.3330078125 452 25 c 256
 424 0.3330078125 391 -12 353 -12 c 256
 327.666992188 -12 300.666992188 -2.3330078125 272 17 c 257
 266.666992188 35.6669921875 264 62 264 96 c 256
 264 100.666992188 267.333007812 103 274 103 c 256
 280.666992188 103 285 100.666992188 287 96 c 257
 287 54.6416015625 326.791015625 20.3515625 366 19 c 256
 385.333007812 19 402 27.6669921875 416 45 c 256
 430 62.3330078125 437.333007812 79 438 95 c 256
 438 138.333007812 418 170.666992188 378 192 c 256
 338 213.333007812 308.666992188 234 290 254 c 256
 270.666992188 274 261 299.666992188 261 331 c 256
 261 362.333007812 271.333007812 388 292 408 c 258
 340 455 l 258
 377.786132812 491.706054688 394 509.98046875 394 571 c 256
 394 637.116210938 351.107421875 678 285 678 c 256
 216.458007812 678 177.440429688 622.111328125 171 559 c 256
 168.333007812 526.333007812 167 484 167 432 c 258
 167 62 l 258
 167 37 187.333007812 24 228 24 c 256
 232.666992188 24 235 19.3330078125 235 10 c 256
 235 0.6669921875 232.666992188 -4 228 -4 c 256
 202 -1.3330078125 170 0 132 0 c 256
 94 0 62 -1.3330078125 36 -4 c 256
 31.3330078125 -4 29 0.6669921875 29 10 c 256
EndSplineSet
Validated: 1
EndChar

StartChar: ae
Encoding: 230 230 359
Width: 559
VWidth: 0
Flags: HMW
AnchorPoint: "below" 264 -37 basechar 0
AnchorPoint: "above" 287 439 basechar 0
LayerCount: 2
Fore
SplineSet
17 296 m 256
 17 329.333007812 36.5 359.166992188 75.5 385.5 c 0
 114.5 411.833007812 157 425 193 425 c 256
 229.666666667 425 258 411.333333333 278 384 c 256
 282 378 285.333333333 375 288 375 c 256
 290 375 295.333333333 378.666666667 304 386 c 256
 336 412 370.666666667 425 408 425 c 256
 463.668448846 425 535 403.874345211 535 356 c 256
 535 344.666666667 529.333333333 336.333333333 518 331 c 258
 315 247 l 258
 303.666666667 242.333333333 298 225.333333333 298 196 c 256
 298 162 310.166666667 128.5 334.5 95.5 c 0
 358.833333333 62.5 387.333333333 46 420 46 c 256
 458 46 492 58.3333333333 522 83 c 256
 529.66127197 90.6612719708 542 77.8812176733 542 73 c 0
 542 69.6666666667 541.333333333 67 540 65 c 256
 503.333333333 14.3333333333 449.666666667 -11 379 -11 c 256
 331 -11 292 12 262 58 c 256
 257.333333333 64 254.333333333 67 253 67 c 256
 251.666666667 67 249 64.3333333333 245 59 c 256
 211 16.3333333333 170.333007812 -5 133 -5 c 256
 62.3330078125 -5 27 22.6669921875 27 78 c 256
 27 114 37 141 57 159 c 0
 77 177 114.666666667 195.5 160 214.5 c 0
 205.333333333 233.5 228 249.333333333 228 262 c 258
 228 317 l 258
 228 363.666666667 206 387 162 387 c 256
 127.333333333 387 100 378.666992188 90 362 c 257
 86 330.666992188 81.3330078125 307 76 291 c 256
 70.6669921875 277 61 270 47 270 c 256
 27 270 17 278.666992188 17 296 c 256
102 88 m 256
 102 53.3330078125 125.666666667 36 163 36 c 256
 179 36 195.833333333 45.6666666667 213.5 65 c 0
 231.166666667 84.3333333333 240 98.3333333333 240 107 c 257
 238 117.666666667 233.666666667 145.333333333 227 190 c 256
 225.666666667 201.333333333 222.333333333 207 217 207 c 256
 214.333333333 207 210.666666667 206 206 204 c 256
 140 174.666666667 102 136 102 88 c 256
307 290 m 256
 307 282.666666667 311.666666667 280.666666667 321 284 c 258
 452 337 l 258
 462.666666667 341 468 347.666666667 468 357 c 256
 468 376.231722467 425.131782055 395 406 395 c 256
 356.486948064 395 323.693580079 348.234702064 311 309 c 256
 308.333333333 301 307 294.666666667 307 290 c 256
EndSplineSet
Validated: 1
EndChar

StartChar: ccedilla
Encoding: 231 231 360
Width: 414
Flags: HM
AnchorPoint: "above" 228 445 basechar 0
AnchorPoint: "below" 233 -237 basechar 0
LayerCount: 2
Fore
SplineSet
118 -182 m 0
 118 -164.666992188 126.333007812 -156 143 -156 c 0
 150.333007812 -156 160 -161 172 -171 c 0
 183.333007812 -180.333007812 191.333007812 -185 196 -185 c 0
 214 -185 223 -174 223 -152 c 0
 223 -130 205.666992188 -110 171 -92 c 0
 165 -88.6669921875 162 -85.3330078125 162 -82 c 0
 162 -78.6669921875 163 -76 165 -74 c 2
 207.151695584 -10.7724566242 l 1
 163.720640019 -8.5232290131 124.788623373 10.400923195 92 46 c 0
 57 84 40 133 40 193 c 0
 40 253 60 307 100 354 c 0
 140 401 190 425 253 425 c 0
 317 425 355 413 367 389 c 0
 369 385 370 378 370 369 c 0
 370 358 351 333 340 333 c 0
 334 333 330 335 327 340 c 0
 302 375 274 392 243 392 c 0
 212 392 184 375 158 342 c 0
 132 309 120 266 120 215 c 0
 120 164 135 122 164 91 c 0
 193 60 224 44 257 44 c 0
 282 44 317 54 361 74 c 0
 368 77 379 58 379 53 c 0
 379 51 378 49 377 47 c 0
 368 40 350 28 324 12 c 0
 303.296790644 -0.740436526782 276.253006175 -7.77435545186 242.868646593 -10.1115279599 c 1
 225 -35 l 2
 223.666992188 -37 222.666992188 -39.3330078125 222 -42 c 0
 222 -44.6669921875 223.666992188 -47.3330078125 227 -50 c 0
 262.333007812 -74 280 -99.6669921875 280 -127 c 0
 280 -155 269.333007812 -177 248 -193 c 0
 226 -209 202 -217 176 -217 c 0
 137.333007812 -217 118 -205.333007812 118 -182 c 0
EndSplineSet
Validated: 1
EndChar

StartChar: dotlessi
Encoding: 305 305 365
Width: 240
VWidth: 0
Flags: HMW
AnchorPoint: "below" 129 -37 basechar 0
AnchorPoint: "above" 118 439 basechar 0
LayerCount: 2
Fore
SplineSet
35 10 m 256
 35 19.3330078125 37.3330078125 24 42 24 c 256
 78.6669921875 24 90 36.6669921875 90 62 c 258
 90 279 l 258
 90 323.666992188 79 346 49 346 c 256
 43.6669921875 346 41 350.666992188 41 360 c 256
 41 369.333007812 43.6669921875 374 49 374 c 256
 74.0458984375 374 125.206054688 407.904296875 140 419 c 256
 150.666992188 427 158 431 162 431 c 256
 166 431 168 428.333007812 168 423 c 256
 166 387.666992188 165 360.666992188 165 342 c 258
 165 62 l 258
 165 36.6669921875 176.333007812 24 213 24 c 256
 217.666992188 24 220 19.3330078125 220 10 c 256
 220 0.6669921875 217.666992188 -4 213 -4 c 256
 188.333007812 -1.3330078125 165 0 129 0 c 256
 93 0 68.6669921875 -1.3330078125 42 -4 c 256
 37.3330078125 -4 35 0.6669921875 35 10 c 256
EndSplineSet
Validated: 1
EndChar

StartChar: eth
Encoding: 240 240 370
Width: 524
VWidth: 0
Flags: HMW
LayerCount: 2
Fore
SplineSet
20 496 m 256
 20 498 20.3330078125 499 21 499 c 256
 22.3330078125 499 24.3330078125 498.666992188 27 498 c 258
 63 489 l 258
 65 489 68 488.666992188 72 488 c 256
 76 488 81 490.333007812 87 495 c 258
 129 527 l 258
 131.666992188 529 133 531 133 533 c 256
 133 535 131 537.333007812 127 540 c 256
 107.666992188 552 76.6669921875 568.666992188 34 590 c 256
 30 592 28 594.666992188 28 598 c 256
 28 609.70703125 35.85546875 625 42 625 c 256
 60 625 100.333007812 606 163 568 c 256
 166.333007812 566.666992188 170 566 174 566 c 256
 178 566 181 567 183 569 c 258
 333 689 l 258
 333.666992188 689.666992188 334.666992188 690 336 690 c 256
 337.333007812 690 338.544786132 689.198404044 340 688 c 256
 351.333007812 678.666992188 367.666992188 663 385 643 c 256
 389.666992188 637.666992188 392 634 392 632 c 256
 392 630.666992188 390.666992188 630 388 630 c 256
 387 630 386.865753981 629.547696005 385 630 c 258
 352 638 l 258
 346.666992188 639.333007812 342 640 338 640 c 256
 329.333007812 640 319.997070312 638.670898438 314 634 c 258
 212 554 l 258
 207.905637389 550.788735207 206 548 206 546 c 256
 206 544 207.666992188 542 211 540 c 256
 267 507.333007812 313.333007812 476.333007812 350 447 c 256
 386.666992188 417.666992188 418 381.666992188 444 339 c 256
 470.666992188 297 484 255 484 213 c 256
 484 148.333007812 466 94.6669921875 430 52 c 256
 394 10 343.666992188 -11 279 -11 c 256
 218.333007812 -11 167 10.3330078125 125 53 c 256
 83 95.6669921875 62 148.666992188 62 212 c 256
 62 267.333007812 83.6669921875 316.666992188 127 360 c 256
 170.333007812 403.333007812 219 425 273 425 c 256
 277 425 279 426.333007812 279 429 c 256
 279 431.666992188 278 434 276 436 c 256
 243.333007812 464.666992188 209.333007812 489.666992188 174 511 c 256
 172 512.333007812 169.666992188 513.333007812 167 514 c 256
 164.333007812 514 161 512.333007812 157 509 c 258
 68 438 l 258
 66.6669921875 436.666992188 65.3330078125 435.666992188 64 435 c 256
 62.6669921875 435 60.6669921875 436.333007812 58 439 c 256
 55.3330078125 441.666992188 44 457.666992188 24 487 c 256
 21.3330078125 491 20 494 20 496 c 256
147 210 m 256
 147 154 160.333007812 108.333007812 187 73 c 256
 213.666992188 38.3330078125 244 21 278 21 c 256
 308 21 335.666992188 38.3330078125 361 73 c 256
 386.333007812 107.666992188 399 153.333007812 399 210 c 256
 399 265.333007812 385.333007812 310.333007812 358 345 c 256
 330.666992188 379 303.666992188 396 277 396 c 256
 245.666992188 396 216 378.666992188 188 344 c 256
 160.666992188 309.333007812 147 264.666992188 147 210 c 256
EndSplineSet
Validated: 1
EndChar

StartChar: divide
Encoding: 247 247 377
Width: 485
VWidth: 0
Flags: HMW
AnchorPoint: "overlay" 243 230 basechar 0
LayerCount: 2
Fore
SplineSet
50 201 m 257
 50 260 l 257
 435 260 l 257
 435 201 l 257
 50 201 l 257
192.248046875 86.52734375 m 256
 192.248046875 114.840820312 214.75 137.87890625 243 137.87890625 c 0
 271.250976562 137.87890625 293.751953125 114.83984375 293.751953125 86.52734375 c 0
 293.751953125 58.1845703125 271.251953125 36.2001953125 243 36.2001953125 c 0
 214.748046875 36.2001953125 192.248046875 58.185546875 192.248046875 86.52734375 c 256
192.248046875 376.47265625 m 256
 192.248046875 404.81640625 214.748046875 426.799804688 243 426.799804688 c 0
 271.251953125 426.799804688 293.751953125 404.815429688 293.751953125 376.47265625 c 0
 293.751953125 348.159179688 271.25 325.12109375 243 325.12109375 c 0
 214.749023438 325.12109375 192.248046875 348.161132812 192.248046875 376.47265625 c 256
EndSplineSet
Validated: 1
EndChar

StartChar: oslash
Encoding: 248 248 378
Width: 480
VWidth: 0
Flags: HMW
AnchorPoint: "below" 242 -37 basechar 0
AnchorPoint: "above" 242 445 basechar 0
LayerCount: 2
Fore
SplineSet
35 209 m 256
 35 263.666992188 55.3330078125 313.333007812 96 358 c 256
 136.666992188 402.666992188 185.333007812 425 242 425 c 256
 280.666992188 425 315.333007812 414.666992188 346 394 c 257
 383 447 l 258
 384.333007812 448.333007812 386 449 388 449 c 256
 394.328125 449 411 436.431640625 411 430 c 256
 411 429 411 429 411 427 c 257
 372 372 l 257
 378 366 378 366 386 358 c 256
 425.344726562 314.721679688 445.016601562 264.993164062 445.016601562 208.814453125 c 0
 445.016601562 149.618164062 427.010742188 98.013671875 391 54 c 256
 355 10.6669921875 306.666992188 -11 246 -11 c 256
 202 -11 163.333007812 1.3330078125 130 26 c 257
 90 -32 l 258
 89.3330078125 -33.3330078125 87.6669921875 -34.3330078125 85 -35 c 256
 79.369140625 -35 60 -20.541015625 60 -15 c 256
 60 -14.3330078125 60.3330078125 -13.3330078125 61 -12 c 258
 104 49 l 257
 60.255859375 92.744140625 35 151.713867188 35 209 c 256
115 206 m 256
 115 162.666992188 122.333007812 126.333007812 137 97 c 257
 318 354 l 257
 294.666992188 382 269 396 241 396 c 256
 209.666992188 396 180.666992188 378.666992188 154 344 c 256
 128 310 115 264 115 206 c 256
158 66 m 257
 183.333007812 36 210.666992188 21 240 21 c 256
 270.666992188 21 299.333007812 37.3330078125 326 70 c 256
 352.666992188 103.333007812 366 148.666992188 366 206 c 256
 366 253.333007812 357 293 339 325 c 257
 158 66 l 257
EndSplineSet
Validated: 1
EndChar

StartChar: thorn
Encoding: 254 254 384
Width: 436
VWidth: 0
Flags: HMW
LayerCount: 2
Fore
SplineSet
20 -256 m 256
 20 -252.666992188 21 -250.333007812 23 -249 c 258
 59 -226 l 258
 66.314453125 -221.327148438 70 -212 70 -198 c 258
 70 564 l 258
 70 614 57.6669921875 639 27 639 c 256
 22.3330078125 639 20 643.5 20 652.5 c 0
 20 661.5 22.3330078125 666 27 666 c 256
 40.3330078125 666 57 673.5 83 688.5 c 0
 109 703.5 124.333007812 713.333007812 129 718 c 0
 133.666992188 722.666992188 138 725 142 725 c 256
 146.666992188 725 149 720.666992188 149 712 c 256
 146.333007812 656 145 620.333007812 145 605 c 258
 145 389 l 258
 145 381 146.5 377 149.5 377 c 0
 152.5 377 156 379.333007812 160 384 c 256
 183.333007812 411.333007812 210.333007812 425 241 425 c 256
 283 425 319.333007812 409.833007812 350 379.5 c 0
 380.666992188 349.166992188 396 307.333007812 396 254 c 256
 396 182 370.333007812 121.833007812 319 73.5 c 0
 267.666992188 25.1669921875 214.333007812 -2.6669921875 159 -10 c 256
 149 -11.3330078125 145 -16 145 -25 c 258
 145 -210 l 258
 145 -228.666992188 135.419921875 -241.60546875 116 -248 c 258
 34 -275 l 257
 32 -275 l 258
 24.5380859375 -275 20 -263.865234375 20 -256 c 256
144.922851562 289.96484375 m 0
 144.922851562 288.655273438 144.948242188 287.333007812 145 286 c 258
 145 44 l 258
 145 31.3330078125 148.666992188 25 156 25 c 256
 172 25 193 33.1669921875 219 49.5 c 0
 266.270507812 79.1953125 311 155.21875 311 230 c 256
 311 301.520507812 294.469726562 389 231 389 c 256
 204.333007812 389 179.333007812 370 156 332 c 256
 148.615234375 319.692382812 144.922851562 305.680664062 144.922851562 289.96484375 c 0
EndSplineSet
Validated: 1
EndChar

StartChar: Aogonek
Encoding: 260 260 390
Width: 680
Flags: HM
LayerCount: 2
Fore
SplineSet
223 301 m 0
 223 296 227 293 235 293 c 2
 410 293 l 2
 418 293 422 296 422 301 c 0
 422 302 422 304 421 306 c 2
 338 566 l 2
 336 573 334 576 330 576 c 0
 326 576 323 573 320 566 c 2
 224 306 l 2
 223 305 223 303 223 301 c 0
6 16 m 0
 6 28 8 34 13 34 c 0
 44 34 62 39 72 48 c 0
 82 57 93 73 104 98 c 2
 288 580 l 2
 290 585 291 590 291 594 c 0
 291 598 288 604 284 608 c 0
 280 612 278 615 278 617 c 0
 278 619 285 623 298 630 c 0
 311 637 326 647 343 659 c 0
 360 671 371 677 375 677 c 0
 382 677 388 670 392 656 c 0
 401 625 409 598 416 575 c 2
 578 91 l 2
 591 53 615 34 665 34 c 0
 669 34 671 28 671 16 c 0
 671 4 669 -3 665 -3 c 0
 644.031050206 -1.2525875172 617.718562239 -0.268537630659 577.392125455 -0.047850335662 c 1
 524.797676808 -52.3851283504 498.5 -98.7028132294 498.5 -139 c 0
 498.5 -179.666992188 518.5 -200 558.5 -200 c 0
 577.833007812 -200 594.833007812 -194.333007812 609.5 -183 c 1
 616.166992188 -185 619.5 -191 619.5 -201 c 1
 594.936523438 -232.58203125 569.353515625 -254 518.5 -254 c 0
 464.698242188 -254 430.5 -219.172851562 430.5 -168 c 0
 430.5 -114.578744989 464.559973129 -58.6115948808 532.679008082 -0.097638371435 c 1
 494.777377695 -0.393357018546 465.850674645 -1.36081089219 447 -3 c 0
 442 -3 440 4 440 16 c 0
 440 28 442 34 447 34 c 0
 479 34 495 45 495 67 c 0
 495 74 494 82 491 91 c 2
 442 244 l 2
 439 255 432 260 421 259 c 2
 222 259 l 2
 213 259 206 253 202 242 c 2
 147 89 l 2
 144 82 143 75 143 69 c 0
 143 45 164 34 208 34 c 2
 212 34 l 2
 217 34 219 28 219 16 c 0
 219 4 217 -3 212 -3 c 0
 184 -1 153 0 112 0 c 0
 71 0 40 -1 13 -3 c 0
 8 -3 6 4 6 16 c 0
EndSplineSet
Validated: 1
EndChar

StartChar: aogonek
Encoding: 261 261 391
Width: 400
Flags: HM
LayerCount: 2
Fore
SplineSet
216 425 m 0
 259 425 319 398 319 357 c 2
 319 97 l 2
 319 60 328 36 351 36 c 0
 357 36 360 37 378 50 c 0
 379 51 382 51 383 51 c 0
 386 51 402 39 398 34 c 0
 385.785830095 18.8544293184 376.120291409 8.99872845486 367.350222024 0.387000003848 c 0
 314 -52 276.999998462 -98.0791679418 277 -139 c 0
 277 -179.666992188 297 -200 337 -200 c 0
 356.333007812 -200 373.333007812 -194.333007812 388 -183 c 1
 394.666992188 -185 398 -191 398 -201 c 1
 373.436523438 -232.58203125 347.853515625 -254 297 -254 c 0
 243.198242188 -254 209 -219.172851562 209 -168 c 0
 209 -117.082095025 247.750508187 -65.586393278 310.70590891 -10.2799219525 c 1
 282.315209243 -6.16407472156 262.746572948 15.5958992534 252 55 c 1
 226 30 206 14 191 4 c 0
 176 -6 154 -11 125 -11 c 0
 73 -11 43 30 43 79 c 0
 43 127 82 162 114 178 c 2
 233 241 l 2
 240 244 244 250 244 257 c 2
 244 345 l 2
 244 374 222 388 176 388 c 0
 143 388 123 379 110 364 c 0
 109 362 101 347 99 318 c 0
 97 286 84 272 65 272 c 0
 47 272 40 282 40 300 c 0
 40 318 44 334 58 352 c 0
 72 370 83 383 93 388 c 0
 135 413 176 425 216 425 c 0
179 38 m 0
 205 38 244 72 244 97 c 2
 244 202 l 2
 244 209 241 213 236 213 c 0
 234 213 224 209 206 200 c 0
 147 172 118 136 118 92 c 0
 118 58 142 38 179 38 c 0
EndSplineSet
Validated: 1
EndChar

StartChar: caron.alt
Encoding: 1114112 -1 401
Width: 80
VWidth: 0
Flags: HMW
LayerCount: 2
Fore
SplineSet
0.48046875 557 m 256
 0.48046875 560.333007812 1.48046875 564.333007812 3.48046875 569 c 256
 14.146484375 595.666992188 19.48046875 622 19.48046875 648 c 256
 19.48046875 668 16.48046875 688 10.48046875 708 c 256
 10.48046875 710 10.48046875 710 10.48046875 712 c 256
 10.48046875 720.666992188 21.48046875 726 43.48046875 728 c 256
 48.146484375 728 52.48046875 728.333007812 56.48046875 729 c 256
 72.48046875 729 80.146484375 725.333007812 79.48046875 718 c 256
 79.48046875 658 65.8134765625 605 38.48046875 559 c 256
 31.8134765625 547.666992188 24.8134765625 542 17.48046875 542 c 256
 7.1884765625 542 0.48046875 549.135742188 0.48046875 557 c 256
EndSplineSet
Validated: 1
EndChar

StartChar: dcroat
Encoding: 273 273 404
Width: 494
VWidth: 0
Flags: HMW
AnchorPoint: "above" 260 718 basechar 0
AnchorPoint: "below" 255 -37 basechar 0
LayerCount: 2
Fore
SplineSet
254 36 m 0
 294 36 344 62 344 97 c 2
 344 326 l 2
 344 351 340 366 333 372 c 0
 314 388 290 396 261 396 c 0
 218 396 183 378 158 342 c 0
 133 306 120 263 120 215 c 0
 120 167 133 126 160 90 c 0
 187 54 219 36 254 36 c 0
476 42 m 0
 481 42 482 25 482 19 c 0
 482 16 482 14 480 14 c 0
 478 14 477 14 462 11 c 0
 449 9 361 -10 352 -16 c 0
 347 -16 344 -8 344 8 c 2
 344 28 l 2
 344 35 342 39 338 39 c 0
 334 39 330 37 325 32 c 0
 294 3 262 -11 229 -11 c 0
 165 -11 117 9 86 49 c 0
 55 89 40 140 40 201 c 0
 40 262 61 315 104 359 c 0
 147 403 203 425 272 425 c 0
 295 425 313 423 328 418 c 0
 332 417 335 416 337 416 c 0
 342 416 344 420 344 428 c 2
 344 493 l 2
 344 498 342 501 335 501 c 2
 213 501 l 2
 205 501 204 514.236328125 204 525 c 0
 204 535.763671875 205 550 213 550 c 2
 334 550 l 2
 341 550 344 552 344 560 c 2
 344 572 l 2
 344 617 332 640 302 640 c 0
 297 640 294 645 294 654 c 0
 294 663 297 667 302 667 c 0
 321 667 384 706 396 714 c 0
 406 721 414 725 417 725 c 0
 420 725 422 724 422 720 c 0
 422 705 419 659 419 641 c 2
 419 560 l 2
 419 552 422 550 428 550 c 2
 485 550 l 2
 493 550 494 535.763671875 494 525 c 0
 494 514.236328125 493 501 485 501 c 2
 428 501 l 2
 422 501 419 499 419 493 c 2
 419 113 l 2
 419 64 432 40 459 40 c 0
 463 40 473 42 476 42 c 0
EndSplineSet
Validated: 1
EndChar

